<?xml version="1.0" encoding="UTF-8"?>
<!DOCTYPE svg PUBLIC "-//W3C//DTD SVG 1.1//EN" "http://www.w3.org/Graphics/SVG/1.1/DTD/svg11.dtd">
<svg xmlns="http://www.w3.org/2000/svg" version="1.1" width="250px" height="62px" style="shape-rendering:geometricPrecision; text-rendering:geometricPrecision; image-rendering:optimizeQuality; fill-rule:evenodd; clip-rule:evenodd" xmlns:xlink="http://www.w3.org/1999/xlink">
<g><path style="opacity:0.968" fill="#8ca1cf" d="M 18.5,-0.5 C 19.5,-0.5 20.5,-0.5 21.5,-0.5C 22.2326,1.96334 23.2326,4.29667 24.5,6.5C 24.2483,8.07286 23.5817,9.4062 22.5,10.5C 20.2549,9.36475 17.9216,8.86475 15.5,9C 14.161,14.1691 12.161,19.0024 9.5,23.5C 8.83333,23.1667 8.16667,22.8333 7.5,22.5C 6.16667,20.5 6.16667,18.5 7.5,16.5C 8.16667,16.5 8.5,16.1667 8.5,15.5C 10.664,13.178 12.3307,10.5113 13.5,7.5C 15.9501,5.37094 17.6167,2.70427 18.5,-0.5 Z"/></g>
<g><path style="opacity:0.008" fill="#9e98cb" d="M 25.5,4.5 C 26.5983,5.60093 26.765,6.93426 26,8.5C 25.51,7.20677 25.3433,5.87344 25.5,4.5 Z"/></g>
<g><path style="opacity:0.02" fill="#73739c" d="M 13.5,7.5 C 11.1081,8.36785 10.9414,7.70118 13,5.5C 13.4643,6.09442 13.631,6.76109 13.5,7.5 Z"/></g>
<g><path style="opacity:0.004" fill="#fefffe" d="M 28.5,10.5 C 29.8333,11.1667 29.8333,11.1667 28.5,10.5 Z"/></g>
<g><path style="opacity:0.012" fill="#79888f" d="M 22.5,11.5 C 23.7152,12.779 23.3818,13.779 21.5,14.5C 21.5,13.8333 21.5,13.1667 21.5,12.5C 22.1667,12.5 22.5,12.1667 22.5,11.5 Z"/></g>
<g><path style="opacity:0.008" fill="#bce8f7" d="M 8.5,15.5 C 7.83333,15.5 7.5,15.8333 7.5,16.5C 6.28749,15.5029 6.45415,14.5029 8,13.5C 8.46434,14.0944 8.63101,14.7611 8.5,15.5 Z"/></g>
<g><path style="opacity:0.027" fill="#6d6db6" d="M 20.5,14.5 C 20.8333,14.5 21.1667,14.5 21.5,14.5C 21.3147,15.1701 20.9813,15.1701 20.5,14.5 Z"/></g>
<g><path style="opacity:0.031" fill="#312c2c" d="M 88.5,16.5 C 85.3586,15.6787 82.0252,15.1787 78.5,15C 82.697,13.0502 86.697,13.3835 90.5,16C 89.9056,16.4643 89.2389,16.631 88.5,16.5 Z"/></g>
<g><path style="opacity:0.024" fill="#2f2b2d" d="M 107.5,16.5 C 105.621,16.6068 105.288,16.1068 106.5,15C 110.191,13.1553 113.857,13.1553 117.5,15C 113.975,15.1787 110.641,15.6787 107.5,16.5 Z"/></g>
<g><path style="opacity:0.031" fill="#262526" d="M 183.5,16.5 C 180.5,15.1667 177.5,15.1667 174.5,16.5C 173.448,16.6495 172.448,16.4828 171.5,16C 176.248,12.8398 180.914,12.8398 185.5,16C 184.906,16.4643 184.239,16.631 183.5,16.5 Z"/></g>
<g><path style="opacity:0.031" fill="#2f2e2e" d="M 199.5,13.5 C 201.927,13.523 204.26,14.023 206.5,15C 203.167,15.6667 199.833,15.6667 196.5,15C 197.737,14.7679 198.737,14.2679 199.5,13.5 Z"/></g>
<g><path style="opacity:0.031" fill="#3d2b2b" d="M 223.5,15.5 C 221.473,15.6621 219.473,15.4955 217.5,15C 219.712,14.2109 221.712,14.3775 223.5,15.5 Z"/></g>
<g><path style="opacity:0.031" fill="#3b2327" d="M 249.5,14.5 C 249.5,14.8333 249.5,15.1667 249.5,15.5C 241.5,15.1667 241.5,14.8333 249.5,14.5 Z"/></g>
<g><path style="opacity:0.98" fill="#8ca2d0" d="M 33.5,18.5 C 33.5,19.1667 33.5,19.8333 33.5,20.5C 32.5987,21.2905 31.9321,22.2905 31.5,23.5C 30.6618,23.8417 30.3284,24.5084 30.5,25.5C 29.0937,25.9731 28.427,26.9731 28.5,28.5C 26.6736,30.1475 25.3403,32.1475 24.5,34.5C 23.6618,34.8417 23.3284,35.5084 23.5,36.5C 22.8333,36.5 22.5,36.8333 22.5,37.5C 21.6618,37.8417 21.3284,38.5084 21.5,39.5C 19.8007,39.4729 18.4674,38.8062 17.5,37.5C 17.5,36.8333 17.1667,36.5 16.5,36.5C 16.6716,35.5084 16.3382,34.8417 15.5,34.5C 15.5,33.8333 15.1667,33.5 14.5,33.5C 14.6716,32.5084 14.3382,31.8417 13.5,31.5C 13.5,30.8333 13.1667,30.5 12.5,30.5C 12.6716,29.5084 12.3382,28.8417 11.5,28.5C 11.5,28.1667 11.5,27.8333 11.5,27.5C 14.1873,27.6641 16.854,27.4974 19.5,27C 20.056,26.6174 20.3893,26.1174 20.5,25.5C 20.5,24.8333 20.5,24.1667 20.5,23.5C 21.1667,23.5 21.5,23.1667 21.5,22.5C 22.8897,21.1007 23.8897,19.4341 24.5,17.5C 25.1667,17.5 25.5,17.1667 25.5,16.5C 26.4793,15.2347 27.4793,13.9014 28.5,12.5C 30.1897,14.5193 31.8564,16.5193 33.5,18.5 Z"/></g>
<g><path style="opacity:0.004" fill="#000000" d="M 156.5,16.5 C 155.833,15.1667 155.833,15.1667 156.5,16.5 Z"/></g>
<g><path style="opacity:0.004" fill="#000000" d="M 223.5,15.5 C 224.833,16.1667 224.833,16.1667 223.5,15.5 Z"/></g>
<g><path style="opacity:0.008" fill="#787788" d="M 19.5,15.5 C 19.8333,15.5 20.1667,15.5 20.5,15.5C 20.6716,16.4916 20.3382,17.1583 19.5,17.5C 19.5,16.8333 19.5,16.1667 19.5,15.5 Z"/></g>
<g><path style="opacity:0.016" fill="#92c4c9" d="M 25.5,16.5 C 24.8333,16.5 24.5,16.8333 24.5,17.5C 23.2875,16.5029 23.4542,15.5029 25,14.5C 25.4643,15.0944 25.631,15.7611 25.5,16.5 Z"/></g>
<g><path style="opacity:0.891" fill="#343132" d="M 69.5,34.5 C 69.8333,34.5 70.1667,34.5 70.5,34.5C 70.5,37.1667 70.5,39.8333 70.5,42.5C 64.8333,42.5 59.1667,42.5 53.5,42.5C 53.5,33.8333 53.5,25.1667 53.5,16.5C 55.8333,16.5 58.1667,16.5 60.5,16.5C 60.5,22.8333 60.5,29.1667 60.5,35.5C 63.7131,35.81 66.7131,35.4767 69.5,34.5 Z"/></g>
<g><path style="opacity:0.899" fill="#343132" d="M 155.5,16.5 C 155.5,22.8333 155.5,29.1667 155.5,35.5C 159.167,35.5 162.833,35.5 166.5,35.5C 165.631,37.717 165.298,40.0504 165.5,42.5C 159.833,42.5 154.167,42.5 148.5,42.5C 148.5,33.8333 148.5,25.1667 148.5,16.5C 150.833,16.5 153.167,16.5 155.5,16.5 Z"/></g>
<g><path style="opacity:0.972" fill="#343132" d="M 233.5,16.5 C 233.427,18.0269 234.094,19.0269 235.5,19.5C 235.833,20.5 236.5,21.1667 237.5,21.5C 237.427,23.0269 238.094,24.0269 239.5,24.5C 239.81,25.7383 240.31,25.7383 241,24.5C 241.183,21.6353 241.683,18.9686 242.5,16.5C 242.793,20.4367 242.46,24.27 241.5,28C 242,28.5 242.5,29 243,29.5C 243.499,25.1794 243.666,20.8461 243.5,16.5C 245.5,16.5 247.5,16.5 249.5,16.5C 249.5,25.1667 249.5,33.8333 249.5,42.5C 247.833,42.5 246.167,42.5 244.5,42.5C 244.5,41.8333 244.167,41.5 243.5,41.5C 243.573,39.9731 242.906,38.9731 241.5,38.5C 241.5,37.8333 241.167,37.5 240.5,37.5C 240.5,36.8333 240.167,36.5 239.5,36.5C 239.573,34.9731 238.906,33.9731 237.5,33.5C 237.5,32.8333 237.167,32.5 236.5,32.5C 236.167,31.1667 235.833,31.1667 235.5,32.5C 234.521,35.6248 234.187,38.9581 234.5,42.5C 232.167,42.5 229.833,42.5 227.5,42.5C 227.5,33.8333 227.5,25.1667 227.5,16.5C 229.5,16.5 231.5,16.5 233.5,16.5 Z M 242.5,16.5 C 242.833,16.5 243.167,16.5 243.5,16.5C 243.666,20.8461 243.499,25.1794 243,29.5C 242.5,29 242,28.5 241.5,28C 242.46,24.27 242.793,20.4367 242.5,16.5 Z M 233.5,16.5 C 234.906,16.9731 235.573,17.9731 235.5,19.5C 234.094,19.0269 233.427,18.0269 233.5,16.5 Z M 237.5,21.5 C 238.906,21.9731 239.573,22.9731 239.5,24.5C 238.094,24.0269 237.427,23.0269 237.5,21.5 Z M 237.5,33.5 C 238.906,33.9731 239.573,34.9731 239.5,36.5C 238.833,36.1667 238.167,35.8333 237.5,35.5C 237.5,34.8333 237.5,34.1667 237.5,33.5 Z M 241.5,38.5 C 242.906,38.9731 243.573,39.9731 243.5,41.5C 242.833,41.1667 242.167,40.8333 241.5,40.5C 241.5,39.8333 241.5,39.1667 241.5,38.5 Z"/></g>
<g><path style="opacity:0.016" fill="#40807f" d="M 18.5,17.5 C 18.8333,17.5 19.1667,17.5 19.5,17.5C 19.3147,18.1701 18.9813,18.1701 18.5,17.5 Z"/></g>
<g><path style="opacity:0.97" fill="#343132" d="M 140.5,22.5 C 141.314,26.116 142.648,29.4493 144.5,32.5C 144.328,33.4916 144.662,34.1583 145.5,34.5C 146.167,37.1667 146.833,39.8333 147.5,42.5C 144.467,42.8685 141.8,42.2018 139.5,40.5C 139.5,39.5 139.5,38.5 139.5,37.5C 135.671,36.931 132.337,37.5977 129.5,39.5C 128.596,40.209 128.263,41.209 128.5,42.5C 126.167,42.5 123.833,42.5 121.5,42.5C 121.629,40.7839 121.962,39.1172 122.5,37.5C 123.404,36.791 123.737,35.791 123.5,34.5C 124.338,34.1583 124.672,33.4916 124.5,32.5C 126.685,28.7868 128.352,24.7868 129.5,20.5C 131.069,17.1342 133.736,15.9675 137.5,17C 138.229,19.0581 139.229,20.8914 140.5,22.5 Z M 133.5,26.5 C 137.512,29.5835 137.179,30.7501 132.5,30C 133.337,28.9887 133.67,27.8221 133.5,26.5 Z"/></g>
<g><path style="opacity:0.005" fill="#130f0e" d="M 145.5,34.5 C 145.672,33.5084 145.338,32.8417 144.5,32.5C 144.413,29.4017 144.913,29.0684 146,31.5C 146.333,26.8333 146.667,22.1667 147,17.5C 147.667,23.8333 147.667,30.1667 147,36.5C 146.722,35.5842 146.222,34.9175 145.5,34.5 Z"/></g>
<g><path style="opacity:0.016" fill="#3d3c3b" d="M 156.5,16.5 C 157.489,21.9753 157.822,27.642 157.5,33.5C 160.448,33.3241 163.114,33.3241 165.5,33.5C 162.572,34.4841 159.572,34.8174 156.5,34.5C 156.5,28.5 156.5,22.5 156.5,16.5 Z"/></g>
<g><path style="opacity:0.966" fill="#343132" d="M 223.5,16.5 C 223.5,25.1667 223.5,33.8333 223.5,42.5C 221.167,42.5 218.833,42.5 216.5,42.5C 216.5,33.8333 216.5,25.1667 216.5,16.5C 218.833,16.5 221.167,16.5 223.5,16.5 Z"/></g>
<g><path style="opacity:0.994" fill="#778dba" d="M 22.5,10.5 C 22.5,10.8333 22.5,11.1667 22.5,11.5C 21.8333,11.5 21.5,11.8333 21.5,12.5C 20.6618,12.8417 20.3284,13.5084 20.5,14.5C 19.8333,14.5 19.5,14.8333 19.5,15.5C 18.6618,15.8417 18.3284,16.5084 18.5,17.5C 16.0776,19.0478 16.0776,20.7145 18.5,22.5C 18.5,23.1667 18.8333,23.5 19.5,23.5C 19.3284,24.4916 19.6618,25.1583 20.5,25.5C 20.3893,26.1174 20.056,26.6174 19.5,27C 16.854,27.4974 14.1873,27.6641 11.5,27.5C 11.1667,26.5 10.5,25.8333 9.5,25.5C 9.5,24.8333 9.5,24.1667 9.5,23.5C 12.161,19.0024 14.161,14.1691 15.5,9C 17.9216,8.86475 20.2549,9.36475 22.5,10.5 Z"/></g>
<g><path style="opacity:0.024" fill="#9eacda" d="M 33.5,20.5 C 34.8333,19.8333 34.8333,19.1667 33.5,18.5C 34.2766,16.1804 34.9432,16.5137 35.5,19.5C 34.9432,22.4863 34.2766,22.8196 33.5,20.5 Z"/></g>
<g><path style="opacity:0.986" fill="#343132" d="M 88.5,16.5 C 91.7843,18.117 94.4509,20.4503 96.5,23.5C 97.8333,27.5 97.8333,31.5 96.5,35.5C 95.6618,35.8417 95.3284,36.5084 95.5,37.5C 94.8333,37.5 94.5,37.8333 94.5,38.5C 93.8333,38.5 93.5,38.8333 93.5,39.5C 92.8333,39.5 92.5,39.8333 92.5,40.5C 91.5084,40.3284 90.8417,40.6618 90.5,41.5C 89.5084,41.3284 88.8417,41.6618 88.5,42.5C 85.1667,42.5 81.8333,42.5 78.5,42.5C 78.1583,41.6618 77.4916,41.3284 76.5,41.5C 76.5,40.8333 76.1667,40.5 75.5,40.5C 74.8333,39.1667 73.8333,38.1667 72.5,37.5C 72.0679,36.2905 71.4013,35.2905 70.5,34.5C 70.5,31.1667 70.5,27.8333 70.5,24.5C 74.464,17.5222 80.464,14.8555 88.5,16.5 Z M 87.5,24.5 C 86.1779,24.67 85.0113,24.3366 84,23.5C 82.6976,24.0848 81.531,24.7515 80.5,25.5C 79.8333,25.8333 79.1667,26.1667 78.5,26.5C 78.4142,25.5041 78.7476,24.6708 79.5,24C 82.4554,21.9155 85.1221,22.0821 87.5,24.5 Z M 80.5,25.5 C 86.9049,24.4062 89.2382,27.0729 87.5,33.5C 85.8828,34.038 84.2161,34.3713 82.5,34.5C 82.1583,33.6618 81.4916,33.3284 80.5,33.5C 79.1667,30.8333 79.1667,28.1667 80.5,25.5 Z M 88.5,25.5 C 91.1667,28.1667 91.1667,30.8333 88.5,33.5C 88.5,30.8333 88.5,28.1667 88.5,25.5 Z M 78.5,32.5 C 79.1667,32.8333 79.8333,33.1667 80.5,33.5C 80.8417,34.3382 81.5084,34.6716 82.5,34.5C 82.5,34.8333 82.5,35.1667 82.5,35.5C 80.0274,35.9118 78.6941,34.9118 78.5,32.5 Z"/></g>
<g><path style="opacity:0.975" fill="#343132" d="M 107.5,16.5 C 110.518,16.3354 113.518,16.502 116.5,17C 118.544,17.4983 119.878,18.665 120.5,20.5C 119.662,20.8417 119.328,21.5084 119.5,22.5C 118.662,22.8417 118.328,23.5084 118.5,24.5C 117.833,24.5 117.167,24.5 116.5,24.5C 113.833,21.8333 111.167,21.8333 108.5,24.5C 107.833,24.5 107.5,24.8333 107.5,25.5C 106.167,27.8333 106.167,30.1667 107.5,32.5C 107.328,33.4916 107.662,34.1583 108.5,34.5C 111.5,37.1667 114.5,37.1667 117.5,34.5C 120.067,36.0372 120.734,38.2039 119.5,41C 115.605,42.2662 111.605,42.7662 107.5,42.5C 107.158,41.6618 106.492,41.3284 105.5,41.5C 103.5,40.1667 101.833,38.5 100.5,36.5C 98.6289,32.2472 98.2955,27.9138 99.5,23.5C 101.549,20.4503 104.216,18.117 107.5,16.5 Z M 116.5,24.5 C 113.833,23.1667 111.167,23.1667 108.5,24.5C 111.167,21.8333 113.833,21.8333 116.5,24.5 Z"/></g>
<g><path style="opacity:0.978" fill="#343132" d="M 174.5,16.5 C 177.5,16.5 180.5,16.5 183.5,16.5C 185.297,17.393 186.63,18.7263 187.5,20.5C 186.833,20.5 186.5,20.8333 186.5,21.5C 185.662,21.8417 185.328,22.5084 185.5,23.5C 184.833,23.8333 184.167,24.1667 183.5,24.5C 180.833,21.8333 178.167,21.8333 175.5,24.5C 174.833,24.5 174.5,24.8333 174.5,25.5C 173.167,28.1667 173.167,30.8333 174.5,33.5C 174.5,34.1667 174.833,34.5 175.5,34.5C 176.209,35.404 177.209,35.7373 178.5,35.5C 179.5,36.8333 180.5,36.8333 181.5,35.5C 182.492,35.6716 183.158,35.3382 183.5,34.5C 184.167,34.5 184.833,34.5 185.5,34.5C 185.5,35.1667 185.833,35.5 186.5,35.5C 188.274,38.8522 187.274,41.0189 183.5,42C 179.779,42.6781 176.112,42.5114 172.5,41.5C 171.205,40.5116 169.872,39.5116 168.5,38.5C 168.5,37.8333 168.167,37.5 167.5,37.5C 167.672,36.5084 167.338,35.8417 166.5,35.5C 165.167,31.5 165.167,27.5 166.5,23.5C 168.549,20.4503 171.216,18.117 174.5,16.5 Z M 183.5,24.5 C 180.833,23.1667 178.167,23.1667 175.5,24.5C 178.167,21.8333 180.833,21.8333 183.5,24.5 Z"/></g>
<g><path style="opacity:0.963" fill="#343132" d="M 214.5,23.5 C 214.511,25.5466 214.844,27.5466 215.5,29.5C 214.827,31.851 214.16,34.1843 213.5,36.5C 211.833,37.5 210.5,38.8333 209.5,40.5C 208.833,40.5 208.5,40.8333 208.5,41.5C 207.508,41.3284 206.842,41.6618 206.5,42.5C 203.167,42.5 199.833,42.5 196.5,42.5C 196.158,41.6618 195.492,41.3284 194.5,41.5C 193.205,40.5116 191.872,39.5116 190.5,38.5C 189.492,36.4561 188.492,34.4561 187.5,32.5C 187.704,29.4824 188.037,26.4824 188.5,23.5C 189.167,23.5 189.5,23.1667 189.5,22.5C 190.338,22.1583 190.672,21.4916 190.5,20.5C 195.196,16.7888 200.53,15.6221 206.5,17C 209.961,18.3046 212.628,20.4713 214.5,23.5 Z M 205.5,24.5 C 202.833,23.1667 200.167,23.1667 197.5,24.5C 200.167,21.8333 202.833,21.8333 205.5,24.5 Z M 205.5,24.5 C 206.117,24.6107 206.617,24.944 207,25.5C 207.801,28.367 207.634,31.0336 206.5,33.5C 206.802,30.9407 206.468,28.6074 205.5,26.5C 205.5,25.8333 205.5,25.1667 205.5,24.5 Z M 196.5,25.5 C 196.198,28.0593 196.532,30.3926 197.5,32.5C 197.5,33.1667 197.5,33.8333 197.5,34.5C 196.883,34.3893 196.383,34.056 196,33.5C 195.199,30.633 195.366,27.9664 196.5,25.5 Z M 205.5,26.5 C 206.171,29.986 205.171,32.6527 202.5,34.5C 201.833,34.5 201.167,34.5 200.5,34.5C 199.71,33.5987 198.71,32.9321 197.5,32.5C 196.54,25.7607 199.207,23.7607 205.5,26.5 Z M 197.5,34.5 C 198.5,34.5 199.5,34.5 200.5,34.5C 201.167,35.8333 201.833,35.8333 202.5,34.5C 203.5,34.5 204.5,34.5 205.5,34.5C 202.833,37.1667 200.167,37.1667 197.5,34.5 Z"/></g>
<g><path style="opacity:0.024" fill="#313131" d="M 121.5,20.5 C 121.369,19.7611 121.536,19.0944 122,18.5C 122.692,19.4368 122.525,20.1034 121.5,20.5 Z"/></g>
<g><path style="opacity:0.005" fill="#221c21" d="M 129.5,20.5 C 128.778,20.9175 128.278,21.5842 128,22.5C 127.48,20.7111 127.813,19.0444 129,17.5C 129.483,18.448 129.649,19.448 129.5,20.5 Z"/></g>
<g><path style="opacity:0.02" fill="#222222" d="M 226.5,42.5 C 225.883,42.3893 225.383,42.056 225,41.5C 224.833,37.5 224.667,33.5 224.5,29.5C 224.361,24.9909 224.861,20.6576 226,16.5C 226.5,25.1603 226.666,33.8269 226.5,42.5 Z"/></g>
<g><path style="opacity:0.027" fill="#432222" d="M 51.5,16.5 C 52.6569,24.9901 52.8236,33.6567 52,42.5C 51.5002,33.8397 51.3336,25.1731 51.5,16.5 Z"/></g>
<g><path style="opacity:0.004" fill="#26201f" d="M 190.5,20.5 C 189.662,20.8417 189.328,21.5084 189.5,22.5C 189.167,22.5 188.833,22.5 188.5,22.5C 188.5,21.8333 188.167,21.5 187.5,21.5C 187.5,21.1667 187.5,20.8333 187.5,20.5C 188.472,17.9017 189.472,17.9017 190.5,20.5 Z"/></g>
<g><path style="opacity:0.016" fill="#363636" d="M 120.5,20.5 C 120.833,20.5 121.167,20.5 121.5,20.5C 121.672,21.4916 121.338,22.1583 120.5,22.5C 120.5,21.8333 120.5,21.1667 120.5,20.5 Z"/></g>
<g><path style="opacity:0.006" fill="#202020" d="M 140.5,22.5 C 140.793,18.7787 141.459,18.9454 142.5,23C 142.333,23.5 142.167,24 142,24.5C 141.722,23.5842 141.222,22.9175 140.5,22.5 Z"/></g>
<g><path style="opacity:0.004" fill="#0000ff" d="M 1.5,22.5 C 2.83333,23.1667 2.83333,23.1667 1.5,22.5 Z"/></g>
<g><path style="opacity:0.051" fill="#7d8cae" d="M 21.5,22.5 C 20.8333,22.5 20.5,22.8333 20.5,23.5C 20.1667,23.5 19.8333,23.5 19.5,23.5C 18.8333,23.5 18.5,23.1667 18.5,22.5C 18.369,21.7611 18.5357,21.0944 19,20.5C 19.6667,21.8333 20.3333,21.8333 21,20.5C 21.4643,21.0944 21.631,21.7611 21.5,22.5 Z"/></g>
<g><path style="opacity:0.031" fill="#3f201f" d="M 119.5,22.5 C 119.833,22.5 120.167,22.5 120.5,22.5C 120.315,23.1701 119.981,23.1701 119.5,22.5 Z"/></g>
<g><path style="opacity:0.007" fill="#1c1c1c" d="M 166.5,23.5 C 165.732,24.2625 165.232,25.2625 165,26.5C 164.226,24.597 164.56,22.9304 166,21.5C 166.464,22.0944 166.631,22.7611 166.5,23.5 Z"/></g>
<g><path style="opacity:0.027" fill="#2d2d2d" d="M 214.5,23.5 C 213.773,21.2834 213.94,18.9501 215,16.5C 215.796,19.0385 215.629,21.3718 214.5,23.5 Z"/></g>
<g><path style="opacity:0.006" fill="#1b1716" d="M 183.5,24.5 C 184.463,25.3635 184.463,26.0302 183.5,26.5C 180.916,25.6072 178.249,25.2739 175.5,25.5C 175.5,25.1667 175.5,24.8333 175.5,24.5C 178.167,23.1667 180.833,23.1667 183.5,24.5 Z"/></g>
<g><path style="opacity:0.006" fill="#242424" d="M 205.5,24.5 C 205.5,25.1667 205.5,25.8333 205.5,26.5C 199.207,23.7607 196.54,25.7607 197.5,32.5C 196.532,30.3926 196.198,28.0593 196.5,25.5C 197.167,25.5 197.5,25.1667 197.5,24.5C 200.167,23.1667 202.833,23.1667 205.5,24.5 Z"/></g>
<g><path style="opacity:0.024" fill="#312d2d" d="M 87.5,24.5 C 87.5,25.1667 87.8333,25.5 88.5,25.5C 88.5,28.1667 88.5,30.8333 88.5,33.5C 88.1667,33.5 87.8333,33.5 87.5,33.5C 89.2382,27.0729 86.9049,24.4062 80.5,25.5C 81.531,24.7515 82.6976,24.0848 84,23.5C 85.0113,24.3366 86.1779,24.67 87.5,24.5 Z"/></g>
<g><path style="opacity:0.02" fill="#2f2a2f" d="M 99.5,23.5 C 98.7784,23.9175 98.2784,24.5842 98,25.5C 97.7216,24.5842 97.2216,23.9175 96.5,23.5C 96.369,22.7611 96.5357,22.0944 97,21.5C 97.6667,22.8333 98.3333,22.8333 99,21.5C 99.4643,22.0944 99.631,22.7611 99.5,23.5 Z"/></g>
<g><path style="opacity:0.02" fill="#2f2b2e" d="M 116.5,24.5 C 116.5,24.8333 116.5,25.1667 116.5,25.5C 110.073,23.7618 107.406,26.0951 108.5,32.5C 108.167,32.5 107.833,32.5 107.5,32.5C 107.5,30.1667 107.5,27.8333 107.5,25.5C 108.167,25.5 108.5,25.1667 108.5,24.5C 111.167,23.1667 113.833,23.1667 116.5,24.5 Z"/></g>
<g><path style="opacity:0.004" fill="#000000" d="M 118.5,24.5 C 119.833,25.1667 119.833,25.1667 118.5,24.5 Z"/></g>
<g><path style="opacity:0.006" fill="#000000" d="M 116.5,25.5 C 117.167,25.5 117.833,25.5 118.5,25.5C 117.833,26.8333 117.167,26.8333 116.5,25.5 Z"/></g>
<g><path style="opacity:0.008" fill="#8d99ee" d="M -0.5,25.5 C 0.338246,25.8417 0.67158,26.5084 0.5,27.5C 0.166667,27.5 -0.166667,27.5 -0.5,27.5C -0.5,26.8333 -0.5,26.1667 -0.5,25.5 Z"/></g>
<g><path style="opacity:0.981" fill="#90a5d1" d="M 40.5,29.5 C 39.1667,32.5 37.8333,35.5 36.5,38.5C 35.8333,38.5 35.5,38.8333 35.5,39.5C 34.6618,39.8417 34.3284,40.5084 34.5,41.5C 33.8333,41.5 33.5,41.8333 33.5,42.5C 32.6618,42.8417 32.3284,43.5084 32.5,44.5C 31.8333,44.5 31.5,44.8333 31.5,45.5C 30.6618,45.8417 30.3284,46.5084 30.5,47.5C 29.8333,47.5 29.5,47.8333 29.5,48.5C 28.6618,48.8417 28.3284,49.5084 28.5,50.5C 27.8333,50.5 27.5,50.8333 27.5,51.5C 26.6618,51.8417 26.3284,52.5084 26.5,53.5C 25.8333,53.5 25.5,53.8333 25.5,54.5C 24.1103,55.8993 23.1103,57.5659 22.5,59.5C 21.6618,59.8417 21.3284,60.5084 21.5,61.5C 20.5,61.5 19.5,61.5 18.5,61.5C 18.6716,60.5084 18.3382,59.8417 17.5,59.5C 17.0679,58.2905 16.4013,57.2905 15.5,56.5C 15.0679,55.2905 14.4013,54.2905 13.5,53.5C 13.5,52.8333 13.1667,52.5 12.5,52.5C 12.4431,51.391 12.1098,50.391 11.5,49.5C 14.1873,49.6641 16.854,49.4974 19.5,49C 20.056,48.6174 20.3893,48.1174 20.5,47.5C 20.5,46.8333 20.5,46.1667 20.5,45.5C 21.1667,45.5 21.5,45.1667 21.5,44.5C 22.4013,43.7095 23.0679,42.7095 23.5,41.5C 24.3382,41.1583 24.6716,40.4916 24.5,39.5C 25.9063,39.0269 26.573,38.0269 26.5,36.5C 28.3264,34.8525 29.6597,32.8525 30.5,30.5C 31.3382,30.1583 31.6716,29.4916 31.5,28.5C 32.1667,28.5 32.5,28.1667 32.5,27.5C 33.3382,27.1583 33.6716,26.4916 33.5,25.5C 34.212,24.2613 35.212,23.7613 36.5,24C 37.6966,26.0153 39.0299,27.8487 40.5,29.5 Z"/></g>
<g><path style="opacity:0.02" fill="#8f9fca" d="M 31.5,23.5 C 32.5,23.8333 33.1667,24.5 33.5,25.5C 32.6618,25.8417 32.3284,26.5084 32.5,27.5C 31.8333,27.5 31.5,27.8333 31.5,28.5C 30.6618,28.8417 30.3284,29.5084 30.5,30.5C 27.5426,32.0251 26.8759,31.3584 28.5,28.5C 29.9063,28.0269 30.573,27.0269 30.5,25.5C 31.3382,25.1583 31.6716,24.4916 31.5,23.5 Z"/></g>
<g><path style="opacity:0.02" fill="#2b1f1e" d="M 80.5,25.5 C 79.1667,28.1667 79.1667,30.8333 80.5,33.5C 79.8333,33.1667 79.1667,32.8333 78.5,32.5C 78.5,30.5 78.5,28.5 78.5,26.5C 79.1667,26.1667 79.8333,25.8333 80.5,25.5 Z"/></g>
<g><path style="opacity:0.004" fill="#000000" d="M 163.5,27.5 C 164.598,28.6009 164.765,29.9343 164,31.5C 163.51,30.2068 163.343,28.8734 163.5,27.5 Z"/></g>
<g><path style="opacity:0.008" fill="#8595bc" d="M 40.5,29.5 C 40.369,28.7611 40.5357,28.0944 41,27.5C 43.054,29.1396 43.3873,30.8063 42,32.5C 41.7679,31.2625 41.2679,30.2625 40.5,29.5 Z"/></g>
<g><path style="opacity:0.985" fill="#869cca" d="M 5.5,23.5 C 5.32842,24.4916 5.66175,25.1583 6.5,25.5C 6.32842,26.4916 6.66175,27.1583 7.5,27.5C 7.5,28.1667 7.83333,28.5 8.5,28.5C 8.32842,29.4916 8.66175,30.1583 9.5,30.5C 9.5,31.1667 9.83333,31.5 10.5,31.5C 10.3284,32.4916 10.6618,33.1583 11.5,33.5C 11.5,34.1667 11.8333,34.5 12.5,34.5C 12.3284,35.4916 12.6618,36.1583 13.5,36.5C 13.427,38.0269 14.0937,39.0269 15.5,39.5C 15.427,41.0269 16.0937,42.0269 17.5,42.5C 17.3284,43.4916 17.6618,44.1583 18.5,44.5C 18.5,45.1667 18.8333,45.5 19.5,45.5C 19.3284,46.4916 19.6618,47.1583 20.5,47.5C 20.3893,48.1174 20.056,48.6174 19.5,49C 16.854,49.4974 14.1873,49.6641 11.5,49.5C 9.15415,46.1292 6.82082,42.7959 4.5,39.5C 4.06795,38.2905 3.40128,37.2905 2.5,36.5C 2.5,35.8333 2.16667,35.5 1.5,35.5C 1.67158,34.5084 1.33825,33.8417 0.5,33.5C 0.5,32.8333 0.166667,32.5 -0.5,32.5C -0.5,31.1667 -0.5,29.8333 -0.5,28.5C 0.166667,28.5 0.5,28.1667 0.5,27.5C 1.55876,25.4446 3.22543,24.1112 5.5,23.5 Z"/></g>
<g><path style="opacity:0.021" fill="#2f2b2d" d="M 174.5,25.5 C 174.833,25.5 175.167,25.5 175.5,25.5C 175.337,27.8568 175.503,30.1902 176,32.5C 176.995,33.0659 177.828,33.7326 178.5,34.5C 177.5,34.5 176.5,34.5 175.5,34.5C 174.833,34.5 174.5,34.1667 174.5,33.5C 174.5,30.8333 174.5,28.1667 174.5,25.5 Z"/></g>
<g><path style="opacity:0.006" fill="#1a1a1a" d="M 117.5,34.5 C 113.779,34.2074 113.945,33.5407 118,32.5C 118.5,32.6667 119,32.8333 119.5,33C 118.584,33.2784 117.918,33.7784 117.5,34.5 Z"/></g>
<g><path style="opacity:0.004" fill="#262626" d="M 186.5,21.5 C 186.833,21.5 187.167,21.5 187.5,21.5C 188.167,21.5 188.5,21.8333 188.5,22.5C 188.5,22.8333 188.5,23.1667 188.5,23.5C 186.518,26.3726 186.185,29.3726 187.5,32.5C 187.737,33.791 187.404,34.791 186.5,35.5C 185.833,35.5 185.5,35.1667 185.5,34.5C 185.158,33.6618 184.492,33.3284 183.5,33.5C 185.566,30.3371 186.232,27.0038 185.5,23.5C 186.338,23.1583 186.672,22.4916 186.5,21.5 Z"/></g>
<g><path style="opacity:0.02" fill="#3a2424" d="M 70.5,24.5 C 68.2519,27.5421 67.9185,30.8754 69.5,34.5C 66.8333,34.5 64.1667,34.5 61.5,34.5C 61.3338,28.4908 61.5005,22.4908 62,16.5C 62.4994,22.1569 62.6661,27.8236 62.5,33.5C 64.5273,33.6621 66.5273,33.4955 68.5,33C 67.0947,29.2607 67.5947,25.7607 70,22.5C 70.4643,23.0944 70.631,23.7611 70.5,24.5 Z"/></g>
<g><path style="opacity:0.027" fill="#222222" d="M 100.5,36.5 C 100.225,38.8418 99.3919,38.8418 98,36.5C 97.6174,37.056 97.1174,37.3893 96.5,37.5C 96.5,36.8333 96.5,36.1667 96.5,35.5C 97.2216,35.0825 97.7216,34.4158 98,33.5C 98.3768,34.9423 99.2101,35.9423 100.5,36.5 Z"/></g>
<g><path style="opacity:0.004" fill="#1a1a1a" d="M 108.5,32.5 C 112.286,33.6953 112.286,34.362 108.5,34.5C 108.5,33.8333 108.5,33.1667 108.5,32.5 Z"/></g>
<g><path style="opacity:0.006" fill="#191919" d="M 124.5,32.5 C 123.662,32.8417 123.328,33.5084 123.5,34.5C 122.596,35.209 122.263,36.209 122.5,37.5C 121.522,37.189 120.855,36.5223 120.5,35.5C 121.919,33.6641 123.086,31.6641 124,29.5C 124.483,30.448 124.649,31.448 124.5,32.5 Z"/></g>
<g><path style="opacity:0.035" fill="#3c3230" d="M 183.5,33.5 C 183.5,33.8333 183.5,34.1667 183.5,34.5C 182.508,34.3284 181.842,34.6618 181.5,35.5C 180.5,35.5 179.5,35.5 178.5,35.5C 178.5,35.1667 178.5,34.8333 178.5,34.5C 180.117,33.962 181.784,33.6287 183.5,33.5 Z"/></g>
<g><path style="opacity:0.004" fill="#212121" d="M 197.5,32.5 C 198.71,32.9321 199.71,33.5987 200.5,34.5C 199.5,34.5 198.5,34.5 197.5,34.5C 197.5,33.8333 197.5,33.1667 197.5,32.5 Z"/></g>
<g><path style="opacity:0.039" fill="#343434" d="M 205.5,26.5 C 206.468,28.6074 206.802,30.9407 206.5,33.5C 205.833,33.5 205.5,33.8333 205.5,34.5C 204.5,34.5 203.5,34.5 202.5,34.5C 205.171,32.6527 206.171,29.986 205.5,26.5 Z"/></g>
<g><path style="opacity:0.02" fill="#bbb9dd" d="M -0.5,33.5 C -0.166667,33.5 0.166667,33.5 0.5,33.5C 0.5,34.1667 0.5,34.8333 0.5,35.5C 0.166667,35.5 -0.166667,35.5 -0.5,35.5C -0.5,34.8333 -0.5,34.1667 -0.5,33.5 Z"/></g>
<g><path style="opacity:0.012" fill="#3b383b" d="M 235.5,32.5 C 235.833,32.5 236.167,32.5 236.5,32.5C 237.167,32.5 237.5,32.8333 237.5,33.5C 237.5,34.1667 237.5,34.8333 237.5,35.5C 237.167,35.5 236.833,35.5 236.5,35.5C 235.89,34.609 235.557,33.609 235.5,32.5 Z"/></g>
<g><path style="opacity:0.004" fill="#000000" d="M 236.5,35.5 C 236.662,37.5273 236.495,39.5273 236,41.5C 235.211,39.2884 235.378,37.2884 236.5,35.5 Z"/></g>
<g><path style="opacity:0.024" fill="#7c95d1" d="M 26.5,36.5 C 25.0937,36.9731 24.427,37.9731 24.5,39.5C 23.6618,39.8417 23.3284,40.5084 23.5,41.5C 22.8333,41.1667 22.1667,40.8333 21.5,40.5C 21.5,40.1667 21.5,39.8333 21.5,39.5C 22.3382,39.1583 22.6716,38.4916 22.5,37.5C 23.1667,37.5 23.5,37.1667 23.5,36.5C 24.3382,36.1583 24.6716,35.4916 24.5,34.5C 27.4574,32.9749 28.1241,33.6416 26.5,36.5 Z"/></g>
<g><path style="opacity:0.02" fill="#8e90b9" d="M 0.5,35.5 C 0.833333,35.5 1.16667,35.5 1.5,35.5C 2.16667,35.5 2.5,35.8333 2.5,36.5C 1.69871,38.7929 1.03204,38.4596 0.5,35.5 Z"/></g>
<g><path style="opacity:0.012" fill="#97a8c4" d="M 7.5,22.5 C 7.42702,24.0269 8.09368,25.0269 9.5,25.5C 9.42702,27.0269 10.0937,28.0269 11.5,28.5C 11.3284,29.4916 11.6618,30.1583 12.5,30.5C 13.1667,30.5 13.5,30.8333 13.5,31.5C 13.3284,32.4916 13.6618,33.1583 14.5,33.5C 15.1667,33.5 15.5,33.8333 15.5,34.5C 15.3284,35.4916 15.6618,36.1583 16.5,36.5C 17.1667,36.5 17.5,36.8333 17.5,37.5C 17.5,38.5 17.5,39.5 17.5,40.5C 16.8333,40.1667 16.1667,39.8333 15.5,39.5C 15.573,37.9731 14.9063,36.9731 13.5,36.5C 13.6716,35.5084 13.3382,34.8417 12.5,34.5C 11.8333,34.5 11.5,34.1667 11.5,33.5C 11.6716,32.5084 11.3382,31.8417 10.5,31.5C 9.83333,31.5 9.5,31.1667 9.5,30.5C 9.67158,29.5084 9.33825,28.8417 8.5,28.5C 7.83333,28.5 7.5,28.1667 7.5,27.5C 7.67158,26.5084 7.33825,25.8417 6.5,25.5C 6.67158,24.5084 6.33825,23.8417 5.5,23.5C 5.08247,22.7784 4.4158,22.2784 3.5,22C 4.22662,20.6012 4.72662,19.1012 5,17.5C 5.09946,19.6526 5.9328,21.3192 7.5,22.5 Z"/></g>
<g><path style="opacity:0.024" fill="#2a2b2a" d="M 95.5,37.5 C 95.8333,37.5 96.1667,37.5 96.5,37.5C 96.3147,38.1701 95.9813,38.1701 95.5,37.5 Z"/></g>
<g><path style="opacity:0.024" fill="#2a2b2a" d="M 94.5,38.5 C 94.8333,38.5 95.1667,38.5 95.5,38.5C 95.3147,39.1701 94.9813,39.1701 94.5,38.5 Z"/></g>
<g><path style="opacity:0.004" fill="#111111" d="M 130.5,39.5 C 132.288,38.3775 134.288,38.2109 136.5,39C 134.527,39.4955 132.527,39.6621 130.5,39.5 Z"/></g>
<g><path style="opacity:0.008" fill="#181211" d="M 167.5,37.5 C 168.167,37.5 168.5,37.8333 168.5,38.5C 168.013,39.4734 167.513,40.4734 167,41.5C 166.235,39.9343 166.402,38.6009 167.5,37.5 Z"/></g>
<g><path style="opacity:0.016" fill="#404040" d="M 190.5,38.5 C 188.846,41.1368 188.346,40.8034 189,37.5C 189.383,38.056 189.883,38.3893 190.5,38.5 Z"/></g>
<g><path style="opacity:0.012" fill="#413e40" d="M 213.5,36.5 C 214.117,36.3893 214.617,36.056 215,35.5C 215.667,37.8333 215.667,40.1667 215,42.5C 214.495,40.4817 213.995,38.4817 213.5,36.5 Z"/></g>
<g><path style="opacity:0.006" fill="#1d1d1d" d="M 240.5,37.5 C 241.167,37.5 241.5,37.8333 241.5,38.5C 241.5,39.1667 241.5,39.8333 241.5,40.5C 239.618,39.779 239.285,38.779 240.5,37.5 Z"/></g>
<g><path style="opacity:0.027" fill="#33231f" d="M 72.5,37.5 C 72.5569,38.609 72.8902,39.609 73.5,40.5C 72.7784,40.9175 72.2784,41.5842 72,42.5C 71.2204,40.6131 71.3871,38.9464 72.5,37.5 Z"/></g>
<g><path style="opacity:0.02" fill="#323332" d="M 93.5,39.5 C 93.8333,39.5 94.1667,39.5 94.5,39.5C 94.3147,40.1701 93.9813,40.1701 93.5,39.5 Z"/></g>
<g><path style="opacity:0.012" fill="#4b4b4b" d="M 138.5,40.5 C 137.475,40.1034 137.308,39.4368 138,38.5C 138.464,39.0944 138.631,39.7611 138.5,40.5 Z"/></g>
<g><path style="opacity:0.008" fill="#948de2" d="M 4.5,39.5 C 4.63101,40.2389 4.46434,40.9056 4,41.5C 3.30831,40.5632 3.47498,39.8966 4.5,39.5 Z"/></g>
<g><path style="opacity:0.004" fill="#bcd7f2" d="M 17.5,40.5 C 18.8333,40.5 20.1667,40.5 21.5,40.5C 21.1667,41.1667 20.8333,41.8333 20.5,42.5C 20.1667,42.5 19.8333,42.5 19.5,42.5C 19.1667,41.1667 18.8333,41.1667 18.5,42.5C 18.1667,42.5 17.8333,42.5 17.5,42.5C 17.5,41.8333 17.5,41.1667 17.5,40.5 Z"/></g>
<g><path style="opacity:0.016" fill="#bbbef8" d="M 36.5,38.5 C 37.7152,39.779 37.3818,40.779 35.5,41.5C 35.5,40.8333 35.5,40.1667 35.5,39.5C 36.1667,39.5 36.5,39.1667 36.5,38.5 Z"/></g>
<g><path style="opacity:0.006" fill="#191919" d="M 73.5,40.5 C 74.1667,40.5 74.8333,40.5 75.5,40.5C 76.1667,40.5 76.5,40.8333 76.5,41.5C 76.5,41.8333 76.5,42.1667 76.5,42.5C 74.9731,42.573 73.9731,41.9063 73.5,40.5 Z"/></g>
<g><path style="opacity:0.024" fill="#2a2b2a" d="M 92.5,40.5 C 92.8333,40.5 93.1667,40.5 93.5,40.5C 93.3147,41.1701 92.9813,41.1701 92.5,40.5 Z"/></g>
<g><path style="opacity:0.012" fill="#3a0a39" d="M 129.5,39.5 C 129.833,39.5 130.167,39.5 130.5,39.5C 130.167,42.1667 129.833,42.1667 129.5,39.5 Z"/></g>
<g><path style="opacity:0.006" fill="#191919" d="M 209.5,40.5 C 211.793,41.3013 211.46,41.968 208.5,42.5C 208.5,42.1667 208.5,41.8333 208.5,41.5C 209.167,41.5 209.5,41.1667 209.5,40.5 Z"/></g>
<g><path style="opacity:0.004" fill="#121212" d="M 138.5,40.5 C 138.833,40.5 139.167,40.5 139.5,40.5C 139.167,43.1667 138.833,43.1667 138.5,40.5 Z"/></g>
<g><path style="opacity:0.008" fill="#181818" d="M 172.5,41.5 C 173.368,43.8919 172.701,44.0586 170.5,42C 171.094,41.5357 171.761,41.369 172.5,41.5 Z"/></g>
<g><path style="opacity:0.004" fill="#281c20" d="M 105.5,41.5 C 105.842,42.3382 106.508,42.6716 107.5,42.5C 110.641,43.3213 113.975,43.8213 117.5,44C 113.833,44.6667 110.167,44.6667 106.5,44C 103.598,43.0814 103.265,42.2481 105.5,41.5 Z"/></g>
<g><path style="opacity:0.004" fill="#000000" d="M 128.5,42.5 C 129.833,43.1667 129.833,43.1667 128.5,42.5 Z"/></g>
<g><path style="opacity:0.008" fill="#000000" d="M 147.5,42.5 C 147.833,42.5 148.167,42.5 148.5,42.5C 148.5,42.8333 148.5,43.1667 148.5,43.5C 148.167,43.1667 147.833,42.8333 147.5,42.5 Z"/></g>
<g><path style="opacity:0.004" fill="#000000" d="M 223.5,42.5 C 224.833,43.1667 224.833,43.1667 223.5,42.5 Z"/></g>
<g><path style="opacity:0.004" fill="#000000" d="M 226.5,42.5 C 226.833,42.5 227.167,42.5 227.5,42.5C 227.5,42.8333 227.5,43.1667 227.5,43.5C 227.167,43.1667 226.833,42.8333 226.5,42.5 Z"/></g>
<g><path style="opacity:0.012" fill="#545554" d="M 244.5,42.5 C 244.5,42.8333 244.5,43.1667 244.5,43.5C 243.83,43.0187 243.83,42.6853 244.5,42.5 Z"/></g>
<g><path style="opacity:0.008" fill="#6970b1" d="M 18.5,42.5 C 18.8333,42.5 19.1667,42.5 19.5,42.5C 19.8333,43.8333 20.1667,43.8333 20.5,42.5C 21.3382,42.8417 21.6716,43.5084 21.5,44.5C 20.8333,44.5 20.5,44.8333 20.5,45.5C 20.1667,45.5 19.8333,45.5 19.5,45.5C 18.8333,45.5 18.5,45.1667 18.5,44.5C 18.5,43.8333 18.5,43.1667 18.5,42.5 Z"/></g>
<g><path style="opacity:0.02" fill="#a6afd9" d="M 34.5,41.5 C 34.8333,41.5 35.1667,41.5 35.5,41.5C 35.573,43.0269 34.9063,44.0269 33.5,44.5C 33.5,43.8333 33.5,43.1667 33.5,42.5C 34.1667,42.5 34.5,42.1667 34.5,41.5 Z"/></g>
<g><path style="opacity:0.012" fill="#4b4b4b" d="M 53.5,44.5 C 58.9846,43.3483 64.6513,43.1816 70.5,44C 64.8431,44.4994 59.1764,44.6661 53.5,44.5 Z"/></g>
<g><path style="opacity:0.008" fill="#251a19" d="M 90.5,41.5 C 91.1667,41.5 91.8333,41.5 92.5,41.5C 91.9423,42.7899 90.9423,43.6232 89.5,44C 85.5,44.6667 81.5,44.6667 77.5,44C 76.944,43.6174 76.6107,43.1174 76.5,42.5C 77.1667,42.5 77.8333,42.5 78.5,42.5C 81.8333,43.8333 85.1667,43.8333 88.5,42.5C 89.4916,42.6716 90.1583,42.3382 90.5,41.5 Z"/></g>
<g><path style="opacity:0.012" fill="#404040" d="M 128.5,43.5 C 126.372,44.6291 124.039,44.7958 121.5,44C 123.81,43.5034 126.143,43.3367 128.5,43.5 Z"/></g>
<g><path style="opacity:0.012" fill="#404040" d="M 147.5,43.5 C 145.372,44.6291 143.039,44.7958 140.5,44C 142.81,43.5034 145.143,43.3367 147.5,43.5 Z"/></g>
<g><path style="opacity:0.012" fill="#514b4a" d="M 148.5,43.5 C 153.844,43.334 159.177,43.5006 164.5,44C 158.984,44.8174 153.65,44.6507 148.5,43.5 Z"/></g>
<g><path style="opacity:0.006" fill="#231e20" d="M 194.5,41.5 C 194.842,42.3382 195.508,42.6716 196.5,42.5C 199.833,43.8333 203.167,43.8333 206.5,42.5C 207.167,42.5 207.833,42.5 208.5,42.5C 208.389,43.1174 208.056,43.6174 207.5,44C 203.5,44.6667 199.5,44.6667 195.5,44C 192.598,43.0814 192.265,42.2481 194.5,41.5 Z"/></g>
<g><path style="opacity:0.012" fill="#3d3d3d" d="M 223.5,43.5 C 221.712,44.6225 219.712,44.7891 217.5,44C 219.473,43.5045 221.473,43.3379 223.5,43.5 Z"/></g>
<g><path style="opacity:0.012" fill="#3d3d3d" d="M 227.5,43.5 C 229.527,43.3379 231.527,43.5045 233.5,44C 231.288,44.7891 229.288,44.6225 227.5,43.5 Z"/></g>
<g><path style="opacity:0.012" fill="#464646" d="M 244.5,43.5 C 246.167,43.5 247.833,43.5 249.5,43.5C 249.5,43.8333 249.5,44.1667 249.5,44.5C 247.585,44.7845 245.919,44.4511 244.5,43.5 Z"/></g>
<g><path style="opacity:0.027" fill="#9192b5" d="M 32.5,44.5 C 32.8333,44.5 33.1667,44.5 33.5,44.5C 33.3147,45.1701 32.9813,45.1701 32.5,44.5 Z"/></g>
<g><path style="opacity:0.008" fill="#817f94" d="M 31.5,45.5 C 31.8333,45.5 32.1667,45.5 32.5,45.5C 32.6716,46.4916 32.3382,47.1583 31.5,47.5C 31.5,46.8333 31.5,46.1667 31.5,45.5 Z"/></g>
<g><path style="opacity:0.02" fill="#a398e2" d="M 30.5,47.5 C 30.8333,47.5 31.1667,47.5 31.5,47.5C 31.573,49.0269 30.9063,50.0269 29.5,50.5C 29.5,49.8333 29.5,49.1667 29.5,48.5C 30.1667,48.5 30.5,48.1667 30.5,47.5 Z"/></g>
<g><path style="opacity:0.024" fill="#8594c7" d="M 28.5,50.5 C 28.8333,50.5 29.1667,50.5 29.5,50.5C 29.573,52.0269 28.9063,53.0269 27.5,53.5C 27.5,52.8333 27.5,52.1667 27.5,51.5C 28.1667,51.5 28.5,51.1667 28.5,50.5 Z"/></g>
<g><path style="opacity:0.004" fill="#deddf4" d="M 12.5,52.5 C 13.1667,52.5 13.5,52.8333 13.5,53.5C 13.2533,55.9752 12.5866,55.9752 11.5,53.5C 11.6236,52.8933 11.9569,52.56 12.5,52.5 Z"/></g>
<g><path style="opacity:0.031" fill="#809fbe" d="M 26.5,53.5 C 26.8333,53.5 27.1667,53.5 27.5,53.5C 27.3147,54.1701 26.9813,54.1701 26.5,53.5 Z"/></g>
<g><path style="opacity:0.012" fill="#a19bc6" d="M 25.5,54.5 C 25.8333,54.5 26.1667,54.5 26.5,54.5C 26.1667,57.1667 25.8333,57.1667 25.5,54.5 Z"/></g>
<g><path style="opacity:0.008" fill="#e2f0f0" d="M 15.5,56.5 C 15.631,57.2389 15.4643,57.9056 15,58.5C 14.3083,57.5632 14.475,56.8966 15.5,56.5 Z"/></g>
<g><path style="opacity:0.008" fill="#9b94ea" d="M 17.5,59.5 C 17.5,60.1667 17.5,60.8333 17.5,61.5C 17.1667,61.5 16.8333,61.5 16.5,61.5C 16.3284,60.5084 16.6618,59.8417 17.5,59.5 Z"/></g>
<g><path style="opacity:0.016" fill="#858fb0" d="M 23.5,61.5 C 23.1667,61.5 22.8333,61.5 22.5,61.5C 22.5,60.8333 22.5,60.1667 22.5,59.5C 24.6773,58.4958 25.0107,59.1625 23.5,61.5 Z"/></g>
</svg>
