<svg width="309" height="302" viewBox="0 0 309 302" fill="none" xmlns="http://www.w3.org/2000/svg">
<g clip-path="url(#clip0_9_51)">
<path id="withdraw" d="M0 11.84C1.63 9.13 2.89 6.1 5 3.84C8 0.45 12.3 0 16.62 0H115.05C173.717 0 232.413 0.02 291.14 0.06C294.133 -0.0112501 297.111 0.49814 299.91 1.56C305.29 3.81 308.12 8.34 308.19 14.13C308.34 28.48 308.38 42.83 308.19 57.13C308.08 65.55 301.68 71.21 292.66 71.26C280.01 71.34 267.37 71.26 254.73 71.26H251.13V213C251.13 220 249.19 222 242.23 222H143.87C142.07 229 140.08 235.79 138.59 242.72C137.366 248.295 134.981 253.549 131.59 258.14C122.32 271.14 113.26 284.24 104.28 297.41C103.395 298.859 102.133 300.04 100.629 300.827C99.1247 301.615 97.4349 301.979 95.74 301.88C71.46 301.8 47.18 301.88 22.9 301.83C16.24 301.83 13.99 299.62 13.99 293.05C13.99 262.74 13.89 232.44 14.04 202.14C14.04 193.39 18.04 185.66 22.04 178.14C31.1 161 42.76 145.73 55.17 131C56.3097 129.573 56.971 127.824 57.06 126C57.19 108.94 57.14 91.89 57.14 74.83V71.49C55.86 71.43 54.8 71.34 53.74 71.34C42.2 71.34 30.65 71.05 19.13 71.42C10.07 71.71 3.24 69.08 0 60V11.84ZM147.17 209H238.25V42.62H70V209.44C73.35 209.44 76.54 209.34 79.72 209.44C81.5 209.51 82.15 208.77 82.57 207.16C83.44 203.87 84.5 200.63 85.57 197.38C91.21 179.61 97.28 161.99 106.57 145.73C111.91 136.42 119.13 129.19 129.57 125.62C139.34 122.29 147.34 125.14 152.16 134.21C153.709 137.234 154.949 140.407 155.86 143.68C158.33 151.98 156.35 160.24 154.93 168.39C152.61 182 149.82 195.38 147.17 209ZM26.73 288.7C27.73 288.79 28.32 288.89 28.92 288.89C50.08 288.89 71.25 288.89 92.41 288.8C93.1019 288.714 93.7691 288.487 94.3708 288.135C94.9725 287.782 95.4962 287.311 95.91 286.75C105.163 273.65 114.333 260.49 123.42 247.27C124.251 246.029 124.866 244.656 125.24 243.21C132.633 215.941 138.641 188.316 143.24 160.44C144.45 153.13 144.7 146.12 140.68 139.5C139.28 137.2 137.41 136.3 134.88 136.98C133.432 137.368 132.031 137.911 130.7 138.6C122.82 142.67 118.18 149.6 114.37 157.26C105.01 176.09 98.82 196.08 92.91 216.17C91.59 220.66 89.91 221.97 85.14 221.99C78.72 221.99 72.3 221.99 65.88 221.99C59.27 221.99 57.19 219.93 57.19 213.4V149.4C48.79 158.47 35.19 179.52 30.62 189.81C27.9626 195.756 26.6219 202.207 26.69 208.72C26.9 234.1 26.78 259.48 26.78 284.86L26.73 288.7ZM251.29 58.21C252.29 58.27 253.2 58.37 254.08 58.37C266.62 58.37 279.16 58.37 291.7 58.37C295.35 58.37 295.53 58.17 295.53 54.37C295.53 41.83 295.53 29.29 295.53 16.75C295.53 13.05 295.34 12.86 291.59 12.86C199.89 12.86 108.193 12.86 16.5 12.86C13.62 12.86 12.65 13.78 12.68 16.67C12.79 29.41 12.68 42.15 12.73 54.89C12.73 58.54 13.01 58.81 16.73 58.81H54.31C55.18 58.81 56.05 58.71 56.98 58.65V42.39H48.12C42.38 42.39 39.33 40.22 39.2 36.1C39.07 31.98 42.27 29.54 48.13 29.54C118.763 29.54 189.39 29.54 260.01 29.54C261.312 29.55 262.612 29.6503 263.9 29.84C265.003 29.9784 266.04 30.4395 266.881 31.1654C267.723 31.8913 268.331 32.8496 268.63 33.92C270.18 38.28 267.07 42.16 261.76 42.35C258.3 42.48 254.83 42.35 251.29 42.35V58.21Z" fill="#B8B8B8" stroke="#B8B8B8" stroke-width="12"/>
</g>
<defs>
<clipPath id="clip0_9_51">
<rect width="309" height="302" fill="#647090"/>
</clipPath>
</defs>
</svg>
