<svg width="20" height="20" xmlns="http://www.w3.org/2000/svg" xmlns:xlink="http://www.w3.org/1999/xlink">
    <defs>
        <path d="M12 2C6.48 2 2 6.48 2 12s4.48 10 10 10 10-4.48 10-10S17.52 2 12 2zM4 12c0-4.42 3.58-8 8-8 1.85 0 3.55.63 4.9 1.69L5.69 16.9A7.902 7.902 0 0 1 4 12zm8 8c-1.85 0-3.55-.63-4.9-1.69L18.31 7.1A7.902 7.902 0 0 1 20 12c0 4.42-3.58 8-8 8z"
              id="icon-blackList"/>
    </defs>
    <g transform="translate(-2 -2)" fill="none" fill-rule="evenodd">
        <mask id="maskBlackList" fill="#fff">
            <use xlink:href="#icon-blackList"/>
        </mask>
        <g class="mask" mask="url(#maskBlackList)" fill="#009EE6">
            <path d="M0 0h24v24H0z"/>
        </g>
    </g>
</svg>