<svg width="16" height="22" xmlns="http://www.w3.org/2000/svg" xmlns:xlink="http://www.w3.org/1999/xlink">
    <defs>
        <path d="M18 8.5h-1v-2c0-2.76-2.24-5-5-5s-5 2.24-5 5v2H6c-1.1 0-2 .9-2 2v10c0 1.1.9 2 2 2h12c1.1 0 2-.9 2-2v-10c0-1.1-.9-2-2-2zm-9-2c0-1.66 1.34-3 3-3s3 1.34 3 3v2H9v-2zm9 14H6v-10h12v10zm-6-3c1.1 0 2-.9 2-2s-.9-2-2-2-2 .9-2 2 .9 2 2 2z"
              id="locked"/>
    </defs>
    <g transform="translate(-4 -1)" fill="none" fill-rule="evenodd">
        <mask id="lockedMask" fill="#fff">
            <use xlink:href="#locked"/>
        </mask>
        <g class="mask" mask="url(#lockedMask)" fill="#009FE3" opacity=".786">
            <path d="M0 0h24v24H0z"/>
        </g>
    </g>
</svg>