<svg id="svg" version="1.1" xmlns="http://www.w3.org/2000/svg" xmlns:xlink="http://www.w3.org/1999/xlink" width="400" height="300" viewBox="0, 0, 400,400"><g id="svgg"><path id="path0" d="M151.500 139.756 C 142.755 155.014,135.600 167.737,135.600 168.029 C 135.600 168.829,144.121 183.226,144.517 183.094 C 144.706 183.031,152.025 170.564,160.783 155.390 L 176.705 127.800 196.152 127.696 C 206.849 127.639,215.596 127.729,215.592 127.896 C 215.587 128.063,213.087 132.520,210.036 137.800 L 204.488 147.400 190.344 147.509 L 176.200 147.617 163.096 170.566 L 149.991 193.516 154.288 200.958 C 156.651 205.051,158.678 208.396,158.792 208.392 C 158.907 208.388,164.837 198.220,171.971 185.797 L 184.941 163.210 199.305 163.105 L 213.669 163.000 219.656 152.600 C 222.948 146.880,228.353 137.484,231.666 131.720 L 237.691 121.240 235.094 116.720 L 232.497 112.200 199.949 112.107 L 167.400 112.014 151.500 139.756 M298.130 266.153 C 294.069 267.478,292.226 269.621,292.241 273.000 C 292.259 277.191,294.569 278.982,301.804 280.417 C 308.133 281.672,310.400 282.999,310.400 285.451 C 310.400 291.437,299.596 292.801,294.865 287.413 C 293.527 285.889,293.539 285.889,291.254 287.458 C 290.848 287.737,292.990 290.417,294.300 291.270 C 301.369 295.872,312.434 293.429,313.471 287.039 C 314.292 281.980,311.699 279.649,303.200 277.806 C 296.486 276.350,295.200 275.535,295.200 272.737 C 295.200 268.280,305.213 266.780,309.235 270.634 C 310.322 271.675,312.800 271.517,312.800 270.405 C 312.800 267.279,303.203 264.497,298.130 266.153 M194.400 279.600 L 194.400 293.200 196.000 293.200 L 197.600 293.200 197.600 288.850 L 197.600 284.499 203.500 284.321 C 213.101 284.032,217.077 280.411,215.641 273.262 C 214.458 267.374,211.825 266.000,201.721 266.000 L 194.400 266.000 194.400 279.600 M220.800 279.600 L 220.800 293.200 229.800 293.200 L 238.800 293.200 238.800 291.800 L 238.800 290.400 231.200 290.400 L 223.600 290.400 223.600 278.200 L 223.600 266.000 222.200 266.000 L 220.800 266.000 220.800 279.600 M251.469 267.100 C 250.368 269.297,240.000 292.629,240.000 292.910 C 240.000 293.070,240.687 293.200,241.528 293.200 C 243.045 293.200,243.064 293.180,244.374 290.200 L 245.692 287.200 253.434 287.200 L 261.176 287.200 262.562 290.200 L 263.948 293.200 265.554 293.200 L 267.161 293.200 265.242 288.900 C 264.187 286.535,261.451 280.415,259.162 275.300 L 255.000 266.001 253.510 266.000 C 252.285 266.000,251.923 266.195,251.469 267.100 M266.000 266.178 C 266.000 266.276,268.340 269.969,271.200 274.385 L 276.400 282.414 276.400 287.807 L 276.400 293.200 277.800 293.200 L 279.200 293.200 279.201 287.900 L 279.203 282.600 284.582 274.400 L 289.961 266.200 288.538 266.073 C 286.410 265.884,286.458 265.835,282.012 272.761 L 277.877 279.205 277.012 277.902 C 276.537 277.186,274.641 274.215,272.798 271.300 L 269.449 266.000 267.724 266.000 C 266.776 266.000,266.000 266.080,266.000 266.178 M209.606 269.542 C 213.689 271.714,213.818 277.609,209.847 280.575 C 208.881 281.297,208.045 281.417,203.171 281.538 L 197.600 281.677 197.600 275.238 L 197.600 268.800 202.906 268.800 C 207.305 268.800,208.451 268.927,209.606 269.542 M256.749 277.033 L 259.898 284.200 253.693 284.310 C 250.280 284.371,247.402 284.336,247.298 284.231 C 247.193 284.127,248.520 280.804,250.246 276.846 C 251.972 272.889,253.433 269.699,253.492 269.759 C 253.551 269.818,255.017 273.091,256.749 277.033 " stroke="none" fill="#1484fc" fill-rule="evenodd"></path><path id="path1" d="M241.700 131.262 C 241.595 131.663,241.350 131.892,241.155 131.772 C 240.960 131.651,240.800 131.813,240.800 132.131 C 240.800 132.979,239.765 134.831,239.461 134.527 C 239.317 134.384,239.200 134.600,239.200 135.008 C 239.200 135.415,238.795 136.194,238.300 136.739 C 237.805 137.283,237.670 137.575,238.000 137.388 C 238.654 137.016,238.268 137.636,236.749 139.400 C 236.370 139.840,236.001 140.466,235.930 140.790 C 235.858 141.115,235.573 141.625,235.296 141.923 C 235.019 142.221,234.912 142.658,235.058 142.894 C 235.215 143.149,235.136 143.207,234.862 143.038 C 234.608 142.881,234.400 142.943,234.400 143.176 C 234.400 143.959,234.282 144.198,233.679 144.639 C 233.348 144.881,233.206 145.286,233.362 145.539 C 233.519 145.793,233.457 146.000,233.224 146.000 C 232.991 146.000,232.800 146.276,232.800 146.613 C 232.800 146.949,232.520 147.333,232.177 147.464 C 231.834 147.596,231.649 147.950,231.764 148.252 C 231.880 148.553,231.820 148.800,231.631 148.800 C 231.442 148.800,231.172 149.257,231.032 149.816 C 230.891 150.375,230.602 150.725,230.388 150.593 C 230.175 150.461,230.000 150.613,230.000 150.931 C 230.000 151.779,228.965 153.631,228.661 153.327 C 228.517 153.184,228.400 153.400,228.400 153.808 C 228.400 154.215,227.995 154.994,227.500 155.539 C 227.005 156.083,226.870 156.375,227.200 156.188 C 227.866 155.809,227.501 156.383,225.819 158.365 C 225.302 158.973,225.221 159.221,225.600 159.035 C 225.930 158.873,225.851 159.024,225.424 159.370 C 224.996 159.717,224.784 160.000,224.952 160.000 C 225.120 160.000,224.973 160.285,224.625 160.632 C 224.277 160.980,224.112 161.458,224.258 161.694 C 224.415 161.949,224.336 162.007,224.062 161.838 C 223.808 161.681,223.600 161.743,223.600 161.976 C 223.600 162.703,223.467 162.976,222.722 163.775 C 222.325 164.202,222.000 164.883,222.000 165.288 C 222.000 165.693,221.720 166.133,221.377 166.264 C 221.034 166.396,220.849 166.750,220.964 167.052 C 221.080 167.353,221.001 167.600,220.787 167.600 C 220.574 167.600,220.400 167.876,220.400 168.213 C 220.400 168.549,220.130 168.929,219.800 169.055 C 219.470 169.182,219.200 169.500,219.200 169.763 C 219.200 170.026,218.975 170.723,218.700 171.313 L 218.200 172.385 204.212 172.493 L 190.223 172.600 189.776 173.498 C 189.530 173.991,189.210 174.276,189.064 174.131 C 188.919 173.986,188.800 174.200,188.800 174.608 C 188.800 175.015,188.395 175.794,187.900 176.339 C 187.405 176.883,187.270 177.175,187.600 176.988 C 188.266 176.609,187.901 177.183,186.219 179.165 C 185.742 179.727,185.650 179.987,186.000 179.788 C 186.654 179.416,186.268 180.036,184.749 181.800 C 184.370 182.240,184.001 182.866,183.930 183.190 C 183.858 183.515,183.573 184.025,183.296 184.323 C 183.019 184.621,182.912 185.058,183.058 185.294 C 183.215 185.549,183.136 185.607,182.862 185.438 C 182.458 185.189,182.357 185.362,182.414 186.214 C 182.422 186.332,182.150 186.707,181.811 187.047 C 181.471 187.386,181.312 187.858,181.458 188.094 C 181.615 188.349,181.536 188.407,181.262 188.238 C 181.008 188.081,180.778 188.143,180.750 188.376 C 180.722 188.609,180.678 188.987,180.650 189.215 C 180.623 189.443,180.352 189.782,180.049 189.970 C 179.746 190.157,179.621 190.511,179.772 190.755 C 179.924 191.000,179.857 191.200,179.624 191.200 C 179.391 191.200,179.200 191.476,179.200 191.813 C 179.200 192.149,178.920 192.533,178.577 192.664 C 178.234 192.796,178.049 193.150,178.164 193.452 C 178.280 193.753,178.201 194.000,177.987 194.000 C 177.774 194.000,177.600 194.276,177.600 194.613 C 177.600 194.949,177.330 195.329,177.000 195.455 C 176.670 195.582,176.400 195.916,176.400 196.197 C 176.400 196.994,175.352 198.818,175.061 198.527 C 174.917 198.384,174.800 198.546,174.800 198.888 C 174.800 199.768,173.773 201.639,173.461 201.327 C 173.317 201.184,173.200 201.400,173.200 201.808 C 173.200 202.215,172.795 202.994,172.300 203.539 C 171.805 204.083,171.670 204.375,172.000 204.188 C 172.666 203.809,172.301 204.383,170.619 206.365 C 170.142 206.927,170.050 207.187,170.400 206.988 C 171.066 206.609,170.701 207.183,169.019 209.165 C 168.502 209.773,168.421 210.021,168.800 209.835 C 169.130 209.673,169.051 209.824,168.624 210.170 C 168.196 210.517,167.984 210.800,168.152 210.800 C 168.320 210.800,168.173 211.085,167.825 211.432 C 167.477 211.780,167.312 212.258,167.458 212.494 C 167.615 212.749,167.536 212.807,167.262 212.638 C 167.008 212.481,166.800 212.543,166.800 212.776 C 166.800 213.496,166.676 213.781,166.125 214.332 C 165.832 214.625,165.712 215.058,165.858 215.294 C 166.015 215.549,165.936 215.607,165.662 215.438 C 165.257 215.188,165.021 215.673,165.300 216.183 C 165.355 216.283,165.040 216.643,164.600 216.983 C 163.847 217.564,163.840 217.631,164.494 218.140 C 164.875 218.436,165.057 218.810,164.897 218.970 C 164.737 219.129,164.920 219.435,165.303 219.650 C 165.686 219.864,166.000 220.301,166.000 220.620 C 166.000 220.939,166.191 221.200,166.424 221.200 C 166.657 221.200,166.744 221.368,166.617 221.572 C 166.491 221.777,166.816 222.407,167.339 222.972 L 168.292 224.000 200.546 224.000 C 221.782 224.000,232.800 223.863,232.800 223.600 C 232.800 222.843,232.922 222.599,233.521 222.161 C 233.852 221.919,233.994 221.514,233.838 221.261 C 233.681 221.007,233.743 220.800,233.976 220.800 C 234.209 220.800,234.400 220.524,234.400 220.187 C 234.400 219.851,234.680 219.467,235.023 219.336 C 235.366 219.204,235.551 218.850,235.436 218.548 C 235.320 218.247,235.399 218.000,235.613 218.000 C 235.826 218.000,236.000 217.724,236.000 217.387 C 236.000 217.051,236.270 216.671,236.600 216.545 C 236.930 216.418,237.200 216.084,237.200 215.803 C 237.200 215.006,238.248 213.182,238.539 213.473 C 238.683 213.616,238.800 213.454,238.800 213.112 C 238.800 212.156,239.838 210.376,240.204 210.706 C 240.382 210.868,240.408 210.790,240.261 210.534 C 240.115 210.277,240.491 209.476,241.097 208.752 C 241.704 208.028,241.930 207.597,241.600 207.795 C 240.945 208.186,241.345 207.548,242.851 205.800 C 243.230 205.360,243.599 204.734,243.670 204.410 C 243.742 204.085,244.027 203.575,244.304 203.277 C 244.581 202.979,244.688 202.542,244.542 202.306 C 244.385 202.051,244.464 201.993,244.738 202.162 C 244.992 202.319,245.200 202.257,245.200 202.024 C 245.200 201.304,245.324 201.019,245.875 200.468 C 246.168 200.175,246.305 199.770,246.180 199.568 C 246.055 199.365,246.143 199.200,246.376 199.200 C 246.609 199.200,246.800 198.924,246.800 198.587 C 246.800 198.251,247.080 197.867,247.423 197.736 C 247.766 197.604,247.951 197.250,247.836 196.948 C 247.720 196.647,247.799 196.400,248.013 196.400 C 248.226 196.400,248.400 196.124,248.400 195.787 C 248.400 195.451,248.670 195.071,249.000 194.945 C 249.330 194.818,249.600 194.484,249.600 194.203 C 249.600 193.406,250.648 191.582,250.939 191.873 C 251.083 192.016,251.200 191.854,251.200 191.512 C 251.200 190.556,252.238 188.776,252.604 189.106 C 252.782 189.268,252.808 189.190,252.661 188.934 C 252.515 188.677,252.891 187.876,253.497 187.152 C 254.104 186.428,254.330 185.997,254.000 186.195 C 253.345 186.586,253.745 185.948,255.251 184.200 C 255.630 183.760,255.999 183.134,256.070 182.810 C 256.142 182.485,256.427 181.975,256.704 181.677 C 256.981 181.379,257.088 180.942,256.942 180.706 C 256.785 180.451,256.864 180.393,257.138 180.562 C 257.529 180.803,257.809 180.269,257.500 179.871 C 257.445 179.801,257.717 179.426,258.104 179.039 C 258.491 178.652,258.705 178.170,258.580 177.968 C 258.455 177.765,258.543 177.600,258.776 177.600 C 259.009 177.600,259.200 177.324,259.200 176.987 C 259.200 176.651,259.480 176.267,259.823 176.136 C 260.166 176.004,260.351 175.650,260.236 175.348 C 260.120 175.047,260.199 174.800,260.413 174.800 C 260.626 174.800,260.800 174.524,260.800 174.187 C 260.800 173.851,261.070 173.471,261.400 173.345 C 261.730 173.218,262.000 172.884,262.000 172.603 C 262.000 171.806,263.048 169.982,263.339 170.273 C 263.483 170.416,263.600 170.154,263.600 169.690 C 263.600 169.227,263.769 168.743,263.976 168.615 C 264.475 168.307,263.710 166.044,262.745 164.974 C 262.335 164.520,262.000 163.864,262.000 163.517 C 262.000 163.170,261.704 162.772,261.343 162.633 C 260.981 162.495,260.798 162.268,260.937 162.130 C 261.075 161.992,260.875 161.623,260.494 161.310 C 260.065 160.958,260.029 160.853,260.400 161.035 C 260.730 161.197,260.560 160.846,260.022 160.256 C 259.484 159.666,258.999 158.875,258.944 158.499 C 258.889 158.122,258.654 157.751,258.422 157.674 C 258.190 157.597,258.000 157.178,258.000 156.743 C 258.000 156.308,257.818 156.065,257.595 156.203 C 257.371 156.342,257.083 155.916,256.949 155.247 C 256.692 153.961,255.200 152.226,255.200 153.212 C 255.200 153.507,254.795 154.194,254.300 154.739 C 253.805 155.283,253.670 155.575,254.000 155.388 C 254.666 155.009,254.301 155.583,252.619 157.565 C 252.142 158.127,252.050 158.387,252.400 158.188 C 253.036 157.826,252.533 158.620,251.296 159.931 C 251.019 160.224,250.912 160.658,251.058 160.894 C 251.215 161.149,251.136 161.207,250.862 161.038 C 250.608 160.881,250.400 160.943,250.400 161.176 C 250.400 161.896,250.276 162.181,249.725 162.732 C 249.432 163.025,249.312 163.458,249.458 163.694 C 249.615 163.949,249.536 164.007,249.262 163.838 C 249.008 163.681,248.800 163.743,248.800 163.976 C 248.800 164.696,248.676 164.981,248.125 165.532 C 247.832 165.825,247.695 166.230,247.820 166.432 C 247.945 166.635,247.857 166.800,247.624 166.800 C 247.391 166.800,247.200 167.076,247.200 167.413 C 247.200 167.749,246.920 168.133,246.577 168.264 C 246.234 168.396,246.049 168.750,246.164 169.052 C 246.280 169.353,246.201 169.600,245.987 169.600 C 245.774 169.600,245.600 169.876,245.600 170.213 C 245.600 170.549,245.320 170.933,244.977 171.064 C 244.634 171.196,244.444 171.537,244.553 171.822 C 244.663 172.108,244.493 172.557,244.176 172.820 C 243.859 173.083,243.600 173.557,243.600 173.873 C 243.600 174.189,243.420 174.336,243.200 174.200 C 242.980 174.064,242.800 174.213,242.800 174.531 C 242.800 175.379,241.765 177.231,241.461 176.927 C 241.317 176.784,241.200 177.000,241.200 177.408 C 241.200 177.815,240.795 178.594,240.300 179.139 C 239.805 179.683,239.670 179.975,240.000 179.788 C 240.666 179.409,240.301 179.983,238.619 181.965 C 238.142 182.527,238.050 182.787,238.400 182.588 C 239.054 182.216,238.668 182.836,237.149 184.600 C 236.770 185.040,236.401 185.666,236.330 185.990 C 236.258 186.315,235.973 186.825,235.696 187.123 C 235.419 187.421,235.312 187.858,235.458 188.094 C 235.615 188.349,235.536 188.407,235.262 188.238 C 235.008 188.081,234.800 188.143,234.800 188.376 C 234.800 189.103,234.667 189.376,233.922 190.175 C 233.525 190.602,233.200 191.283,233.200 191.688 C 233.200 192.093,232.920 192.533,232.577 192.664 C 232.234 192.796,232.049 193.150,232.164 193.452 C 232.280 193.753,232.201 194.000,231.987 194.000 C 231.774 194.000,231.600 194.276,231.600 194.613 C 231.600 194.949,231.320 195.333,230.977 195.464 C 230.634 195.596,230.449 195.950,230.564 196.252 C 230.680 196.553,230.604 196.800,230.395 196.800 C 230.186 196.800,229.903 197.249,229.765 197.797 C 229.627 198.346,229.354 198.695,229.157 198.574 C 228.961 198.452,228.800 198.613,228.800 198.931 C 228.800 199.779,227.765 201.631,227.461 201.327 C 227.317 201.184,227.200 201.346,227.200 201.688 C 227.200 202.644,226.162 204.424,225.796 204.094 C 225.618 203.932,225.592 204.010,225.739 204.266 C 225.885 204.523,225.509 205.324,224.903 206.048 C 224.296 206.772,224.056 207.208,224.369 207.016 C 224.820 206.740,224.810 206.851,224.320 207.550 L 223.702 208.432 205.577 208.408 C 195.608 208.395,187.365 208.298,187.259 208.192 C 187.153 208.086,187.607 207.325,188.267 206.500 C 188.928 205.675,189.593 204.498,189.746 203.884 C 189.899 203.270,190.198 202.875,190.412 203.007 C 190.625 203.139,190.800 202.948,190.800 202.581 C 190.800 202.215,191.251 201.379,191.803 200.724 C 192.354 200.068,192.703 199.366,192.577 199.163 C 192.452 198.960,192.631 198.686,192.975 198.554 C 193.319 198.422,193.600 198.030,193.600 197.683 C 193.600 197.336,194.005 196.606,194.500 196.061 C 194.995 195.517,195.130 195.203,194.800 195.365 C 194.470 195.527,194.549 195.376,194.976 195.030 C 195.404 194.683,195.594 194.400,195.400 194.400 C 195.206 194.400,195.379 194.157,195.785 193.861 C 196.190 193.564,196.394 193.114,196.238 192.861 C 196.081 192.607,196.126 192.400,196.337 192.400 C 196.549 192.400,196.898 191.905,197.114 191.300 C 197.329 190.695,197.883 189.772,198.345 189.248 C 198.806 188.725,199.090 188.145,198.975 187.960 C 198.556 187.282,200.857 187.173,213.265 187.285 L 225.930 187.400 226.432 186.118 C 226.709 185.413,227.085 184.929,227.268 185.042 C 227.450 185.155,227.600 184.987,227.600 184.669 C 227.600 183.821,228.635 181.969,228.939 182.273 C 229.083 182.416,229.200 182.254,229.200 181.912 C 229.200 181.032,230.227 179.161,230.539 179.473 C 230.683 179.616,230.800 179.400,230.800 178.992 C 230.800 178.585,231.205 177.806,231.700 177.261 C 232.195 176.717,232.330 176.425,232.000 176.612 C 231.334 176.991,231.699 176.417,233.381 174.435 C 233.858 173.873,233.950 173.613,233.600 173.812 C 232.934 174.191,233.299 173.617,234.981 171.635 C 235.458 171.073,235.550 170.813,235.200 171.012 C 234.534 171.391,234.899 170.817,236.581 168.835 C 237.058 168.273,237.150 168.013,236.800 168.212 C 236.134 168.591,236.499 168.017,238.181 166.035 C 238.658 165.473,238.750 165.213,238.400 165.412 C 237.734 165.791,238.099 165.217,239.781 163.235 C 240.258 162.673,240.350 162.413,240.000 162.612 C 239.334 162.991,239.699 162.417,241.381 160.435 C 241.858 159.873,241.950 159.613,241.600 159.812 C 240.946 160.184,241.332 159.564,242.851 157.800 C 243.230 157.360,243.599 156.734,243.670 156.410 C 243.742 156.085,244.027 155.575,244.304 155.277 C 244.581 154.979,244.688 154.542,244.542 154.306 C 244.385 154.051,244.464 153.993,244.738 154.162 C 244.992 154.319,245.200 154.257,245.200 154.024 C 245.200 153.304,245.324 153.019,245.875 152.468 C 246.168 152.175,246.288 151.742,246.142 151.506 C 245.985 151.251,246.064 151.193,246.338 151.362 C 246.742 151.611,246.843 151.438,246.786 150.586 C 246.778 150.468,247.050 150.093,247.389 149.753 C 247.729 149.414,247.888 148.942,247.742 148.706 C 247.585 148.451,247.664 148.393,247.938 148.562 C 248.342 148.811,248.443 148.638,248.386 147.786 C 248.378 147.668,248.650 147.293,248.989 146.953 C 249.329 146.614,249.488 146.142,249.342 145.906 C 249.185 145.651,249.264 145.593,249.538 145.762 C 249.951 146.017,250.180 145.539,250.047 144.700 C 250.021 144.535,250.202 144.400,250.449 144.400 C 250.747 144.400,250.719 144.184,250.367 143.760 C 250.074 143.407,249.799 142.871,249.754 142.568 C 249.710 142.264,249.365 141.708,248.989 141.332 C 248.613 140.956,248.129 140.143,247.914 139.524 C 247.698 138.906,247.349 138.400,247.137 138.400 C 246.926 138.400,246.855 138.235,246.980 138.032 C 247.105 137.830,246.936 137.393,246.604 137.061 C 246.272 136.729,246.000 136.164,246.000 135.805 C 246.000 135.446,245.818 135.265,245.595 135.403 C 245.371 135.542,245.083 135.116,244.949 134.447 C 244.817 133.784,244.369 132.934,243.954 132.558 C 243.539 132.183,243.200 131.574,243.200 131.205 C 243.200 130.298,241.939 130.347,241.700 131.262 M87.800 279.600 L 87.800 293.000 90.500 292.867 L 93.200 292.734 93.200 288.967 L 93.200 285.200 97.100 285.130 C 103.494 285.016,103.756 284.986,104.879 284.246 C 105.472 283.856,106.042 283.595,106.145 283.668 C 106.511 283.926,108.818 281.953,108.588 281.580 C 108.458 281.371,108.554 281.200,108.800 281.200 C 109.046 281.200,109.136 281.020,109.000 280.800 C 108.864 280.580,108.943 280.400,109.176 280.400 C 109.409 280.400,109.600 280.040,109.600 279.600 C 109.600 279.160,109.750 278.800,109.933 278.800 C 110.613 278.800,110.678 272.819,110.003 272.402 C 109.744 272.242,109.545 271.951,109.561 271.755 C 109.620 271.045,109.136 270.000,108.749 270.000 C 108.531 270.000,108.451 269.840,108.572 269.645 C 108.693 269.450,108.489 269.045,108.119 268.745 C 107.541 268.277,107.492 268.284,107.770 268.800 C 107.948 269.130,107.623 268.877,107.047 268.238 C 106.471 267.599,106.000 267.200,106.000 267.352 C 106.000 267.504,105.595 267.405,105.100 267.133 C 103.780 266.407,103.669 266.398,95.400 266.295 L 87.800 266.200 87.800 279.600 M172.900 266.306 L 166.000 266.419 166.000 279.609 L 166.000 292.800 168.386 292.800 L 170.773 292.800 170.886 288.500 L 171.000 284.200 173.921 284.145 C 175.528 284.115,176.746 284.187,176.628 284.305 C 176.510 284.424,176.869 284.943,177.427 285.460 C 177.985 285.977,178.320 286.400,178.172 286.400 C 178.023 286.400,178.124 286.668,178.396 286.996 C 178.668 287.323,179.095 287.474,179.345 287.331 C 179.595 287.189,179.668 287.218,179.507 287.396 C 179.345 287.574,179.649 288.124,180.182 288.618 C 180.715 289.112,181.067 289.599,180.966 289.701 C 180.864 289.803,181.090 290.137,181.467 290.443 C 182.062 290.926,182.108 290.920,181.813 290.400 C 181.219 289.355,182.090 290.337,182.963 291.696 L 183.800 293.000 186.775 292.800 C 189.527 292.615,189.700 292.551,189.094 291.948 C 188.733 291.589,188.521 291.213,188.621 291.112 C 188.722 291.011,188.413 290.585,187.934 290.164 C 187.455 289.744,187.194 289.625,187.355 289.900 C 187.516 290.175,187.562 290.400,187.458 290.400 C 187.354 290.400,186.721 289.511,186.053 288.424 C 185.384 287.337,184.514 286.273,184.118 286.059 C 183.723 285.846,183.059 285.088,182.642 284.376 C 182.226 283.664,182.091 283.209,182.342 283.364 C 182.594 283.520,182.800 283.457,182.800 283.224 C 182.800 282.991,182.935 282.838,183.100 282.885 C 183.265 282.932,183.850 282.721,184.400 282.417 C 184.950 282.113,185.490 281.850,185.600 281.832 C 185.710 281.815,185.755 281.665,185.700 281.500 C 185.645 281.335,185.900 281.200,186.267 281.200 C 186.633 281.200,186.821 281.088,186.684 280.950 C 186.546 280.813,186.795 280.408,187.235 280.050 C 188.264 279.215,188.843 274.994,188.257 272.600 C 188.149 272.160,188.047 271.615,188.031 271.389 C 187.986 270.790,185.722 268.400,185.199 268.400 C 184.954 268.400,184.864 268.220,185.000 268.000 C 185.136 267.780,184.913 267.600,184.504 267.600 C 184.095 267.600,183.547 267.387,183.286 267.126 C 183.026 266.866,182.495 266.626,182.106 266.593 C 181.718 266.560,181.040 266.457,180.600 266.363 C 180.160 266.270,176.695 266.244,172.900 266.306 M114.800 279.600 L 114.800 292.800 125.000 292.800 L 135.200 292.800 135.200 290.600 L 135.200 288.400 127.400 288.400 L 119.600 288.400 119.600 285.200 L 119.600 282.000 126.964 282.000 L 134.329 282.000 134.464 279.700 L 134.600 277.400 127.100 277.517 L 119.600 277.633 119.600 274.425 L 119.600 271.217 127.300 271.109 L 135.000 271.000 135.120 268.700 L 135.240 266.400 125.020 266.400 L 114.800 266.400 114.800 279.600 M140.400 279.600 L 140.400 292.800 150.600 292.800 L 160.800 292.800 160.800 290.600 L 160.800 288.400 153.000 288.400 L 145.200 288.400 145.200 285.200 L 145.200 282.000 152.564 282.000 L 159.929 282.000 160.064 279.700 L 160.200 277.400 152.700 277.517 L 145.200 277.633 145.200 274.425 L 145.200 271.217 152.900 271.109 L 160.600 271.000 160.720 268.700 L 160.840 266.400 150.620 266.400 L 140.400 266.400 140.400 279.600 M102.250 271.306 C 103.158 271.578,103.968 271.980,104.050 272.200 C 104.133 272.420,104.335 272.555,104.500 272.500 C 104.665 272.445,104.800 272.749,104.800 273.176 C 104.800 273.603,104.948 274.044,105.129 274.156 C 106.556 275.038,104.386 280.000,102.573 280.000 C 102.038 280.000,101.600 280.180,101.600 280.400 C 101.600 280.641,99.933 280.800,97.400 280.800 L 93.200 280.800 93.200 275.800 L 93.200 270.800 96.900 270.806 C 98.935 270.809,101.343 271.034,102.250 271.306 M180.720 271.280 C 180.984 271.544,181.200 271.600,181.200 271.404 C 181.200 271.207,181.483 271.396,181.830 271.824 C 182.176 272.251,182.330 272.330,182.171 272.000 C 181.973 271.587,182.014 271.525,182.304 271.800 C 182.536 272.020,182.908 272.875,183.131 273.700 C 183.555 275.270,183.124 277.822,182.304 278.600 C 182.014 278.875,181.973 278.813,182.171 278.400 C 182.330 278.070,182.168 278.160,181.813 278.600 C 181.228 279.324,180.684 279.400,176.083 279.400 L 171.000 279.400 170.884 275.630 C 170.820 273.557,170.860 271.622,170.972 271.330 C 171.245 270.616,180.011 270.571,180.720 271.280 " stroke="none" fill="#044cbc" fill-rule="evenodd"></path><path id="path2" d="M101.455 308.100 C 101.622 308.375,102.262 309.400,102.879 310.378 C 103.495 311.356,104.000 312.661,104.000 313.278 C 104.000 313.895,104.180 314.400,104.400 314.400 C 104.620 314.400,104.801 313.815,104.802 313.100 C 104.803 312.326,105.288 311.071,106.000 310.000 C 107.336 307.990,107.444 307.600,106.663 307.600 C 106.368 307.600,105.787 308.230,105.372 309.000 C 104.957 309.770,104.494 310.400,104.342 310.400 C 104.190 310.400,103.676 309.770,103.200 309.000 C 102.724 308.230,102.069 307.600,101.744 307.600 C 101.376 307.600,101.267 307.789,101.455 308.100 M113.219 308.304 C 111.925 309.352,111.692 311.906,112.767 313.269 C 115.093 316.220,119.797 314.029,118.993 310.368 C 118.434 307.824,115.228 306.678,113.219 308.304 M124.800 310.218 C 124.800 312.465,124.939 312.976,125.782 313.818 C 128.057 316.094,130.400 314.267,130.400 310.218 C 130.400 308.739,130.226 307.600,130.000 307.600 C 129.780 307.600,129.600 308.602,129.600 309.826 C 129.600 312.675,129.110 313.600,127.600 313.600 C 126.090 313.600,125.600 312.675,125.600 309.826 C 125.600 308.602,125.420 307.600,125.200 307.600 C 124.974 307.600,124.800 308.739,124.800 310.218 M136.400 311.000 C 136.400 313.756,136.514 314.400,137.000 314.400 C 137.400 314.400,137.600 314.000,137.600 313.200 C 137.600 312.476,137.808 312.000,138.125 312.000 C 138.414 312.000,139.168 312.540,139.800 313.200 C 140.432 313.860,141.310 314.400,141.750 314.400 C 142.485 314.400,142.464 314.310,141.481 313.284 C 140.421 312.178,140.418 312.162,141.206 311.488 C 143.197 309.783,141.660 307.600,138.469 307.600 L 136.400 307.600 136.400 311.000 M155.200 311.000 C 155.200 313.000,155.365 314.400,155.600 314.400 C 155.820 314.400,156.000 313.860,156.000 313.200 C 156.000 312.308,156.186 312.000,156.725 312.000 C 157.124 312.000,157.968 312.540,158.600 313.200 C 159.232 313.860,160.017 314.400,160.345 314.400 C 160.780 314.400,160.688 314.133,160.004 313.404 C 159.126 312.470,159.109 312.363,159.734 311.673 C 161.577 309.637,160.222 307.600,157.026 307.600 L 155.200 307.600 155.200 311.000 M166.400 311.000 L 166.400 314.400 169.000 314.400 C 170.467 314.400,171.600 314.226,171.600 314.000 C 171.600 313.780,170.700 313.600,169.600 313.600 C 167.733 313.600,167.600 313.533,167.600 312.600 C 167.600 311.681,167.747 311.600,169.400 311.600 C 170.390 311.600,171.200 311.420,171.200 311.200 C 171.200 310.980,170.390 310.800,169.400 310.800 C 167.667 310.800,167.600 310.756,167.600 309.600 C 167.600 308.427,167.644 308.400,169.600 308.400 C 170.700 308.400,171.600 308.220,171.600 308.000 C 171.600 307.774,170.467 307.600,169.000 307.600 L 166.400 307.600 166.400 311.000 M177.030 308.500 C 179.030 314.832,179.875 315.558,181.033 311.940 L 181.829 309.452 182.583 311.942 C 183.526 315.059,184.176 315.026,185.386 311.800 C 186.870 307.839,186.920 307.600,186.259 307.600 C 185.895 307.600,185.400 308.414,184.983 309.700 C 184.014 312.687,183.823 312.718,183.004 310.013 C 182.602 308.686,182.060 307.600,181.800 307.600 C 181.540 307.600,180.998 308.686,180.596 310.013 C 179.777 312.718,179.586 312.687,178.617 309.700 C 178.200 308.414,177.705 307.600,177.341 307.600 C 176.906 307.600,176.823 307.843,177.030 308.500 M192.856 310.865 C 191.480 313.852,191.336 315.596,192.609 313.855 C 193.248 312.981,196.614 312.939,196.945 313.800 C 197.071 314.130,197.439 314.400,197.761 314.400 C 198.443 314.400,195.652 307.951,194.855 307.685 C 194.597 307.599,193.713 309.005,192.856 310.865 M203.600 311.000 C 203.600 313.756,203.714 314.400,204.200 314.400 C 204.600 314.400,204.800 314.000,204.800 313.200 C 204.800 312.476,205.008 312.000,205.325 312.000 C 205.614 312.000,206.368 312.540,207.000 313.200 C 207.632 313.860,208.510 314.400,208.950 314.400 C 209.685 314.400,209.664 314.310,208.681 313.284 C 207.621 312.178,207.618 312.162,208.406 311.488 C 210.397 309.783,208.860 307.600,205.669 307.600 L 203.600 307.600 203.600 311.000 M215.200 311.000 L 215.200 314.400 217.156 314.400 C 219.816 314.400,220.884 313.508,220.944 311.237 C 221.004 308.924,219.560 307.600,216.978 307.600 L 215.200 307.600 215.200 311.000 M227.500 308.032 C 225.763 309.044,226.794 310.853,229.525 311.583 C 230.801 311.924,231.217 312.221,231.122 312.722 C 230.948 313.638,228.096 313.916,227.764 313.050 C 227.637 312.720,227.290 312.544,226.992 312.658 C 225.060 313.400,228.707 315.070,230.724 314.367 C 233.214 313.498,232.404 311.254,229.300 310.424 C 227.469 309.934,227.246 309.592,228.226 308.778 C 228.736 308.355,229.115 308.353,230.256 308.766 C 231.875 309.351,232.561 309.000,231.423 308.167 C 230.525 307.511,228.514 307.441,227.500 308.032 M245.200 311.000 L 245.200 314.400 247.400 314.400 C 248.610 314.400,249.600 314.220,249.600 314.000 C 249.600 313.780,248.790 313.600,247.800 313.600 L 246.000 313.600 246.000 310.600 C 246.000 308.867,245.831 307.600,245.600 307.600 C 245.365 307.600,245.200 309.000,245.200 311.000 M255.946 310.888 C 254.730 313.694,254.528 315.901,255.675 313.852 C 256.176 312.957,260.000 312.911,260.000 313.800 C 260.000 314.130,260.270 314.400,260.600 314.400 C 261.386 314.400,261.411 314.511,259.828 310.916 C 258.038 306.854,257.696 306.851,255.946 310.888 M265.600 307.828 C 265.600 307.953,266.140 308.841,266.800 309.800 C 267.584 310.939,268.000 312.040,268.000 312.972 C 268.000 313.975,268.179 314.400,268.600 314.400 C 269.021 314.400,269.200 313.975,269.200 312.972 C 269.200 312.040,269.616 310.939,270.400 309.800 C 271.741 307.851,271.820 307.600,271.094 307.600 C 270.816 307.600,270.144 308.320,269.599 309.201 L 268.610 310.802 267.664 309.201 C 266.874 307.862,265.600 307.015,265.600 307.828 M277.200 311.000 L 277.200 314.400 279.800 314.400 C 281.267 314.400,282.400 314.226,282.400 314.000 C 282.400 313.780,281.410 313.600,280.200 313.600 C 278.120 313.600,278.000 313.545,278.000 312.600 C 278.000 311.667,278.133 311.600,280.000 311.600 C 281.100 311.600,282.000 311.420,282.000 311.200 C 282.000 310.980,281.100 310.800,280.000 310.800 C 278.044 310.800,278.000 310.773,278.000 309.600 C 278.000 308.427,278.044 308.400,280.000 308.400 C 281.100 308.400,282.000 308.220,282.000 308.000 C 282.000 307.778,280.933 307.600,279.600 307.600 L 277.200 307.600 277.200 311.000 M288.000 311.000 C 288.000 313.756,288.114 314.400,288.600 314.400 C 289.000 314.400,289.200 314.000,289.200 313.200 C 289.200 312.476,289.408 312.000,289.725 312.000 C 290.014 312.000,290.768 312.540,291.400 313.200 C 292.032 313.860,292.910 314.400,293.350 314.400 C 294.085 314.400,294.064 314.310,293.081 313.284 C 292.021 312.178,292.018 312.162,292.806 311.488 C 294.797 309.783,293.260 307.600,290.069 307.600 L 288.000 307.600 288.000 311.000 M117.111 309.023 C 118.922 310.291,117.854 313.607,115.638 313.594 C 113.733 313.583,112.533 311.955,113.178 310.258 C 113.854 308.481,115.568 307.942,117.111 309.023 M140.571 309.028 C 141.564 310.021,140.704 311.200,138.986 311.200 C 137.669 311.200,137.600 311.131,137.600 309.800 C 137.600 308.211,139.310 307.767,140.571 309.028 M159.024 308.977 C 160.163 309.823,159.331 310.965,157.459 311.124 C 156.030 311.246,156.000 311.219,156.000 309.824 C 156.000 308.218,157.453 307.811,159.024 308.977 M207.771 309.028 C 208.764 310.021,207.904 311.200,206.186 311.200 C 204.869 311.200,204.800 311.131,204.800 309.800 C 204.800 308.211,206.510 307.767,207.771 309.028 M219.499 309.467 C 220.805 311.253,219.578 313.600,217.338 313.600 L 216.000 313.600 216.000 310.948 L 216.000 308.295 217.499 308.539 C 218.323 308.672,219.223 309.090,219.499 309.467 M292.171 309.028 C 293.164 310.021,292.304 311.200,290.586 311.200 C 289.269 311.200,289.200 311.131,289.200 309.800 C 289.200 308.211,290.910 307.767,292.171 309.028 M258.715 310.900 C 259.165 311.958,259.138 312.000,257.991 312.000 C 257.336 312.000,256.800 311.937,256.800 311.860 C 256.800 311.783,257.002 311.139,257.250 310.429 C 257.727 309.061,257.967 309.137,258.715 310.900 M195.536 310.619 C 196.164 311.999,196.164 312.000,194.800 312.000 C 194.140 312.000,193.600 311.918,193.600 311.819 C 193.600 311.369,194.557 309.600,194.800 309.600 C 194.949 309.600,195.280 310.058,195.536 310.619 " stroke="none" fill="#040404" fill-rule="evenodd"></path><path id="path3" d="M204.141 171.900 C 191.218 172.001,190.060 172.066,189.817 172.705 C 189.605 173.262,189.652 173.301,190.056 172.900 C 190.440 172.519,193.879 172.400,204.480 172.400 C 213.493 172.400,218.400 172.259,218.400 172.000 C 218.400 171.780,218.355 171.643,218.300 171.695 C 218.245 171.747,211.873 171.839,204.141 171.900 M199.337 187.506 C 198.916 187.773,213.418 187.757,222.200 187.480 C 224.180 187.417,219.950 187.331,212.800 187.289 C 205.650 187.247,199.592 187.344,199.337 187.506 M252.614 188.235 C 252.241 188.804,252.005 189.338,252.089 189.422 C 252.173 189.507,252.558 189.041,252.944 188.388 C 253.806 186.928,253.548 186.809,252.614 188.235 M225.453 204.900 L 224.733 206.200 225.558 205.200 C 226.289 204.313,226.614 203.600,226.286 203.600 C 226.224 203.600,225.849 204.185,225.453 204.900 M187.814 207.035 C 187.441 207.604,187.205 208.138,187.289 208.222 C 187.373 208.307,187.758 207.841,188.144 207.188 C 189.006 205.728,188.748 205.609,187.814 207.035 M240.214 209.835 C 239.841 210.404,239.605 210.938,239.689 211.022 C 239.773 211.107,240.158 210.641,240.544 209.988 C 241.406 208.528,241.148 208.409,240.214 209.835 M87.782 266.503 C 87.676 266.780,87.636 272.855,87.694 280.003 L 87.800 293.000 90.502 293.030 L 93.203 293.059 90.602 292.911 L 88.000 292.763 88.000 279.591 L 88.000 266.418 95.100 266.299 L 102.200 266.180 95.087 266.090 C 89.674 266.022,87.929 266.120,87.782 266.503 M119.676 266.299 C 122.468 266.367,127.148 266.368,130.076 266.299 C 133.004 266.231,130.720 266.175,125.000 266.174 C 119.280 266.174,116.884 266.230,119.676 266.299 M145.276 266.299 C 148.068 266.367,152.748 266.368,155.676 266.299 C 158.604 266.231,156.320 266.175,150.600 266.174 C 144.880 266.174,142.484 266.230,145.276 266.299 M169.300 266.298 C 171.225 266.371,174.375 266.371,176.300 266.298 C 178.225 266.225,176.650 266.165,172.800 266.165 C 168.950 266.165,167.375 266.225,169.300 266.298 M95.100 271.095 C 96.255 271.176,98.145 271.176,99.300 271.095 C 100.455 271.014,99.510 270.948,97.200 270.948 C 94.890 270.948,93.945 271.014,95.100 271.095 M170.972 271.330 C 170.860 271.622,170.820 273.557,170.884 275.630 L 171.000 279.400 175.400 279.422 L 179.800 279.445 175.500 279.309 L 171.200 279.173 171.200 275.199 L 171.200 271.225 175.900 271.099 L 180.600 270.972 175.887 270.886 C 172.282 270.820,171.127 270.925,170.972 271.330 M119.680 274.300 L 119.600 277.600 126.980 277.600 L 134.360 277.600 134.510 279.700 L 134.660 281.800 134.630 279.600 L 134.600 277.400 127.317 277.291 L 120.033 277.182 119.897 274.091 L 119.761 271.000 119.680 274.300 M145.280 274.300 L 145.200 277.600 152.580 277.600 L 159.960 277.600 160.110 279.700 L 160.260 281.800 160.230 279.600 L 160.200 277.400 152.917 277.291 L 145.633 277.182 145.497 274.091 L 145.361 271.000 145.280 274.300 M95.315 280.696 C 96.588 280.776,98.568 280.775,99.715 280.694 C 100.862 280.614,99.820 280.549,97.400 280.550 C 94.980 280.551,94.042 280.616,95.315 280.696 M119.680 285.100 L 119.600 288.400 127.500 288.309 L 135.400 288.218 127.717 288.101 L 120.033 287.983 119.897 284.891 L 119.761 281.800 119.680 285.100 M145.280 285.100 L 145.200 288.400 153.100 288.309 L 161.000 288.218 153.317 288.101 L 145.633 287.983 145.497 284.891 L 145.361 281.800 145.280 285.100 M171.067 284.267 C 170.920 284.413,170.800 286.385,170.800 288.648 L 170.800 292.762 168.300 292.904 L 165.800 293.046 168.500 293.123 L 171.200 293.200 171.200 288.819 L 171.200 284.438 173.700 284.296 L 176.200 284.154 173.767 284.077 C 172.428 284.035,171.213 284.120,171.067 284.267 M189.351 292.320 C 189.540 292.626,188.717 292.808,186.713 292.903 L 183.800 293.041 186.900 293.121 C 189.775 293.194,190.678 292.866,189.538 292.162 C 189.259 291.989,189.185 292.052,189.351 292.320 M119.676 293.099 C 122.468 293.167,127.148 293.168,130.076 293.099 C 133.004 293.031,130.720 292.975,125.000 292.974 C 119.280 292.974,116.884 293.030,119.676 293.099 M145.276 293.099 C 148.068 293.167,152.748 293.168,155.676 293.099 C 158.604 293.031,156.320 292.975,150.600 292.974 C 144.880 292.974,142.484 293.030,145.276 293.099 " stroke="none" fill="#0444bc" fill-rule="evenodd"></path><path id="path4" d="" stroke="none" fill="#0c88e0" fill-rule="evenodd"></path></g></svg>