<svg width="310" height="188" xmlns="http://www.w3.org/2000/svg" xmlns:xlink="http://www.w3.org/1999/xlink">
    <defs>
        <path id="a" d="M.016.063h47.88V35.81H.016z"/>
        <path id="c" d="M0 .096h308.801v19.907H0z"/>
    </defs>
    <g fill="none" fill-rule="evenodd">
        <path d="M108.597 58.501c0 10.045 2.535 19.497 6.999 27.754l17.974-9.698a37.85 37.85 0 0 1-4.554-18.056c0-20.722 16.579-37.571 37.196-38.01l-.091-20.42c-31.853.489-57.524 26.461-57.524 58.43M197.59 35.874l5.146-3.811-5.193 3.748.047.063"
              fill="#F4769A"/>
        <path d="M167.036 96.52c-14.463 0-27.039-8.075-33.466-19.963l-17.974 9.698c9.879 18.272 29.21 30.685 51.44 30.685 20.808 0 39.074-10.876 49.428-27.253L199.193 78.79c-6.736 10.655-18.62 17.73-32.157 17.73"
              fill="#FFC04D"/>
        <path d="M202.736 32.063l-5.146 3.81a37.849 37.849 0 0 1 7.465 22.628c0 7.374-2.1 14.257-5.733 20.085l17.341 10.788c5.585-8.958 8.811-19.539 8.811-30.873 0-12.967-4.225-24.948-11.372-34.642l-11.366 8.204z"
              fill="#31B1C0"/>
        <path d="M199.193 78.79l17.271 10.897.2-.313-17.342-10.788c-.042.069-.086.136-.129.204" fill="#31B1C0"/>
        <g transform="translate(166.104)">
            <mask id="b" fill="#fff">
                <use xlink:href="#a"/>
            </mask>
            <path d="M.931.063C.626.063.321.066.016.07l.092 20.422c.273-.006.548-.01.823-.01 12.493 0 23.577 6.026 30.507 15.329l5.194-3.748 11.264-8.343C37.248 9.366 20.176.063.931.063"
                  fill="#83AFF6" mask="url(#b)"/>
        </g>
        <path d="M202.736 32.063l11.366-8.204-.101-.138-11.265 8.342z" fill="#83AFF6"/>
        <path d="M130.152 118.55c-12.142-.505-18.55-13.658-23.946-20.265-5.396-6.606-13.996-7.558-23.608.873-9.612 8.432-10.286 27.656-19.561 39.628-9.275 11.973-20.573 10.961-32.273 13.828-11.7 2.867-12.245 15.106-12.245 15.106l138.547.144-.851-65.898s-13.922 17.09-26.063 16.585"
              fill="#F4769A"/>
        <path d="M274.962 30.88h-60.884c-.708 0-1.288.58-1.288 1.288v35.348c0 .708.58 1.288 1.288 1.288h60.884c.708 0 1.288-.58 1.288-1.288V32.168c0-.708-.58-1.288-1.288-1.288"
              fill="#C6DBF6"/>
        <path d="M151.342 160.362s-.362 1.859-.506 3.512c-.143 1.654-.18 3.99-.18 3.99l7.728-.144c.13-2.11-.027-4.54-.39-7.198l-6.652-.16z"
              fill="#A75F84"/>
        <path d="M160.511 62.467h-20.63a.48.48 0 1 0 0 .962h20.63a.48.48 0 1 0 0-.962M160.511 66.46h-20.63a.48.48 0 1 0 0 .96h20.63a.48.48 0 1 0 0-.96M160.511 70.531h-20.63a.48.48 0 1 0 0 .962h20.63a.48.48 0 1 0 0-.962"
              fill="#AAC1E2"/>
        <path d="M192.246 61.335h-24.523c-.931 0-1.693.762-1.693 1.693v16.53c0 .931.762 1.693 1.693 1.693h24.523c.93 0 1.693-.762 1.693-1.693v-16.53c0-.93-.762-1.693-1.693-1.693"
              fill="#C6DBF6"/>
        <path d="M275.522 160.988h-5.785s.643 1.698.268 2.88c-.376 1.181-.744 3.852-.744 3.852h6.573s-.344-2.665-.613-3.366c-.268-.701.3-3.366.3-3.366"
              fill="#A75F84"/>
        <path d="M169.718 60.496c-4.07-.255-6.098.182-6.098.182s-.688 4.419-2.002 6.327c4.198 1.484 10.22-.064 10.22-.064s-2.205-3.35-2.12-6.445"
              fill="#FBBAC2"/>
        <path d="M184.648 160.401l-5.8 1.489s.216.581.347 1.895c.041.413-.001 1.795-.08 3.935h6.233s.62-2.272-.066-3.88c-.686-1.609-.634-3.439-.634-3.439"
              fill="#A75F84"/>
        <path d="M182.595 149.836c.29-2.781-.811-7.07-1.507-10.372-.695-3.303-2.433-7.417-2.375-11.415.057-3.998.783-10.198.333-12.748-.45-2.55-.92-12.024-.92-12.024l-22.985-.376s-.65 4.23-1.17 9.445c-.522 5.215.057 15.065-.522 18.368-.58 3.303-1.64 9.46-1.872 12.705-.232 3.245-.371 17.697-.371 17.697 2.579.772 4.887.716 6.787-.594 0 0 .407-6.24.996-11.934.418-4.036-.151-5.068 1.124-7.734 1.274-2.665 1.625-7.996 2.232-11.299.607-3.302 1.07-12.805 3.852-14.775 2.317 4.23 4.036 7.3 4.248 10.835.213 3.535.445 7.475 1.43 11.068.985 3.592 2.202 7.532 2.434 10.43.232 2.897.637 3.94 1.68 6.953 1.043 3.013 2.608 7.648 2.608 7.648s1.912 1.391 3.708.754c1.796-.638 2.434-2.26 2.434-2.26s-2.434-7.59-2.144-10.372"
              fill="#83AFF6"/>
        <path d="M248.334 47.245c-.73 0-1.329.598-1.329 1.33v12.781c0 .732.598 1.33 1.33 1.33.73 0 1.329-.598 1.329-1.33V48.574c0-.731-.598-1.33-1.33-1.33"
              fill="#F4769A"/>
        <path d="M255.599 47.245c-.731 0-1.33.598-1.33 1.33v12.781c0 .732.599 1.33 1.33 1.33.731 0 1.33-.598 1.33-1.33V48.574c0-.731-.599-1.33-1.33-1.33"
              fill="#FFF"/>
        <path d="M177.741 92.9v-8.656s2.61 5.574 2.61 6.129c0 .554-2.61 2.527-2.61 2.527zm-21.911 0s-2.051-2.355-2.051-2.94 2.464-5.716 2.464-5.716l-.413 8.656zm25.814-20.131c-1.825-1.304-10.427-6.778-10.427-6.778s-4.012 1.456-8.827-.532c0 0-9.831 3.568-11.135 7.044-1.303 3.475-3.4 16.425-3.4 18.858 0 2.432 2.364 4.258 4.102 5.475 1.738 1.216 3.184 2.347 3.184 2.347v3.718s3.21 5.79 11.377 5.799c6.976.007 11.608-5.423 11.608-5.423v-4.992s7.602-3.36 8.036-5.532c.435-2.172-2.693-18.68-4.518-19.984z"
              fill="#6B78BE"/>
        <g transform="translate(.5 167.624)">
            <mask id="d" fill="#fff">
                <use xlink:href="#c"/>
            </mask>
            <path d="M43.354 19.556c22.816 2.918 38.734-9.379 57.304-9.73 18.571-.351 22.02 7.873 41.917 8.934 19.897 1.061 24.142-8.931 39.53-8.71 15.386.22 18.835 6.853 33.692 8.445 14.856 1.592 24.407-7.87 36.61-8.446 12.204-.574 38.505 11.099 56.394-8.799V.096H0s20.539 16.542 43.354 19.46"
                  fill="#C6DBF6" mask="url(#d)"/>
        </g>
        <path d="M155.833 92.885l-.001.017v-.017" fill="#D9D9D9"/>
        <path d="M166.785 98.303c-.813-.137-3.489-.637-5.027-.936-.707-.138-5.855-5.99-5.855-5.99l-.072 1.506-.001.017c.262.18 3.95 4.588 3.95 4.588s1.45 2.134 4.5 2.454c.417.043.796.064 1.147.064 2.218 0 3.244-.814 4.71-1.665 1.697-.985 7.604-5.441 7.604-5.441v-1.768s-8.022 7.188-10.743 7.188a1.29 1.29 0 0 1-.213-.017"
              fill="#5B66A2"/>
        <path d="M176.93 38.296H156.3a.48.48 0 1 0 0 .962h20.63a.48.48 0 1 0 0-.962M176.93 42.288H156.3a.48.48 0 1 0 0 .962h20.63a.48.48 0 1 0 0-.962M176.93 46.36H156.3a.48.48 0 1 0 0 .962h20.63a.48.48 0 1 0 0-.962M176.93 50.353H156.3a.48.48 0 1 0 0 .961h20.63a.48.48 0 1 0 0-.961M176.93 54.345H156.3a.48.48 0 1 0 0 .962h20.63a.48.48 0 1 0 0-.962"
              fill="#AAC1E2"/>
        <path d="M168.828 102.3c-5.15 0-11.336-1.765-11.336-1.765l-2.35-1.384v1.75s8.636 3.297 12.967 3.493c.093.005.186.007.28.007 4.292 0 9.737-4.289 9.737-4.289v-1.827l-5.626 3.598c-1.07.299-2.336.417-3.672.417"
              fill="#5B66A2"/>
        <path d="M262.863 51.816c-.731 0-1.33.598-1.33 1.33v8.21c0 .732.599 1.33 1.33 1.33.731 0 1.33-.598 1.33-1.33v-8.21c0-.732-.599-1.33-1.33-1.33"
              fill="#F4769A"/>
        <path d="M289.139 111.882c2.086-.8 3.914-4.2 3.914-4.2l-3.257-4.135s-.828 4.192-.657 8.335" fill="#FBBAC2"/>
        <path d="M289.426 164.354c.033-1.36.29-2.594.29-2.594l-6.016.337s.5 1.396.4 2.395c-.1.998-.401 3.228-.401 3.228h6.56s-.866-2.006-.833-3.366"
              fill="#A75F84"/>
        <path d="M274.776 53.163s-1.134 5.765-1.134 8.124c0 2.36 2.36 2.528 2.36 2.528l-.394 2.64s3.258 1.18 4.718 0 2.155-13.104-5.55-13.292"
              fill="#FBBAC2"/>
        <path d="M289.447 141.294c-.178-3.128-.804-11.26-.804-14.746 0-3.485 1.251-11.886 1.43-15.997.179-4.11-.626-10.232-.626-10.232s-7.685.67-12.869.58c-5.183-.089-6.463-.392-6.463-.392s-1.272 7.174-1.581 12.118c-.31 4.945.704 19.539 1.064 21.29.36 1.751.721 4.996 0 10.868-.72 5.872.155 16.225.155 16.225s1.493.927 3.039.927c1.545 0 2.73-.927 2.73-.927s.051-10.971.515-15.143c.463-4.172 1.081-10.508 1.596-14.01.515-3.503.67-12.929 1.443-17.925 1.081.567 2.57 13.344 2.724 15.713.155 2.37 1.237 16.715 1.007 20.427-.23 3.712.892 12.027.892 12.027s1.755.46 2.992.432c1.238-.029 3.024-.77 3.024-.77s.537-2.948.384-7.06c-.153-4.11-.473-10.277-.652-13.405"
              fill="#F4769A"/>
        <path d="M172.022 53.731c.094-1.553-.989-4.801-6.026-3.766 0 0-2.071.047-3.107 1.271-1.035 1.224-1.961 1.365-1.687 3.53.275 2.166.84 1.93.51 3.484-.33 1.554-.423 2.56.565 3.314.989.753 1.554.847 1.977 2.024.424 1.177 3.42 1.317 4.738.752 1.318-.565 1.053-2.747 2.324-3.171 1.27-.424 1.742-2.4 1.553-3.719-.188-1.318-.941-2.165-.847-3.719"
              fill="#915074"/>
        <path d="M256.105 58.436c-2.807-3.124-4.766-5.083-4.766-6.248s.318-3.76-.53-5.084c-.847-1.324-2.903-4.581-3.803-4.542-.901.039-.412 1.018 0 1.782.41.764 1.233 1.978 1.233 1.978s-1.566.646-1.9 1.332c-.332.685.118 2.546 1 3.408.88.861 1.43 1.721 1.566 2.8.137 1.077.803 3.74 2.37 5.778 1.567 2.037 2.777 4.168 3.72 4.974 1.831 1.57 6.72 6.239 8.464 6.709.607-1.821 1.33-6.161 1.33-6.161s-5.877-3.601-8.684-6.726M160.725 104.353c1.376.87 2.19 1.18 4.184.842-.983-.926-3.931-2.948-5.027-3.229 0 0-.533 1.516.843 2.387"
              fill="#FBBAC2"/>
        <path d="M168.666 102.364c-1.15-.779-3.826-2.058-5.792-2.414-.794-.144-3.093-2.462-3.093-2.462l-2.289 3.047s1.823 1.355 3.045 1.863c1.221.508 3.49 2.746 4.777 2.93 1.287.185 1.76.896 2.845 1.167 1.083.27 2.675-.372 2.2-1.591-.474-1.22-.541-1.761-1.693-2.54"
              fill="#FFCECF"/>
        <path d="M167.146 99.375c-.812.148-3.065-.775-4.246-1.034-1.182-.258-2.363.48-2.363.997s.221.665 1.735.85c1.514.184 2.4.775 3.47.922 1.072.148 3.905 2.167 3.905 2.167l2.853-1.391-2.363-3.545s-2.179.886-2.991 1.034"
              fill="#FBBAC2"/>
        <path d="M296.019 74.012c-1.211-2.69-3.23-5.086-6.203-5.84-2.974-.755-14.208-1.717-14.208-1.717s-5.495.07-7.688-.413c-2.193-.484-3.13-.88-3.13-.88s-1.921 2.057-1.331 6.16c0 0 5.469 3.707 6.64 5.842 1.17 2.136 1.65 11.026 1.65 14.54 0 3.513-1.634 8.803-1.634 8.803s3.307 1.296 8.511 1.26c5.204-.038 10.821-1.448 10.821-1.448s-1.197-7.117-.843-10.72c.372-3.799 3.042-9.005 3.042-9.005s1.07 10.392 1.18 12.957c.112 2.565-1.45 7.175-2.044 8.216-.595 1.04-.986 1.78-.986 1.78l3.257 4.135s3.244-5.822 4.025-9.912c.78-4.089.553-8.658 0-14.225-.436-4.387-.225-7.68-1.06-9.533"
              fill="#6B78BE"/>
        <path d="M287.24 61.248c-1.193-2.786.15-4.154-.497-6.045s-2.612-4.852-5.349-4.802c-2.737.05-5.473-1.269-6.618 2.762 0 0 .398.572 1.095 1.293.696.722-.05 1.543.945 2.513s1.17.498 1.22 1.94c.05 1.444-.871 1.22 0 2.986.87 1.767 1.467 2.737 1.144 3.857-.324 1.12-1.194 2.736-.896 4.453.299 1.717 1.99 2.339 2.762 4.503.771 2.165.05 4.056-.15 6.469-.199 2.413.846 4.777 2.165 4.926 1.319.15 3.558-2.164 4.23-4.18.671-2.015 1.094-2.214 1.99-3.582.896-1.369-.672-3.31.672-5.474 1.343-2.164 2.015-3.259 1.542-5.324-.472-2.065-3.06-3.508-4.254-6.295"
              fill="#442761"/>
        <path d="M135.286 151.588a.48.48 0 0 0-.481.481v.962a.48.48 0 1 0 .962 0v-.962a.48.48 0 0 0-.481-.48M135.286 147.934a.48.48 0 0 0-.481.48v.962a.48.48 0 1 0 .962 0v-.961a.48.48 0 0 0-.481-.481M135.286 144.28a.48.48 0 0 0-.481.48v.962a.48.48 0 1 0 .962 0v-.962a.48.48 0 0 0-.481-.48M135.286 158.897a.48.48 0 0 0-.481.481v.962a.48.48 0 1 0 .962 0v-.962a.48.48 0 0 0-.481-.48M135.286 162.552a.48.48 0 0 0-.481.48v.962a.48.48 0 1 0 .962 0v-.961a.48.48 0 0 0-.481-.481M135.286 140.625a.48.48 0 0 0-.481.48v.963a.48.48 0 1 0 .962 0v-.962a.48.48 0 0 0-.481-.481M135.286 155.243a.48.48 0 0 0-.481.48v.962a.48.48 0 1 0 .962 0v-.961a.48.48 0 0 0-.481-.481M135.286 166.206a.48.48 0 0 0-.481.481v.962a.48.48 0 1 0 .962 0v-.962a.48.48 0 0 0-.481-.48M135.286 136.97a.48.48 0 0 0-.481.481v.962a.48.48 0 1 0 .962 0v-.962a.48.48 0 0 0-.481-.48M135.286 115.044a.48.48 0 0 0-.481.48v.962a.48.48 0 1 0 .962 0v-.961a.48.48 0 0 0-.481-.481M135.286 122.353a.48.48 0 0 0-.481.48v.962a.48.48 0 1 0 .962 0v-.961a.48.48 0 0 0-.481-.481M135.286 111.39a.48.48 0 0 0-.481.48v.962a.48.48 0 1 0 .962 0v-.962a.48.48 0 0 0-.481-.48M135.286 118.698a.48.48 0 0 0-.481.481v.962a.48.48 0 1 0 .962 0v-.962a.48.48 0 0 0-.481-.48M135.286 133.316a.48.48 0 0 0-.481.481v.962a.48.48 0 1 0 .962 0v-.962a.48.48 0 0 0-.481-.48M135.286 129.662a.48.48 0 0 0-.481.48v.962a.48.48 0 1 0 .962 0v-.962a.48.48 0 0 0-.481-.48M135.286 126.007a.48.48 0 0 0-.481.481v.962a.48.48 0 1 0 .962 0v-.962a.48.48 0 0 0-.481-.48M114.742 141.684a.48.48 0 0 0-.481.481v.962a.48.48 0 1 0 .962 0v-.962a.48.48 0 0 0-.481-.48M114.742 134.375a.48.48 0 0 0-.481.481v.962a.48.48 0 1 0 .962 0v-.962a.48.48 0 0 0-.481-.48M114.742 138.03a.48.48 0 0 0-.481.48v.962a.48.48 0 1 0 .962 0v-.961a.48.48 0 0 0-.481-.481M114.742 145.339a.48.48 0 0 0-.481.48v.962a.48.48 0 1 0 .962 0v-.962a.48.48 0 0 0-.481-.48M114.742 159.956a.48.48 0 0 0-.481.481v.962a.48.48 0 1 0 .962 0v-.962a.48.48 0 0 0-.481-.48M114.742 163.61a.48.48 0 0 0-.481.482v.961a.48.48 0 1 0 .962 0v-.961a.48.48 0 0 0-.481-.481M114.742 152.648a.48.48 0 0 0-.481.48v.962a.48.48 0 1 0 .962 0v-.962a.48.48 0 0 0-.481-.48M114.742 156.302a.48.48 0 0 0-.481.48v.963a.48.48 0 1 0 .962 0v-.962a.48.48 0 0 0-.481-.481M114.742 148.993a.48.48 0 0 0-.481.48v.963a.48.48 0 1 0 .962 0v-.962a.48.48 0 0 0-.481-.48M114.742 105.14a.48.48 0 0 0-.481.48v.962a.48.48 0 1 0 .962 0v-.961a.48.48 0 0 0-.481-.481M114.742 112.449a.48.48 0 0 0-.481.48v.962a.48.48 0 1 0 .962 0v-.962a.48.48 0 0 0-.481-.48M114.742 108.794a.48.48 0 0 0-.481.481v.962a.48.48 0 1 0 .962 0v-.962a.48.48 0 0 0-.481-.48M114.742 101.485a.48.48 0 0 0-.481.481v.962a.48.48 0 1 0 .962 0v-.962a.48.48 0 0 0-.481-.48M114.742 119.757a.48.48 0 0 0-.481.481v.962a.48.48 0 1 0 .962 0v-.962a.48.48 0 0 0-.481-.48M114.742 127.066a.48.48 0 0 0-.481.481v.962a.48.48 0 1 0 .962 0v-.962a.48.48 0 0 0-.481-.48M114.742 123.412a.48.48 0 0 0-.481.48v.962a.48.48 0 1 0 .962 0v-.961a.48.48 0 0 0-.481-.481M114.742 116.103a.48.48 0 0 0-.481.48v.963a.48.48 0 1 0 .962 0v-.962a.48.48 0 0 0-.481-.481M114.742 130.72a.48.48 0 0 0-.481.482v.961a.48.48 0 1 0 .962 0v-.961a.48.48 0 0 0-.481-.481M94.198 138.473a.48.48 0 0 0-.481.48v.962a.48.48 0 1 0 .962 0v-.961a.48.48 0 0 0-.481-.481M94.198 142.127a.48.48 0 0 0-.481.481v.962a.48.48 0 1 0 .962 0v-.962a.48.48 0 0 0-.481-.48M94.198 134.818a.48.48 0 0 0-.481.481v.962a.48.48 0 1 0 .962 0v-.962a.48.48 0 0 0-.481-.48M94.198 127.51a.48.48 0 0 0-.481.48v.962a.48.48 0 1 0 .962 0v-.962a.48.48 0 0 0-.481-.48M94.198 145.782a.48.48 0 0 0-.481.48v.962a.48.48 0 1 0 .962 0v-.961a.48.48 0 0 0-.481-.481M94.198 131.164a.48.48 0 0 0-.481.48v.962a.48.48 0 1 0 .962 0v-.961a.48.48 0 0 0-.481-.481M94.198 160.4a.48.48 0 0 0-.481.48v.962a.48.48 0 1 0 .962 0v-.962a.48.48 0 0 0-.481-.48M94.198 164.054a.48.48 0 0 0-.481.48v.963a.48.48 0 1 0 .962 0v-.962a.48.48 0 0 0-.481-.481M94.198 149.436a.48.48 0 0 0-.481.481v.962a.48.48 0 1 0 .962 0v-.962a.48.48 0 0 0-.481-.48M94.198 156.745a.48.48 0 0 0-.481.48v.963a.48.48 0 1 0 .962 0v-.962a.48.48 0 0 0-.481-.48M94.198 153.09a.48.48 0 0 0-.481.481v.962a.48.48 0 1 0 .962 0v-.962a.48.48 0 0 0-.481-.48M94.198 90.965a.48.48 0 0 0-.481.48v.962a.48.48 0 1 0 .962 0v-.961a.48.48 0 0 0-.481-.481M94.198 101.928a.48.48 0 0 0-.481.481v.962a.48.48 0 1 0 .962 0v-.962a.48.48 0 0 0-.481-.48M94.198 94.62a.48.48 0 0 0-.481.48v.962a.48.48 0 1 0 .962 0V95.1a.48.48 0 0 0-.481-.48M94.198 98.274a.48.48 0 0 0-.481.48v.962a.48.48 0 1 0 .962 0v-.961a.48.48 0 0 0-.481-.481M94.198 87.31a.48.48 0 0 0-.481.481v.962a.48.48 0 1 0 .962 0v-.962a.48.48 0 0 0-.481-.48M94.198 123.855a.48.48 0 0 0-.481.48v.963a.48.48 0 1 0 .962 0v-.962a.48.48 0 0 0-.481-.481M94.198 83.656a.48.48 0 0 0-.481.48v.963a.48.48 0 1 0 .962 0v-.962a.48.48 0 0 0-.481-.481M94.198 116.546a.48.48 0 0 0-.481.481v.962a.48.48 0 1 0 .962 0v-.962a.48.48 0 0 0-.481-.48M94.198 120.2a.48.48 0 0 0-.481.481v.962a.48.48 0 1 0 .962 0v-.962a.48.48 0 0 0-.481-.48M94.198 109.237a.48.48 0 0 0-.481.481v.962a.48.48 0 1 0 .962 0v-.962a.48.48 0 0 0-.481-.48M94.198 105.583a.48.48 0 0 0-.481.48v.962a.48.48 0 1 0 .962 0v-.961a.48.48 0 0 0-.481-.481M94.198 112.892a.48.48 0 0 0-.481.48v.962a.48.48 0 1 0 .962 0v-.961a.48.48 0 0 0-.481-.481M73.654 141.66a.48.48 0 0 0-.481.481v.962a.48.48 0 1 0 .962 0v-.962a.48.48 0 0 0-.481-.48M73.654 148.97a.48.48 0 0 0-.481.48v.962a.48.48 0 1 0 .962 0v-.962a.48.48 0 0 0-.481-.48M73.654 138.006a.48.48 0 0 0-.481.48v.963a.48.48 0 1 0 .962 0v-.962a.48.48 0 0 0-.481-.481M73.654 134.352a.48.48 0 0 0-.481.48v.962a.48.48 0 1 0 .962 0v-.962a.48.48 0 0 0-.481-.48M73.654 156.278a.48.48 0 0 0-.481.481v.962a.48.48 0 1 0 .962 0v-.962a.48.48 0 0 0-.481-.48M73.654 159.933a.48.48 0 0 0-.481.48v.962a.48.48 0 1 0 .962 0v-.961a.48.48 0 0 0-.481-.481M73.654 152.624a.48.48 0 0 0-.481.48v.962a.48.48 0 1 0 .962 0v-.961a.48.48 0 0 0-.481-.481M73.654 163.587a.48.48 0 0 0-.481.481v.962a.48.48 0 1 0 .962 0v-.962a.48.48 0 0 0-.481-.48M73.654 130.697a.48.48 0 0 0-.481.48v.963a.48.48 0 1 0 .962 0v-.962a.48.48 0 0 0-.481-.48M73.654 145.315a.48.48 0 0 0-.481.48v.962a.48.48 0 1 0 .962 0v-.961a.48.48 0 0 0-.481-.481M73.654 101.461a.48.48 0 0 0-.481.481v.962a.48.48 0 1 0 .962 0v-.962a.48.48 0 0 0-.481-.48M73.654 105.116a.48.48 0 0 0-.481.48v.962a.48.48 0 1 0 .962 0v-.961a.48.48 0 0 0-.481-.481M73.654 127.043a.48.48 0 0 0-.481.48v.962a.48.48 0 1 0 .962 0v-.962a.48.48 0 0 0-.481-.48M73.654 108.77a.48.48 0 0 0-.481.481v.962a.48.48 0 1 0 .962 0v-.962a.48.48 0 0 0-.481-.48M73.654 97.807a.48.48 0 0 0-.481.48v.963a.48.48 0 1 0 .962 0v-.962a.48.48 0 0 0-.481-.481M73.654 119.734a.48.48 0 0 0-.481.48v.962a.48.48 0 1 0 .962 0v-.961a.48.48 0 0 0-.481-.481M73.654 112.425a.48.48 0 0 0-.481.48v.962a.48.48 0 1 0 .962 0v-.961a.48.48 0 0 0-.481-.481M73.654 123.388a.48.48 0 0 0-.481.481v.962a.48.48 0 1 0 .962 0v-.962a.48.48 0 0 0-.481-.48M73.654 116.08a.48.48 0 0 0-.481.48v.962a.48.48 0 1 0 .962 0v-.962a.48.48 0 0 0-.481-.48M53.11 156.19a.48.48 0 0 0-.481.48v.962a.48.48 0 1 0 .962 0v-.962a.48.48 0 0 0-.481-.48M53.11 159.844a.48.48 0 0 0-.481.48v.962a.48.48 0 1 0 .962 0v-.962a.48.48 0 0 0-.481-.48M53.11 167.152a.48.48 0 0 0-.481.481v.087a.48.48 0 1 0 .962 0v-.087a.48.48 0 0 0-.481-.48M53.11 152.535a.48.48 0 0 0-.481.48v.962a.48.48 0 1 0 .962 0v-.961a.48.48 0 0 0-.481-.481M53.11 163.498a.48.48 0 0 0-.481.48v.963a.48.48 0 1 0 .962 0v-.962a.48.48 0 0 0-.481-.481M53.11 134.262a.48.48 0 0 0-.481.481v.962a.48.48 0 1 0 .962 0v-.962a.48.48 0 0 0-.481-.48M53.11 130.608a.48.48 0 0 0-.481.48v.962a.48.48 0 1 0 .962 0v-.961a.48.48 0 0 0-.481-.481M53.11 137.917a.48.48 0 0 0-.481.48v.962a.48.48 0 1 0 .962 0v-.961a.48.48 0 0 0-.481-.481M53.11 145.226a.48.48 0 0 0-.481.48v.962a.48.48 0 1 0 .962 0v-.961a.48.48 0 0 0-.481-.481M53.11 141.571a.48.48 0 0 0-.481.481v.962a.48.48 0 1 0 .962 0v-.962a.48.48 0 0 0-.481-.48M53.11 148.88a.48.48 0 0 0-.481.481v.962a.48.48 0 1 0 .962 0v-.962a.48.48 0 0 0-.481-.48M32.566 160.731a.48.48 0 0 0-.481.481v.962a.48.48 0 1 0 .962 0v-.962a.48.48 0 0 0-.481-.48M32.566 164.386a.48.48 0 0 0-.481.48v.962a.48.48 0 1 0 .962 0v-.961a.48.48 0 0 0-.481-.481M32.566 157.077a.48.48 0 0 0-.481.48v.962a.48.48 0 1 0 .962 0v-.961a.48.48 0 0 0-.481-.481M32.566 146.114a.48.48 0 0 0-.481.48v.962a.48.48 0 1 0 .962 0v-.962a.48.48 0 0 0-.481-.48M32.566 142.46a.48.48 0 0 0-.481.48v.962a.48.48 0 1 0 .962 0v-.962a.48.48 0 0 0-.481-.48M32.566 153.422a.48.48 0 0 0-.481.481v.962a.48.48 0 1 0 .962 0v-.962a.48.48 0 0 0-.481-.48M32.566 149.768a.48.48 0 0 0-.481.48v.963a.48.48 0 1 0 .962 0v-.962a.48.48 0 0 0-.481-.481"
              fill="#FFC04D"/>
        <path d="M47.922 74.653H21.541c-.635 0-1.154.519-1.154 1.154v26.381c0 .635.519 1.154 1.154 1.154h26.381c.635 0 1.154-.52 1.154-1.154V75.807c0-.635-.52-1.154-1.154-1.154"
              fill="#31B1C0"/>
        <path d="M34.367 97.468c-4.67 0-8.47-3.8-8.47-8.47 0-4.671 3.8-8.471 8.47-8.471 4.671 0 8.471 3.8 8.471 8.47 0 4.671-3.8 8.47-8.47 8.47m0-17.902c-5.201 0-9.433 4.231-9.433 9.432 0 5.201 4.232 9.433 9.432 9.433 5.201 0 9.433-4.232 9.433-9.433 0-5.2-4.232-9.432-9.433-9.432"
              fill="#FFF"/>
        <path d="M42.12 84.487l-7.287 3.687v-8.161a.48.48 0 1 0-.962 0v8.944a.481.481 0 0 0 .698.429l7.985-4.04a.48.48 0 0 0-.435-.859"
              fill="#FFF"/>
        <path d="M34.742 88.675a.48.48 0 1 0-.78.563l5.261 7.294a.48.48 0 1 0 .78-.563l-5.261-7.294z" fill="#FFF"/>
        <path fill="#F4769A"
              d="M28.238 132.986l.24 1.094 1.189-.566h.02v4.94h1.41v-6.235h-1.21zM35.423 137.456c-.566 0-.912-.68-.902-2.11-.01-1.449.355-2.13.892-2.13.585 0 .883.73.883 2.11 0 1.42-.307 2.13-.873 2.13m.01-5.343c-1.612 0-2.38 1.43-2.38 3.233.01 1.765.72 3.213 2.331 3.213 1.593 0 2.37-1.323 2.37-3.252 0-1.707-.653-3.194-2.322-3.194"/>
        <path d="M50.213 125.167l.576-.48c.902-.806 1.66-1.64 1.66-2.686 0-1.132-.778-1.957-2.188-1.957-.844 0-1.573.288-2.043.643l.413 1.046c.326-.25.796-.519 1.333-.519.72 0 1.026.403 1.026.912-.019.729-.68 1.43-2.043 2.647l-.806.73v.882h4.423v-1.2h-2.35v-.018zM55.739 125.387c-.566 0-.912-.68-.902-2.11-.01-1.449.355-2.13.892-2.13.585 0 .883.73.883 2.11 0 1.42-.307 2.13-.873 2.13m.01-5.343c-1.612 0-2.38 1.43-2.38 3.233.01 1.765.72 3.214 2.331 3.214 1.593 0 2.37-1.324 2.37-3.252 0-1.708-.653-3.195-2.322-3.195"
              fill="#000"/>
        <path d="M72.816 89.437c-.441-.316-1.046-.45-1.64-.45-.154 0-.269 0-.403.019l.134-.96h2.417v-1.199H69.89l-.412 3.271c.259-.038.499-.057.844-.057 1.247 0 1.755.393 1.755 1.036 0 .662-.642.95-1.247.95a3.583 3.583 0 0 1-1.41-.308l-.259 1.094c.346.182.979.355 1.737.355 1.678 0 2.676-1.027 2.676-2.187 0-.73-.288-1.247-.758-1.564M76.759 92.085c-.566 0-.912-.681-.902-2.11-.01-1.45.355-2.13.892-2.13.585 0 .883.729.883 2.11 0 1.42-.307 2.13-.873 2.13m.01-5.343c-1.612 0-2.38 1.429-2.38 3.232.01 1.765.72 3.214 2.331 3.214 1.593 0 2.37-1.324 2.37-3.252 0-1.708-.653-3.194-2.322-3.194"
              fill="#F4769A"/>
        <path d="M91.416 78.55c-.662 0-.979-.596-1.008-1.257 0-.173.02-.288.058-.365a.951.951 0 0 1 .863-.556c.624 0 .93.498.93 1.074 0 .633-.325 1.103-.843 1.103m.393-3.213c-.585 0-1.017.182-1.324.498h-.029c.163-.729.74-1.39 2.034-1.496.23-.02.403-.029.566-.02v-1.122a4.168 4.168 0 0 0-.585.01c-.979.048-1.784.355-2.408.921-.671.623-1.103 1.602-1.103 2.772 0 1.487.815 2.725 2.475 2.725 1.352 0 2.302-1.017 2.302-2.255 0-1.295-.882-2.033-1.928-2.033M98.054 75.873c-.441-.317-1.046-.451-1.64-.451-.154 0-.27 0-.403.02l.134-.96h2.417v-1.2h-3.434l-.412 3.272c.259-.038.499-.058.844-.058 1.247 0 1.755.394 1.755 1.036 0 .662-.642.95-1.247.95a3.583 3.583 0 0 1-1.41-.307l-.259 1.094c.345.182.979.355 1.736.355 1.68 0 2.677-1.027 2.677-2.188 0-.729-.288-1.247-.758-1.563"
              fill="#000"/>
        <path d="M113.227 93.526v1.381h-1.4v-.019l.834-1.362c.21-.393.374-.758.576-1.16h.038c-.029.402-.048.786-.048 1.16zm1.381-2.273h-1.784l-2.36 3.798v.95h2.763v1.487h1.381V96h.748v-1.094h-.748v-3.654zM119.625 93.843c-.441-.317-1.045-.451-1.64-.451-.154 0-.269 0-.403.019l.134-.96h2.418v-1.198h-3.435l-.412 3.27c.259-.038.499-.057.844-.057 1.247 0 1.756.393 1.756 1.036 0 .662-.643.95-1.247.95a3.583 3.583 0 0 1-1.41-.307l-.26 1.093c.346.183.979.355 1.737.355 1.678 0 2.676-1.026 2.676-2.187 0-.729-.288-1.247-.758-1.563"
              fill="#F4769A"/>
        <path d="M133.605 104.068v-.02c.767-.268 1.141-.786 1.141-1.448 0-.853-.738-1.554-2.072-1.554-.806 0-1.554.23-1.928.47l.297 1.055c.26-.153.797-.374 1.305-.374.614 0 .92.279.92.653 0 .527-.623.71-1.112.72h-.566v1.045h.595c.643 0 1.257.278 1.257.892 0 .47-.384.835-1.142.835-.595 0-1.19-.25-1.448-.384l-.298 1.093c.365.23 1.046.442 1.852.442 1.582 0 2.551-.806 2.551-1.91 0-.815-.604-1.38-1.352-1.515M138.19 106.39c-.566 0-.911-.682-.902-2.111-.01-1.448.355-2.13.892-2.13.585 0 .883.73.883 2.11 0 1.42-.307 2.13-.873 2.13m.01-5.343c-1.612 0-2.38 1.43-2.38 3.233.01 1.765.72 3.214 2.332 3.214 1.592 0 2.369-1.324 2.369-3.252 0-1.708-.652-3.195-2.321-3.195"
              fill="#000"/>
        <path d="M98.366 26.001c-2.9-12.807-8.941-18.096-21.344-18.096-14.662 0-17.72 17.101-17.72 17.101s-4.595-6.012-9.347-3.193c-4.753 2.82-2.217 9.344-2.217 9.344s-4.527-1.32-8.356 3.607c-2.642 3.4-2.337 13.32-2.337 13.32h83.186c0-27.616-18.401-24.902-21.865-22.083"
              fill="#6B78BE"/>
        <path d="M254.144 124.343h-57.231c-.635 0-1.154.52-1.154 1.154v30.136c0 .635.519 1.154 1.154 1.154h57.231c.635 0 1.154-.519 1.154-1.154v-30.136c0-.635-.52-1.154-1.154-1.154"
              fill="#C6DBF6"/>
        <path fill="#A5B6DB" d="M206.297 167.72h39.305v-10.933h-39.305z"/>
        <path d="M92.054 60.683h-.962a.48.48 0 1 0 0 .961h.962a.48.48 0 1 0 0-.961M81.09 60.683h-.961a.48.48 0 1 0 0 .961h.961a.48.48 0 1 0 0-.961M88.4 60.683h-.962a.48.48 0 1 0 0 .961h.961a.48.48 0 1 0 0-.961M84.745 60.683h-.962a.48.48 0 1 0 0 .961h.962a.48.48 0 1 0 0-.961M78.59 54.913a.48.48 0 0 0-.481.48v.962a.48.48 0 1 0 .962 0v-.962a.48.48 0 0 0-.481-.48M78.59 47.604a.48.48 0 0 0-.481.48v.962a.48.48 0 1 0 .962 0v-.962a.48.48 0 0 0-.481-.48M78.59 51.258a.48.48 0 0 0-.481.48v.963a.48.48 0 1 0 .962 0v-.962a.48.48 0 0 0-.481-.48M78.59 58.567a.48.48 0 0 0-.481.48v.963a.48.48 0 1 0 .962 0v-.962a.48.48 0 0 0-.481-.481M113.98 60.683h-.961a.48.48 0 1 0 0 .961h.961a.48.48 0 1 0 0-.961M117.635 60.683h-.962a.48.48 0 1 0 0 .961h.962a.48.48 0 1 0 0-.961M110.326 60.683h-.962a.48.48 0 1 0 0 .961h.962a.48.48 0 1 0 0-.961M95.708 60.683h-.962a.48.48 0 1 0 0 .961h.962a.48.48 0 1 0 0-.961M99.363 60.683H98.4a.48.48 0 1 0 0 .961h.962a.48.48 0 1 0 0-.961M106.671 60.683h-.961a.48.48 0 1 0 0 .961h.961a.48.48 0 1 0 0-.961M103.017 60.683h-.962a.48.48 0 1 0 0 .961h.962a.48.48 0 1 0 0-.961"
              fill="#FFC04D"/>
        <path d="M118.962 57.432a3.732 3.732 0 1 0 0 7.464 3.732 3.732 0 0 0 0-7.464" fill="#FFC04D"/>
        <path d="M118.962 59.684a1.48 1.48 0 1 0 0 2.96 1.48 1.48 0 0 0 0-2.96" fill="#FFF"/>
        <path d="M219.277 50.893c-.731 0-1.33.598-1.33 1.33v9.133c0 .732.599 1.33 1.33 1.33.732 0 1.33-.598 1.33-1.33v-9.134c0-.731-.598-1.33-1.33-1.33"
              fill="#F4769A"/>
        <path d="M226.542 46.196c-.732 0-1.33.598-1.33 1.33v13.83c0 .732.598 1.33 1.33 1.33.73 0 1.33-.598 1.33-1.33v-13.83c0-.732-.6-1.33-1.33-1.33"
              fill="#FFF"/>
        <path d="M233.806 42.887c-.731 0-1.33.598-1.33 1.33v17.14c0 .73.599 1.329 1.33 1.329.731 0 1.33-.598 1.33-1.33v-17.14c0-.73-.599-1.329-1.33-1.329"
              fill="#F4769A"/>
        <path d="M241.07 36.084c-.731 0-1.33.598-1.33 1.33v23.942c0 .732.599 1.33 1.33 1.33.731 0 1.33-.598 1.33-1.33V37.413c0-.73-.599-1.33-1.33-1.33M270.127 44.024c-.73 0-1.33.598-1.33 1.33v16.002c0 .732.6 1.33 1.33 1.33.732 0 1.33-.598 1.33-1.33V45.353c0-.73-.598-1.33-1.33-1.33M228.481 36.95h-11.818a.48.48 0 1 0 0 .961h11.818a.48.48 0 1 0 0-.961M228.481 40.54h-11.818a.48.48 0 1 0 0 .961h11.818a.48.48 0 1 0 0-.962M219.82 132.563H208a.48.48 0 1 0 0 .961h11.818a.48.48 0 1 0 0-.961M219.82 136.152H208a.48.48 0 1 0 0 .962h11.818a.48.48 0 1 0 0-.962M219.82 143.193H208a.48.48 0 1 0 0 .962h11.818a.48.48 0 1 0 0-.962M219.82 146.783H208a.48.48 0 1 0 0 .961h11.818a.48.48 0 1 0 0-.961M247.073 132.563h-11.818a.48.48 0 1 0 0 .961h11.818a.48.48 0 1 0 0-.961M247.073 136.152h-11.818a.48.48 0 1 0 0 .962h11.818a.48.48 0 1 0 0-.962M247.073 143.193h-11.818a.48.48 0 1 0 0 .962h11.818a.48.48 0 1 0 0-.962M247.073 146.783h-11.818a.48.48 0 1 0 0 .961h11.818a.48.48 0 1 0 0-.961"
              fill="#FFF"/>
        <path d="M201.88 132.386a2.356 2.356 0 1 0 .001 4.712 2.356 2.356 0 0 0 0-4.712" fill="#83AFF6"/>
        <path d="M201.88 143.113a2.356 2.356 0 1 0 .001 4.712 2.356 2.356 0 0 0 0-4.712" fill="#31B1C0"/>
        <path d="M229.301 132.386a2.356 2.356 0 1 0 0 4.712 2.356 2.356 0 0 0 0-4.712" fill="#FFC04D"/>
        <path d="M229.301 143.113a2.356 2.356 0 1 0 0 4.712 2.356 2.356 0 0 0 0-4.712" fill="#F4769A"/>
        <path d="M270.303 36.084H261c-.635 0-1.154.52-1.154 1.154v3.66c0 .635.519 1.155 1.154 1.155h9.302c.635 0 1.154-.52 1.154-1.154v-3.661c0-.635-.52-1.154-1.154-1.154M235.604 95.258a5.26 5.26 0 1 1-7.438-7.439 5.26 5.26 0 0 1 7.438 7.439m-10.029-10.03a8.924 8.924 0 1 0 12.62 12.62 8.924 8.924 0 0 0-12.62-12.62"
              fill="#E4EEFA"/>
        <path fill="#E4EEFA" d="M235.497 96.866l5.624 5.624 1.716-1.716-5.624-5.624z"/>
        <path d="M245.346 100.708a3.067 3.067 0 0 0-4.325 0 3.067 3.067 0 0 0 0 4.324l8.032 8.032a3.066 3.066 0 0 0 4.324 0 3.067 3.067 0 0 0 0-4.325l-8.031-8.031z"
              fill="#C6DBF6"/>
        <path d="M78.59 46.048a.48.48 0 0 0-.481.481v.962a.48.48 0 1 0 .962 0v-.962a.48.48 0 0 0-.481-.48M78.59 42.394a.48.48 0 0 0-.481.48v.962a.48.48 0 1 0 .962 0v-.961a.48.48 0 0 0-.481-.481M78.59 38.74a.48.48 0 0 0-.481.48v.962a.48.48 0 1 0 .962 0v-.962a.48.48 0 0 0-.481-.48M78.59 35.085a.48.48 0 0 0-.481.48v.962a.48.48 0 1 0 .962 0v-.961a.48.48 0 0 0-.481-.481M84.499 26.212H72.681a.48.48 0 0 0 0 .962h11.818a.48.48 0 0 0 0-.962M84.499 29.802H72.681a.48.48 0 0 0 0 .961h11.818a.48.48 0 0 0 0-.961M84.499 18.697H72.681a.48.48 0 0 0 0 .961h11.818a.48.48 0 0 0 0-.961M84.499 22.287H72.681a.48.48 0 0 0 0 .961h11.818a.48.48 0 0 0 0-.961"
              fill="#FFF"/>
        <path d="M150.128 36.874h-9.17c-.592 0-1.077.485-1.077 1.078v17.759c0 .593.485 1.078 1.078 1.078h9.169c.593 0 1.078-.485 1.078-1.078V37.952c0-.593-.485-1.078-1.078-1.078M192.86 36.874h-9.169c-.593 0-1.078.485-1.078 1.078v17.759c0 .593.485 1.078 1.078 1.078h9.17c.592 0 1.078-.485 1.078-1.078V37.952c0-.593-.486-1.078-1.079-1.078"
              fill="#C6DBF6"/>
    </g>
</svg>