<svg xmlns="http://www.w3.org/2000/svg" xmlns:xlink="http://www.w3.org/1999/xlink" viewBox="0 0 563.73 481.22" width="400" height="400">
    <defs>
        <linearGradient id="Sky" x1="225.49" y1="666.9" x2="856.68" y2="666.9" gradientUnits="userSpaceOnUse">
            <stop offset="0" stop-color="#cce0f4"/>
            <stop offset="0.06" stop-color="#c3dcf2"/>
            <stop offset="0.17" stop-color="#a9d2ee"/>
            <stop offset="0.31" stop-color="#80c2e7"/>
            <stop offset="0.47" stop-color="#47acde"/>
            <stop offset="0.57" stop-color="#1f9cd7"/>
            <stop offset="0.87" stop-color="#0675bc"/>
            <stop offset="0.99" stop-color="#005b97"/>
        </linearGradient>
        <linearGradient id="linear-gradient" x1="233.53" y1="659.8" x2="797.26" y2="659.8" gradientUnits="userSpaceOnUse">
            <stop offset="0" stop-color="#0148be"/>
            <stop offset="0.05" stop-color="#0a4ab8"/>
            <stop offset="0.12" stop-color="#244fa6"/>
            <stop offset="0.22" stop-color="#4e578a"/>
            <stop offset="0.34" stop-color="#876363"/>
            <stop offset="0.46" stop-color="#d07131"/>
            <stop offset="0.54" stop-color="#fb7a14"/>
            <stop offset="0.99" stop-color="#2adf5d"/>
        </linearGradient>
    </defs>
    <path class="cls-1" fill="url(#Sky)" d="M246.31,673.76v20H233.53V625.7c10.55,0,21.4-.1,32-.1,33.31,0,33.41,47.87,0,48.16Zm0-11.77h19.17c16.37,0,16.27-24.13,0-24.13H246.31Z" transform="translate(-233.53 -213.66)"/>
    <path class="cls-1" fill="url(#Sky)" d="M351.66,693.81H300.92V625.7h50.74v12.45H313.61v15.67h36.7v12h-36.7v15.37h38.05Z" transform="translate(-233.53 -213.66)"/>
    <path class="cls-1" fill="url(#Sky)" d="M416.05,693.81H365.31V625.7h50.74v12.45H378v15.67h36.69v12H378v15.37h38.05Z" transform="translate(-233.53 -213.66)"/>
    <path class="cls-1" fill="url(#Sky)" d="M489.74,693.81H475.11L455.46,671h-13v22.77H429.7V625.6c10.75,0,21.5.1,32.25.1,16,.09,24.4,10.8,24.4,22.57,0,9.34-4.26,18.78-17.14,21.41l20.53,23.25Zm-47.26-56.15v21.8H462c8.13,0,11.62-5.45,11.62-10.9S470,637.66,462,637.66Z" transform="translate(-233.53 -213.66)"/>
    <path class="cls-1" fill="url(#Sky)" d="M507,670.26v23.55h-5.23V625.7h29.73c29.43,0,29.43,44.56,0,44.56Zm0-39.7v34.93h24.5c22.56,0,22.56-34.93,0-34.93Z" transform="translate(-233.53 -213.66)"/>
    <path class="cls-1" fill="url(#Sky)" d="M571.84,625.7v63.15H610v5H566.61V625.7Z" transform="translate(-233.53 -213.66)"/>
    <path class="cls-1" fill="url(#Sky)" d="M675.06,693.81l-7.45-16.74H627.13l-7.36,16.74h-5.61l30.4-68.11h5.71l30.41,68.11Zm-9.49-21.6-18.2-41.45-18.21,41.45Z" transform="translate(-233.53 -213.66)"/>
    <path class="cls-1" fill="url(#Sky)" d="M706.05,666.56l-26.44-40.77v-.09h6.1l22.95,35.8,23.05-35.8h6.1v.09l-26.53,40.77v27.25h-5.23Z" transform="translate(-233.53 -213.66)"/>
    <path class="cls-1" fill="url(#Sky)" d="M791,638.83c-4.94-8-12.88-9.14-20.53-9.24-7.94,0-20.53,2.92-20.53,13.82,0,8.66,9.3,10.7,20.72,12.84,13.07,2.53,26.63,4.87,26.63,19.56-.1,15.37-15.49,19.07-26.82,19.07-10.56,0-22.56-4.38-27.79-14.79l4.64-2.34c4.17,8.28,14.82,12.36,23.15,12.36S792,687.78,792,675.71c.1-10.22-11.13-12.45-22.27-14.59-12.39-2.44-25.08-5-25.08-17.52-.29-14.4,14.62-18.88,25.76-18.88,9.68,0,18.1,1.56,24.79,11.58Z" transform="translate(-233.53 -213.66)"/>
    <path class="cls-2" fill="url(#linear-gradient)" d="M246.31,673.76v20H233.53V625.7c10.55,0,21.4-.1,32-.1,33.31,0,33.41,47.87,0,48.16Zm0-11.77h19.17c16.37,0,16.27-24.13,0-24.13H246.31Z" transform="translate(-233.53 -213.66)"/>
    <path class="cls-2" fill="url(#linear-gradient)" d="M351.66,693.81H300.92V625.7h50.74v12.45H313.61v15.67h36.7v12h-36.7v15.37h38.05Z" transform="translate(-233.53 -213.66)"/>
    <path class="cls-2" fill="url(#linear-gradient)" d="M416.05,693.81H365.31V625.7h50.74v12.45H378v15.67h36.69v12H378v15.37h38.05Z" transform="translate(-233.53 -213.66)"/>
    <path class="cls-2" fill="url(#linear-gradient)" d="M489.74,693.81H475.11L455.46,671h-13v22.77H429.7V625.6c10.75,0,21.5.1,32.25.1,16,.09,24.4,10.8,24.4,22.57,0,9.34-4.26,18.78-17.14,21.41l20.53,23.25Zm-47.26-56.15v21.8H462c8.13,0,11.62-5.45,11.62-10.9S470,637.66,462,637.66Z" transform="translate(-233.53 -213.66)"/>
    <path class="cls-2" fill="url(#linear-gradient)" d="M507,670.26v23.55h-5.23V625.7h29.73c29.43,0,29.43,44.56,0,44.56Zm0-39.7v34.93h24.5c22.56,0,22.56-34.93,0-34.93Z" transform="translate(-233.53 -213.66)"/>
    <path class="cls-2" fill="url(#linear-gradient)" d="M571.84,625.7v63.15H610v5H566.61V625.7Z" transform="translate(-233.53 -213.66)"/>
    <path class="cls-2" fill="url(#linear-gradient)" d="M675.06,693.81l-7.45-16.74H627.13l-7.36,16.74h-5.61l30.4-68.11h5.71l30.41,68.11Zm-9.49-21.6-18.2-41.45-18.21,41.45Z" transform="translate(-233.53 -213.66)"/>
    <path class="cls-2" fill="url(#linear-gradient)" d="M706.05,666.56l-26.44-40.77v-.09h6.1l22.95,35.8,23.05-35.8h6.1v.09l-26.53,40.77v27.25h-5.23Z" transform="translate(-233.53 -213.66)"/>
    <path class="cls-2" fill="url(#linear-gradient)" d="M791,638.83c-4.94-8-12.88-9.14-20.53-9.24-7.94,0-20.53,2.92-20.53,13.82,0,8.66,9.3,10.7,20.72,12.84,13.07,2.53,26.63,4.87,26.63,19.56-.1,15.37-15.49,19.07-26.82,19.07-10.56,0-22.56-4.38-27.79-14.79l4.64-2.34c4.17,8.28,14.82,12.36,23.15,12.36S792,687.78,792,675.71c.1-10.22-11.13-12.45-22.27-14.59-12.39-2.44-25.08-5-25.08-17.52-.29-14.4,14.62-18.88,25.76-18.88,9.68,0,18.1,1.56,24.79,11.58Z" transform="translate(-233.53 -213.66)"/>
    <path class="cls-2" fill="url(#linear-gradient)" d="M246.31,673.76v20H233.53V625.7c10.55,0,21.4-.1,32-.1,33.31,0,33.41,47.87,0,48.16Zm0-11.77h19.17c16.37,0,16.27-24.13,0-24.13H246.31Z" transform="translate(-233.53 -213.66)"/>
    <path class="cls-2" fill="url(#linear-gradient)" d="M351.66,693.81H300.92V625.7h50.74v12.45H313.61v15.67h36.7v12h-36.7v15.37h38.05Z" transform="translate(-233.53 -213.66)"/>
    <path class="cls-2" fill="url(#linear-gradient)" d="M416.05,693.81H365.31V625.7h50.74v12.45H378v15.67h36.69v12H378v15.37h38.05Z" transform="translate(-233.53 -213.66)"/>
    <path class="cls-2" fill="url(#linear-gradient)" d="M489.74,693.81H475.11L455.46,671h-13v22.77H429.7V625.6c10.75,0,21.5.1,32.25.1,16,.09,24.4,10.8,24.4,22.57,0,9.34-4.26,18.78-17.14,21.41l20.53,23.25Zm-47.26-56.15v21.8H462c8.13,0,11.62-5.45,11.62-10.9S470,637.66,462,637.66Z" transform="translate(-233.53 -213.66)"/>
    <path class="cls-2" fill="url(#linear-gradient)" d="M507,670.26v23.55h-5.23V625.7h29.73c29.43,0,29.43,44.56,0,44.56Zm0-39.7v34.93h24.5c22.56,0,22.56-34.93,0-34.93Z" transform="translate(-233.53 -213.66)"/>
    <path class="cls-2" fill="url(#linear-gradient)" d="M571.84,625.7v63.15H610v5H566.61V625.7Z" transform="translate(-233.53 -213.66)"/>
    <path class="cls-2" fill="url(#linear-gradient)" d="M675.06,693.81l-7.45-16.74H627.13l-7.36,16.74h-5.61l30.4-68.11h5.71l30.41,68.11Zm-9.49-21.6-18.2-41.45-18.21,41.45Z" transform="translate(-233.53 -213.66)"/>
    <path class="cls-2" fill="url(#linear-gradient)" d="M706.05,666.56l-26.44-40.77v-.09h6.1l22.95,35.8,23.05-35.8h6.1v.09l-26.53,40.77v27.25h-5.23Z" transform="translate(-233.53 -213.66)"/>
    <path class="cls-2" fill="url(#linear-gradient)" d="M791,638.83c-4.94-8-12.88-9.14-20.53-9.24-7.94,0-20.53,2.92-20.53,13.82,0,8.66,9.3,10.7,20.72,12.84,13.07,2.53,26.63,4.87,26.63,19.56-.1,15.37-15.49,19.07-26.82,19.07-10.56,0-22.56-4.38-27.79-14.79l4.64-2.34c4.17,8.28,14.82,12.36,23.15,12.36S792,687.78,792,675.71c.1-10.22-11.13-12.45-22.27-14.59-12.39-2.44-25.08-5-25.08-17.52-.29-14.4,14.62-18.88,25.76-18.88,9.68,0,18.1,1.56,24.79,11.58Z" transform="translate(-233.53 -213.66)"/>
    <path class="cls-2" fill="url(#linear-gradient)" d="M246.31,673.76v20H233.53V625.7c10.55,0,21.4-.1,32-.1,33.31,0,33.41,47.87,0,48.16Zm0-11.77h19.17c16.37,0,16.27-24.13,0-24.13H246.31Z" transform="translate(-233.53 -213.66)"/>
    <path class="cls-2" fill="url(#linear-gradient)" d="M351.66,693.81H300.92V625.7h50.74v12.45H313.61v15.67h36.7v12h-36.7v15.37h38.05Z" transform="translate(-233.53 -213.66)"/>
    <path class="cls-2" fill="url(#linear-gradient)" d="M416.05,693.81H365.31V625.7h50.74v12.45H378v15.67h36.69v12H378v15.37h38.05Z" transform="translate(-233.53 -213.66)"/>
    <path class="cls-2" fill="url(#linear-gradient)" d="M489.74,693.81H475.11L455.46,671h-13v22.77H429.7V625.6c10.75,0,21.5.1,32.25.1,16,.09,24.4,10.8,24.4,22.57,0,9.34-4.26,18.78-17.14,21.41l20.53,23.25Zm-47.26-56.15v21.8H462c8.13,0,11.62-5.45,11.62-10.9S470,637.66,462,637.66Z" transform="translate(-233.53 -213.66)"/>
    <path class="cls-2" fill="url(#linear-gradient)" d="M507,670.26v23.55h-5.23V625.7h29.73c29.43,0,29.43,44.56,0,44.56Zm0-39.7v34.93h24.5c22.56,0,22.56-34.93,0-34.93Z" transform="translate(-233.53 -213.66)"/>
    <path class="cls-2" fill="url(#linear-gradient)" d="M571.84,625.7v63.15H610v5H566.61V625.7Z" transform="translate(-233.53 -213.66)"/>
    <path class="cls-2" fill="url(#linear-gradient)" d="M675.06,693.81l-7.45-16.74H627.13l-7.36,16.74h-5.61l30.4-68.11h5.71l30.41,68.11Zm-9.49-21.6-18.2-41.45-18.21,41.45Z" transform="translate(-233.53 -213.66)"/>
    <path class="cls-2" fill="url(#linear-gradient)" d="M706.05,666.56l-26.44-40.77v-.09h6.1l22.95,35.8,23.05-35.8h6.1v.09l-26.53,40.77v27.25h-5.23Z" transform="translate(-233.53 -213.66)"/>
    <path class="cls-2" fill="url(#linear-gradient)" d="M791,638.83c-4.94-8-12.88-9.14-20.53-9.24-7.94,0-20.53,2.92-20.53,13.82,0,8.66,9.3,10.7,20.72,12.84,13.07,2.53,26.63,4.87,26.63,19.56-.1,15.37-15.49,19.07-26.82,19.07-10.56,0-22.56-4.38-27.79-14.79l4.64-2.34c4.17,8.28,14.82,12.36,23.15,12.36S792,687.78,792,675.71c.1-10.22-11.13-12.45-22.27-14.59-12.39-2.44-25.08-5-25.08-17.52-.29-14.4,14.62-18.88,25.76-18.88,9.68,0,18.1,1.56,24.79,11.58Z" transform="translate(-233.53 -213.66)"/>
    <polygon class="cls-3" fill="#fb7a14" points="168.67 0.02 362.77 0 378.32 26.93 306.01 152.62 220.05 152.62 142.07 288.16 116.62 244.11 195.02 106.97 279.64 106.97 314.9 45.67 195.59 45.67 99.09 212.95 72.47 167.6 168.67 0.02"/>
    <polygon class="cls-4" fill="#0148be" points="363.27 334.89 169.17 334.9 158.82 316.82 237.37 179.84 320.48 179.84 393.19 53.24 417.86 95.44 343.2 225.93 263.99 225.93 226.99 289.56 336.71 289.56 432.85 121.96 459.47 167.3 363.27 334.89"/>
</svg>