<?xml version="1.0" encoding="UTF-8"?>
<!DOCTYPE svg PUBLIC "-//W3C//DTD SVG 1.1//EN" "http://www.w3.org/Graphics/SVG/1.1/DTD/svg11.dtd">
<svg xmlns="http://www.w3.org/2000/svg" version="1.1" width="1000px" height="100px" style="shape-rendering:geometricPrecision; text-rendering:geometricPrecision; image-rendering:optimizeQuality; fill-rule:evenodd; clip-rule:evenodd" xmlns:xlink="http://www.w3.org/1999/xlink">
<g><path style="opacity:0.93" fill="#000000" d="M 179.5,-0.5 C 181.833,-0.5 184.167,-0.5 186.5,-0.5C 187.568,0.434475 188.901,0.767809 190.5,0.5C 191.209,1.40397 192.209,1.73731 193.5,1.5C 194.568,2.43448 195.901,2.76781 197.5,2.5C 198.209,3.40397 199.209,3.73731 200.5,3.5C 206.231,5.76871 212.231,7.43537 218.5,8.5C 220.386,9.06517 222.053,10.0652 223.5,11.5C 216.629,13.2122 209.963,15.2122 203.5,17.5C 199.521,17.7424 195.854,18.7424 192.5,20.5C 190.901,20.2322 189.568,20.5655 188.5,21.5C 186.901,21.2322 185.568,21.5655 184.5,22.5C 182.901,22.2322 181.568,22.5655 180.5,23.5C 177.848,23.4095 175.515,24.0762 173.5,25.5C 171.901,25.2322 170.568,25.5655 169.5,26.5C 167.901,26.2322 166.568,26.5655 165.5,27.5C 161.521,27.7424 157.854,28.7424 154.5,30.5C 143.833,31.5 143.833,32.5 154.5,33.5C 156.515,34.9238 158.848,35.5905 161.5,35.5C 162.568,36.4345 163.901,36.7678 165.5,36.5C 167.515,37.9238 169.848,38.5905 172.5,38.5C 173.568,39.4345 174.901,39.7678 176.5,39.5C 178.349,40.8366 180.516,41.5033 183,41.5C 189.383,40.1983 195.549,38.5316 201.5,36.5C 204.152,36.5905 206.485,35.9238 208.5,34.5C 219.139,32.5911 229.472,29.9245 239.5,26.5C 241.099,26.7678 242.432,26.4345 243.5,25.5C 246.152,25.5905 248.485,24.9238 250.5,23.5C 253.428,23.4349 256.095,22.7682 258.5,21.5C 261.167,21.5 263.833,21.5 266.5,21.5C 269.907,23.0743 273.573,24.0743 277.5,24.5C 282.278,26.2795 287.278,27.6128 292.5,28.5C 293.568,29.4345 294.901,29.7678 296.5,29.5C 298.042,30.1635 299.709,30.8302 301.5,31.5C 299.556,32.8007 297.556,33.8007 295.5,34.5C 289.231,35.5646 283.231,37.2313 277.5,39.5C 275.901,39.2322 274.568,39.5655 273.5,40.5C 270.848,40.4095 268.515,41.0762 266.5,42.5C 264.901,42.2322 263.568,42.5655 262.5,43.5C 259.848,43.4095 257.515,44.0762 255.5,45.5C 252.848,45.4095 250.515,46.0762 248.5,47.5C 246.901,47.2322 245.568,47.5655 244.5,48.5C 242.901,48.2322 241.568,48.5655 240.5,49.5C 239.209,49.2627 238.209,49.596 237.5,50.5C 235.901,50.2322 234.568,50.5655 233.5,51.5C 231.901,51.2322 230.568,51.5655 229.5,52.5C 226.848,52.4095 224.515,53.0762 222.5,54.5C 218.521,54.7424 214.854,55.7424 211.5,57.5C 208.848,57.4095 206.515,58.0762 204.5,59.5C 202.901,59.2322 201.568,59.5655 200.5,60.5C 198.901,60.2322 197.568,60.5655 196.5,61.5C 195.209,61.2627 194.209,61.596 193.5,62.5C 191.901,62.2322 190.568,62.5655 189.5,63.5C 186.193,64.0508 182.86,64.3841 179.5,64.5C 178.791,63.596 177.791,63.2627 176.5,63.5C 174.095,62.2318 171.428,61.5651 168.5,61.5C 166.485,60.0762 164.152,59.4095 161.5,59.5C 160.432,58.5655 159.099,58.2322 157.5,58.5C 155.485,57.0762 153.152,56.4095 150.5,56.5C 149.432,55.5655 148.099,55.2322 146.5,55.5C 145.791,54.596 144.791,54.2627 143.5,54.5C 139.761,52.8984 135.761,51.8984 131.5,51.5C 130.791,50.596 129.791,50.2627 128.5,50.5C 127.432,49.5655 126.099,49.2322 124.5,49.5C 122.485,48.0762 120.152,47.4095 117.5,47.5C 116.432,46.5655 115.099,46.2322 113.5,46.5C 112.791,45.596 111.791,45.2627 110.5,45.5C 109.432,44.5655 108.099,44.2322 106.5,44.5C 104.485,43.0762 102.152,42.4095 99.5,42.5C 98.4324,41.5655 97.099,41.2322 95.5,41.5C 93.4855,40.0762 91.1522,39.4095 88.5,39.5C 80.8199,36.951 72.9865,34.6177 65,32.5C 64.8333,32.1667 64.6667,31.8333 64.5,31.5C 70.0394,30.1218 75.3728,28.4551 80.5,26.5C 81.791,26.7373 82.791,26.404 83.5,25.5C 88.8094,24.9244 93.8094,23.591 98.5,21.5C 100.099,21.7678 101.432,21.4345 102.5,20.5C 106.427,20.0743 110.093,19.0743 113.5,17.5C 114.791,17.7373 115.791,17.404 116.5,16.5C 130.476,13.5911 144.143,9.92444 157.5,5.5C 158.791,5.73731 159.791,5.40397 160.5,4.5C 167.09,3.40754 173.423,1.74088 179.5,-0.5 Z M 180.5,23.5 C 179.5,24.1667 178.5,24.8333 177.5,25.5C 176.167,25.5 174.833,25.5 173.5,25.5C 175.515,24.0762 177.848,23.4095 180.5,23.5 Z M 250.5,23.5 C 248.485,24.9238 246.152,25.5905 243.5,25.5C 243.5,25.1667 243.5,24.8333 243.5,24.5C 245.806,24.0074 248.139,23.6741 250.5,23.5 Z M 165.5,27.5 C 162.146,29.2576 158.479,30.2576 154.5,30.5C 157.854,28.7424 161.521,27.7424 165.5,27.5 Z M 154.5,33.5 C 157.152,33.4095 159.485,34.0762 161.5,35.5C 158.848,35.5905 156.515,34.9238 154.5,33.5 Z M 208.5,34.5 C 206.485,35.9238 204.152,36.5905 201.5,36.5C 203.515,35.0762 205.848,34.4095 208.5,34.5 Z M 165.5,36.5 C 167.861,36.6741 170.194,37.0074 172.5,37.5C 172.5,37.8333 172.5,38.1667 172.5,38.5C 169.848,38.5905 167.515,37.9238 165.5,36.5 Z"/></g>
<g><path style="opacity:0.01" fill="#000000" d="M 190.5,0.5 C 190.5,0.166667 190.5,-0.166667 190.5,-0.5C 191.833,-0.5 193.167,-0.5 194.5,-0.5C 195.5,0.166667 196.5,0.833333 197.5,1.5C 196.167,1.5 194.833,1.5 193.5,1.5C 192.791,0.596028 191.791,0.262695 190.5,0.5 Z"/></g>
<g><path style="opacity:0.01" fill="#000000" d="M 197.5,2.5 C 197.5,2.16667 197.5,1.83333 197.5,1.5C 199.927,1.52304 202.26,2.02304 204.5,3C 203.207,3.49001 201.873,3.65668 200.5,3.5C 199.791,2.59603 198.791,2.26269 197.5,2.5 Z"/></g>
<g><path style="opacity:0.011" fill="#000000" d="M 160.5,4.5 C 159.209,4.26269 158.209,4.59603 157.5,5.5C 152.589,5.16427 152.923,4.49761 158.5,3.5C 159.416,3.54272 160.083,3.87605 160.5,4.5 Z"/></g>
<g><path style="opacity:0.009" fill="#000000" d="M 218.5,8.5 C 217.737,7.73209 216.737,7.23209 215.5,7C 217.913,6.51617 220.246,6.8495 222.5,8C 221.207,8.49001 219.873,8.65668 218.5,8.5 Z"/></g>
<g><path style="opacity:0.01" fill="#000000" d="M 116.5,16.5 C 115.209,16.2627 114.209,16.596 113.5,17.5C 108.589,17.1643 108.923,16.4976 114.5,15.5C 115.416,15.5427 116.083,15.8761 116.5,16.5 Z"/></g>
<g><path style="opacity:0.01" fill="#000000" d="M 203.5,17.5 C 208.411,17.8357 208.077,18.5024 202.5,19.5C 201.833,19.3333 201.167,19.1667 200.5,19C 201.737,18.7679 202.737,18.2679 203.5,17.5 Z"/></g>
<g><path style="opacity:0.01" fill="#000000" d="M 102.5,20.5 C 100.901,20.2322 99.5676,20.5655 98.5,21.5C 94.1074,21.5432 93.7741,21.0432 97.5,20C 99.3869,19.2204 101.054,19.3871 102.5,20.5 Z"/></g>
<g><path style="opacity:0.012" fill="#000000" d="M 196.5,20.5 C 197.251,19.4265 198.251,19.2599 199.5,20C 198.552,20.4828 197.552,20.6495 196.5,20.5 Z"/></g>
<g><path style="opacity:0.01" fill="#000000" d="M 266.5,21.5 C 263.833,20.1667 261.167,20.1667 258.5,21.5C 257.127,21.6567 255.793,21.49 254.5,21C 259.833,19 265.167,19 270.5,21C 269.207,21.49 267.873,21.6567 266.5,21.5 Z"/></g>
<g><path style="opacity:0.011" fill="#000000" d="M 192.5,21.5 C 192.5,21.1667 192.5,20.8333 192.5,20.5C 193.833,20.5 195.167,20.5 196.5,20.5C 195.432,21.4345 194.099,21.7678 192.5,21.5 Z"/></g>
<g><path style="opacity:0.01" fill="#000000" d="M 188.5,22.5 C 188.5,22.1667 188.5,21.8333 188.5,21.5C 189.833,21.5 191.167,21.5 192.5,21.5C 191.432,22.4345 190.099,22.7678 188.5,22.5 Z"/></g>
<g><path style="opacity:0.011" fill="#000000" d="M 184.5,23.5 C 184.5,23.1667 184.5,22.8333 184.5,22.5C 185.833,22.5 187.167,22.5 188.5,22.5C 187.432,23.4345 186.099,23.7678 184.5,23.5 Z"/></g>
<g><path style="opacity:0.01" fill="#000000" d="M 277.5,24.5 C 276.737,23.7321 275.737,23.2321 274.5,23C 276.913,22.5162 279.246,22.8495 281.5,24C 280.207,24.49 278.873,24.6567 277.5,24.5 Z"/></g>
<g><path style="opacity:0.01" fill="#000000" d="M 180.5,23.5 C 181.833,23.5 183.167,23.5 184.5,23.5C 182.485,24.9238 180.152,25.5905 177.5,25.5C 178.5,24.8333 179.5,24.1667 180.5,23.5 Z"/></g>
<g><path style="opacity:0.01" fill="#000000" d="M 83.5,25.5 C 82.209,25.2627 81.209,25.596 80.5,26.5C 75.5894,26.1643 75.9228,25.4976 81.5,24.5C 82.4164,24.5427 83.0831,24.8761 83.5,25.5 Z"/></g>
<g><path style="opacity:0.009" fill="#000000" d="M 243.5,24.5 C 243.5,24.8333 243.5,25.1667 243.5,25.5C 241.901,25.2322 240.568,25.5655 239.5,26.5C 238.127,26.6567 236.793,26.49 235.5,26C 238.063,24.9207 240.729,24.4207 243.5,24.5 Z"/></g>
<g><path style="opacity:0.01" fill="#000000" d="M 908.5,24.5 C 927.182,24.4004 945.849,24.9004 964.5,26C 942.333,25.3926 920.166,25.5593 898,26.5C 893.833,26.3333 889.667,26.1667 885.5,26C 893.344,25.829 901.011,25.329 908.5,24.5 Z"/></g>
<g><path style="opacity:0.019" fill="#000000" d="M 487.5,26.5 C 504.662,25.3382 521.995,25.1715 539.5,26C 522.17,26.4999 504.837,26.6666 487.5,26.5 Z"/></g>
<g><path style="opacity:0.019" fill="#000000" d="M 657.5,26.5 C 674.995,25.3381 692.662,25.1714 710.5,26C 692.836,26.4999 675.17,26.6666 657.5,26.5 Z"/></g>
<g><path style="opacity:0.011" fill="#000000" d="M 169.5,26.5 C 170.873,26.3433 172.207,26.51 173.5,27C 171.934,27.765 170.601,27.5983 169.5,26.5 Z"/></g>
<g><path style="opacity:0.01" fill="#000000" d="M 296.5,28.5 C 295.167,28.5 293.833,28.5 292.5,28.5C 291.737,27.7321 290.737,27.2321 289.5,27C 292.139,26.4119 294.473,26.9119 296.5,28.5 Z"/></g>
<g><path style="opacity:0.004" fill="#000000" d="M 540.5,26.5 C 541.833,27.1667 541.833,27.1667 540.5,26.5 Z"/></g>
<g><path style="opacity:0.004" fill="#000000" d="M 657.5,26.5 C 657.5,26.8333 657.5,27.1667 657.5,27.5C 656.83,27.0187 656.83,26.6853 657.5,26.5 Z"/></g>
<g><path style="opacity:0.012" fill="#000000" d="M 884.5,27.5 C 876.49,27.6436 868.49,27.9769 860.5,28.5C 868.45,26.5027 876.45,26.1694 884.5,27.5 Z"/></g>
<g><path style="opacity:0.888" fill="#000000" d="M 965.5,27.5 C 975.088,28.3839 984.755,29.7172 994.5,31.5C 991.496,32.9891 988.496,34.3224 985.5,35.5C 984.209,35.2627 983.209,35.596 982.5,36.5C 978.838,36.7234 975.505,37.7234 972.5,39.5C 942.314,35.195 912.314,35.5284 882.5,40.5C 880.901,40.2322 879.568,40.5655 878.5,41.5C 876.901,41.2322 875.568,41.5655 874.5,42.5C 873.508,42.3284 872.842,42.6618 872.5,43.5C 870.589,43.5743 869.422,44.5743 869,46.5C 867.982,45.2941 867.482,45.6274 867.5,47.5C 867.747,48.7133 868.414,49.38 869.5,49.5C 869.577,50.7498 870.244,51.5831 871.5,52C 874.72,53.3524 878.053,54.1857 881.5,54.5C 882.919,55.4511 884.585,55.7845 886.5,55.5C 892.279,56.8958 898.279,57.7291 904.5,58C 913.667,58.1667 922.833,58.3333 932,58.5C 945.369,58.6894 958.535,58.0227 971.5,56.5C 975.167,56.5 978.833,56.5 982.5,56.5C 983.209,57.404 984.209,57.7373 985.5,57.5C 988.797,59.6013 992.463,60.9347 996.5,61.5C 997.209,62.404 998.209,62.7373 999.5,62.5C 999.5,63.1667 999.5,63.8333 999.5,64.5C 997.585,64.2155 995.919,64.5489 994.5,65.5C 991.615,65.1936 988.948,65.5269 986.5,66.5C 982.629,66.185 978.962,66.5184 975.5,67.5C 935.785,69.2941 896.118,68.6275 856.5,65.5C 854.393,64.5318 852.059,64.1984 849.5,64.5C 847.735,63.5386 845.735,63.2053 843.5,63.5C 839.058,62.0099 834.391,61.0099 829.5,60.5C 828.791,59.596 827.791,59.2627 826.5,59.5C 825.791,58.596 824.791,58.2627 823.5,58.5C 823.158,57.6618 822.492,57.3284 821.5,57.5C 819.151,55.659 816.485,54.3257 813.5,53.5C 810.687,49.4027 810.853,45.4027 814,41.5C 822.313,37.8938 831.146,34.8938 840.5,32.5C 842.735,32.7947 844.735,32.4614 846.5,31.5C 848.735,31.7947 850.735,31.4614 852.5,30.5C 855.385,30.8064 858.052,30.4731 860.5,29.5C 868.693,29.3836 876.693,28.7169 884.5,27.5C 911.501,26.2246 938.501,26.2246 965.5,27.5 Z"/></g>
<g><path style="opacity:0.012" fill="#000000" d="M 965.5,27.5 C 972.7,26.2949 980.033,26.4616 987.5,28C 980.186,27.8833 972.853,27.7167 965.5,27.5 Z"/></g>
<g><path style="opacity:0.892" fill="#000000" d="M 628.5,58.5 C 628.5,61.8333 628.5,65.1667 628.5,68.5C 581.167,68.5 533.833,68.5 486.5,68.5C 486.5,54.8333 486.5,41.1667 486.5,27.5C 504.167,27.5 521.833,27.5 539.5,27.5C 539.549,37.8762 539.549,48.0429 539.5,58C 569.165,58.5 598.831,58.6666 628.5,58.5 Z"/></g>
<g><path style="opacity:0.881" fill="#000000" d="M 657.5,27.5 C 675.5,27.5 693.5,27.5 711.5,27.5C 711.819,37.7491 711.486,47.9158 710.5,58C 740.498,58.5 770.498,58.6666 800.5,58.5C 800.784,61.7766 800.451,64.9433 799.5,68C 752.168,68.5 704.835,68.6667 657.5,68.5C 657.5,54.8333 657.5,41.1667 657.5,27.5 Z"/></g>
<g><path style="opacity:0.009" fill="#000000" d="M 223.5,29.5 C 224.601,28.4017 225.934,28.235 227.5,29C 226.207,29.49 224.873,29.6567 223.5,29.5 Z"/></g>
<g><path style="opacity:0.011" fill="#000000" d="M 296.5,29.5 C 296.5,29.1667 296.5,28.8333 296.5,28.5C 301.833,28.8333 301.833,29.1667 296.5,29.5 Z"/></g>
<g><path style="opacity:0.012" fill="#000000" d="M 860.5,28.5 C 860.5,28.8333 860.5,29.1667 860.5,29.5C 857.615,29.1936 854.948,29.5269 852.5,30.5C 850.5,30.5 848.5,30.5 846.5,30.5C 850.9,28.8958 855.566,28.2291 860.5,28.5 Z"/></g>
<g><path style="opacity:0.012" fill="#000000" d="M 223.5,29.5 C 222.749,30.5735 221.749,30.7401 220.5,30C 221.448,29.5172 222.448,29.3505 223.5,29.5 Z"/></g>
<g><path style="opacity:0.01" fill="#000000" d="M 846.5,30.5 C 846.5,30.8333 846.5,31.1667 846.5,31.5C 844.265,31.2053 842.265,31.5386 840.5,32.5C 838.801,32.6602 837.134,32.4935 835.5,32C 839.086,30.8924 842.753,30.3924 846.5,30.5 Z"/></g>
<g><path style="opacity:0.01" fill="#000000" d="M 66.5,35.5 C 67.2506,34.4265 68.2506,34.2599 69.5,35C 68.552,35.4828 67.552,35.6495 66.5,35.5 Z"/></g>
<g><path style="opacity:0.009" fill="#000000" d="M 295.5,34.5 C 300.411,34.8357 300.077,35.5024 294.5,36.5C 293.833,36.3333 293.167,36.1667 292.5,36C 293.737,35.7679 294.737,35.2679 295.5,34.5 Z"/></g>
<g><path style="opacity:0.014" fill="#000000" d="M 825.5,35.5 C 825.897,34.475 826.563,34.3083 827.5,35C 826.906,35.4643 826.239,35.631 825.5,35.5 Z"/></g>
<g><path style="opacity:0.008" fill="#000000" d="M 41.5,36.5 C 39.9317,37.4731 38.265,37.6397 36.5,37C 37.8721,36.5983 39.2054,36.0983 40.5,35.5C 41.1067,35.6236 41.44,35.9569 41.5,36.5 Z"/></g>
<g><path style="opacity:0.008" fill="#000000" d="M 821.5,36.5 C 822.251,35.4265 823.251,35.2599 824.5,36C 823.552,36.4828 822.552,36.6495 821.5,36.5 Z"/></g>
<g><path style="opacity:0.009" fill="#000000" d="M 985.5,35.5 C 990.411,35.8357 990.077,36.5024 984.5,37.5C 983.584,37.4573 982.917,37.1239 982.5,36.5C 983.791,36.7373 984.791,36.404 985.5,35.5 Z"/></g>
<g><path style="opacity:0.01" fill="#000000" d="M 41.5,36.5 C 42.791,36.2627 43.791,36.596 44.5,37.5C 43.209,37.7373 42.209,37.404 41.5,36.5 Z"/></g>
<g><path style="opacity:0.01" fill="#000000" d="M 821.5,36.5 C 821.103,37.525 820.437,37.6917 819.5,37C 820.094,36.5357 820.761,36.369 821.5,36.5 Z"/></g>
<g><path style="opacity:0.011" fill="#000000" d="M 32.5,39.5 C 30.6526,39.7658 29.986,39.4325 30.5,38.5C 32.0983,37.5153 33.765,37.3486 35.5,38C 34.2625,38.2321 33.2625,38.7321 32.5,39.5 Z"/></g>
<g><path style="opacity:0.009" fill="#000000" d="M 44.5,38.5 C 44.5,38.1667 44.5,37.8333 44.5,37.5C 47.4951,37.2938 50.1617,37.9605 52.5,39.5C 51.1667,39.5 49.8333,39.5 48.5,39.5C 47.4324,38.5655 46.099,38.2322 44.5,38.5 Z"/></g>
<g><path style="opacity:0.009" fill="#000000" d="M 172.5,38.5 C 172.5,38.1667 172.5,37.8333 172.5,37.5C 174.989,37.2978 177.323,37.7978 179.5,39C 178.552,39.4828 177.552,39.6495 176.5,39.5C 175.432,38.5655 174.099,38.2322 172.5,38.5 Z"/></g>
<g><path style="opacity:0.009" fill="#000000" d="M 322.5,38.5 C 321.209,38.2627 320.209,38.596 319.5,39.5C 314.589,39.1643 314.923,38.4976 320.5,37.5C 321.416,37.5427 322.083,37.8761 322.5,38.5 Z"/></g>
<g><path style="opacity:0.011" fill="#000000" d="M 913.5,37.5 C 928.851,37.4292 944.184,37.9292 959.5,39C 942.163,38.5159 924.83,38.6825 907.5,39.5C 904.167,39.3333 900.833,39.1667 897.5,39C 903.016,38.8267 908.349,38.3267 913.5,37.5 Z"/></g>
<g><path style="opacity:0.931" fill="#000000" d="M 44.5,38.5 C 45.5676,39.4345 46.901,39.7678 48.5,39.5C 49.5676,40.4345 50.901,40.7678 52.5,40.5C 53.209,41.404 54.209,41.7373 55.5,41.5C 56.5676,42.4345 57.901,42.7678 59.5,42.5C 61.5145,43.9238 63.8478,44.5905 66.5,44.5C 67.209,45.404 68.209,45.7373 69.5,45.5C 70.5676,46.4345 71.901,46.7678 73.5,46.5C 74.5676,47.4345 75.901,47.7678 77.5,47.5C 78.209,48.404 79.209,48.7373 80.5,48.5C 81.5676,49.4345 82.901,49.7678 84.5,49.5C 86.5145,50.9238 88.8478,51.5905 91.5,51.5C 94.9065,53.0743 98.5732,54.0743 102.5,54.5C 104.515,55.9238 106.848,56.5905 109.5,56.5C 110.568,57.4345 111.901,57.7678 113.5,57.5C 115.515,58.9238 117.848,59.5905 120.5,59.5C 122.515,60.9238 124.848,61.5905 127.5,61.5C 128.568,62.4345 129.901,62.7678 131.5,62.5C 132.209,63.404 133.209,63.7373 134.5,63.5C 135.568,64.4345 136.901,64.7678 138.5,64.5C 140.515,65.9238 142.848,66.5905 145.5,66.5C 146.568,67.4345 147.901,67.7678 149.5,67.5C 151.515,68.9238 153.848,69.5905 156.5,69.5C 159.907,71.0743 163.573,72.0743 167.5,72.5C 170.854,74.2576 174.521,75.2576 178.5,75.5C 179.209,76.404 180.209,76.7373 181.5,76.5C 183.598,77.4845 185.598,77.1511 187.5,75.5C 189.099,75.7678 190.432,75.4345 191.5,74.5C 194.152,74.5905 196.485,73.9238 198.5,72.5C 200.099,72.7678 201.432,72.4345 202.5,71.5C 205.152,71.5905 207.485,70.9238 209.5,69.5C 211.099,69.7678 212.432,69.4345 213.5,68.5C 216.152,68.5905 218.485,67.9238 220.5,66.5C 222.099,66.7678 223.432,66.4345 224.5,65.5C 227.152,65.5905 229.485,64.9238 231.5,63.5C 233.099,63.7678 234.432,63.4345 235.5,62.5C 238.152,62.5905 240.485,61.9238 242.5,60.5C 246.479,60.2576 250.146,59.2576 253.5,57.5C 261.101,56.102 268.434,54.102 275.5,51.5C 278.152,51.5905 280.485,50.9238 282.5,49.5C 284.099,49.7678 285.432,49.4345 286.5,48.5C 291.722,47.6128 296.722,46.2795 301.5,44.5C 302.791,44.7373 303.791,44.404 304.5,43.5C 306.099,43.7678 307.432,43.4345 308.5,42.5C 311.152,42.5905 313.485,41.9238 315.5,40.5C 317.099,40.7678 318.432,40.4345 319.5,39.5C 320.791,39.7373 321.791,39.404 322.5,38.5C 327.9,39.1836 333.233,40.1836 338.5,41.5C 340.515,42.9238 342.848,43.5905 345.5,43.5C 351.526,45.9244 357.859,47.5911 364.5,48.5C 364.5,49.1667 364.5,49.8333 364.5,50.5C 363.508,50.3284 362.842,50.6618 362.5,51.5C 360.901,51.2322 359.568,51.5655 358.5,52.5C 347.189,54.7423 336.189,57.7423 325.5,61.5C 323.901,61.2322 322.568,61.5655 321.5,62.5C 320.209,62.2627 319.209,62.596 318.5,63.5C 316.901,63.2322 315.568,63.5655 314.5,64.5C 312.901,64.2322 311.568,64.5655 310.5,65.5C 309.209,65.2627 308.209,65.596 307.5,66.5C 302.191,67.0756 297.191,68.409 292.5,70.5C 281.24,72.9256 270.24,75.9256 259.5,79.5C 255.573,79.9257 251.907,80.9257 248.5,82.5C 247.209,82.2627 246.209,82.596 245.5,83.5C 236.518,85.0559 227.851,87.3892 219.5,90.5C 217.901,90.2322 216.568,90.5655 215.5,91.5C 214.209,91.2627 213.209,91.596 212.5,92.5C 207.191,93.0756 202.191,94.409 197.5,96.5C 193.573,96.9257 189.907,97.9257 186.5,99.5C 183.833,99.5 181.167,99.5 178.5,99.5C 119.093,82.5923 59.4264,66.2589 -0.5,50.5C -0.5,49.8333 -0.5,49.1667 -0.5,48.5C 10.7595,46.0744 21.7595,43.0744 32.5,39.5C 36.4659,38.8379 40.4659,38.5045 44.5,38.5 Z M 88.5,39.5 C 91.1522,39.4095 93.4855,40.0762 95.5,41.5C 94.1667,41.5 92.8333,41.5 91.5,41.5C 90.5,40.8333 89.5,40.1667 88.5,39.5 Z M 273.5,40.5 C 271.485,41.9238 269.152,42.5905 266.5,42.5C 268.515,41.0762 270.848,40.4095 273.5,40.5 Z M 315.5,40.5 C 313.485,41.9238 311.152,42.5905 308.5,42.5C 310.515,41.0762 312.848,40.4095 315.5,40.5 Z M 59.5,42.5 C 62.1522,42.4095 64.4855,43.0762 66.5,44.5C 63.8478,44.5905 61.5145,43.9238 59.5,42.5 Z M 99.5,42.5 C 102.152,42.4095 104.485,43.0762 106.5,44.5C 103.848,44.5905 101.515,43.9238 99.5,42.5 Z M 262.5,43.5 C 261.5,44.1667 260.5,44.8333 259.5,45.5C 258.167,45.5 256.833,45.5 255.5,45.5C 257.515,44.0762 259.848,43.4095 262.5,43.5 Z M 255.5,45.5 C 253.485,46.9238 251.152,47.5905 248.5,47.5C 250.515,46.0762 252.848,45.4095 255.5,45.5 Z M 117.5,47.5 C 120.152,47.4095 122.485,48.0762 124.5,49.5C 121.848,49.5905 119.515,48.9238 117.5,47.5 Z M 84.5,49.5 C 87.1522,49.4095 89.4855,50.0762 91.5,51.5C 88.8478,51.5905 86.5145,50.9238 84.5,49.5 Z M 282.5,49.5 C 280.485,50.9238 278.152,51.5905 275.5,51.5C 277.515,50.0762 279.848,49.4095 282.5,49.5 Z M 229.5,52.5 C 228.5,53.1667 227.5,53.8333 226.5,54.5C 225.167,54.5 223.833,54.5 222.5,54.5C 224.515,53.0762 226.848,52.4095 229.5,52.5 Z M 102.5,54.5 C 105.152,54.4095 107.485,55.0762 109.5,56.5C 106.848,56.5905 104.515,55.9238 102.5,54.5 Z M 222.5,54.5 C 220.221,55.6515 217.888,56.6515 215.5,57.5C 214.167,57.5 212.833,57.5 211.5,57.5C 214.854,55.7424 218.521,54.7424 222.5,54.5 Z M 150.5,56.5 C 153.152,56.4095 155.485,57.0762 157.5,58.5C 154.848,58.5905 152.515,57.9238 150.5,56.5 Z M 211.5,57.5 C 210.5,58.1667 209.5,58.8333 208.5,59.5C 207.167,59.5 205.833,59.5 204.5,59.5C 206.515,58.0762 208.848,57.4095 211.5,57.5 Z M 253.5,57.5 C 250.146,59.2576 246.479,60.2576 242.5,60.5C 245.854,58.7424 249.521,57.7424 253.5,57.5 Z M 161.5,59.5 C 164.152,59.4095 166.485,60.0762 168.5,61.5C 167.167,61.5 165.833,61.5 164.5,61.5C 163.5,60.8333 162.5,60.1667 161.5,59.5 Z M 242.5,60.5 C 240.485,61.9238 238.152,62.5905 235.5,62.5C 237.515,61.0762 239.848,60.4095 242.5,60.5 Z M 189.5,63.5 C 188.5,64.1667 187.5,64.8333 186.5,65.5C 184.167,65.5 181.833,65.5 179.5,65.5C 179.5,65.1667 179.5,64.8333 179.5,64.5C 182.86,64.3841 186.193,64.0508 189.5,63.5 Z M 231.5,63.5 C 229.485,64.9238 227.152,65.5905 224.5,65.5C 226.515,64.0762 228.848,63.4095 231.5,63.5 Z M 138.5,64.5 C 139.833,64.5 141.167,64.5 142.5,64.5C 143.5,65.1667 144.5,65.8333 145.5,66.5C 142.848,66.5905 140.515,65.9238 138.5,64.5 Z M 216.5,66.5 C 217.833,66.5 219.167,66.5 220.5,66.5C 218.485,67.9238 216.152,68.5905 213.5,68.5C 214.5,67.8333 215.5,67.1667 216.5,66.5 Z M 149.5,67.5 C 152.152,67.4095 154.485,68.0762 156.5,69.5C 153.848,69.5905 151.515,68.9238 149.5,67.5 Z M 209.5,69.5 C 207.485,70.9238 205.152,71.5905 202.5,71.5C 204.515,70.0762 206.848,69.4095 209.5,69.5 Z M 167.5,72.5 C 171.479,72.7424 175.146,73.7424 178.5,75.5C 174.521,75.2576 170.854,74.2576 167.5,72.5 Z M 198.5,72.5 C 196.485,73.9238 194.152,74.5905 191.5,74.5C 193.515,73.0762 195.848,72.4095 198.5,72.5 Z M 187.5,75.5 C 185.598,77.1511 183.598,77.4845 181.5,76.5C 183.435,75.8505 185.435,75.5172 187.5,75.5 Z"/></g>
<g><path style="opacity:0.01" fill="#000000" d="M 24.5,40.5 C 25.6009,39.4017 26.9343,39.235 28.5,40C 27.2068,40.49 25.8734,40.6567 24.5,40.5 Z"/></g>
<g><path style="opacity:0.01" fill="#000000" d="M 52.5,40.5 C 52.5,40.1667 52.5,39.8333 52.5,39.5C 54.9267,39.523 57.26,40.023 59.5,41C 58.2068,41.49 56.8734,41.6567 55.5,41.5C 54.791,40.596 53.791,40.2627 52.5,40.5 Z"/></g>
<g><path style="opacity:0.01" fill="#000000" d="M 88.5,39.5 C 89.5,40.1667 90.5,40.8333 91.5,41.5C 89.0733,41.477 86.74,40.977 84.5,40C 85.7932,39.51 87.1266,39.3433 88.5,39.5 Z"/></g>
<g><path style="opacity:0.013" fill="#000000" d="M 180.5,40.5 C 181.946,39.3871 183.613,39.2204 185.5,40C 183.866,40.4935 182.199,40.6602 180.5,40.5 Z"/></g>
<g><path style="opacity:0.011" fill="#000000" d="M 277.5,39.5 C 278.873,39.3433 280.207,39.51 281.5,40C 279.934,40.765 278.601,40.5983 277.5,39.5 Z"/></g>
<g><path style="opacity:0.009" fill="#000000" d="M 342.5,41.5 C 341.167,41.5 339.833,41.5 338.5,41.5C 337.737,40.7321 336.737,40.2321 335.5,40C 338.139,39.4119 340.473,39.9119 342.5,41.5 Z"/></g>
<g><path style="opacity:0.012" fill="#000000" d="M 882.5,41.5 C 882.5,41.1667 882.5,40.8333 882.5,40.5C 901.162,39.5016 901.162,39.835 882.5,41.5 Z"/></g>
<g><path style="opacity:0.01" fill="#000000" d="M 972.5,40.5 C 972.083,41.1239 971.416,41.4573 970.5,41.5C 967.194,40.8367 963.861,40.3367 960.5,40C 964.537,39.3933 968.537,39.56 972.5,40.5 Z"/></g>
<g><path style="opacity:0.012" fill="#000000" d="M 972.5,40.5 C 972.5,40.1667 972.5,39.8333 972.5,39.5C 976.5,39.8333 976.5,40.1667 972.5,40.5 Z"/></g>
<g><path style="opacity:0.013" fill="#000000" d="M 24.5,40.5 C 23.7494,41.5735 22.7494,41.7401 21.5,41C 22.448,40.5172 23.448,40.3505 24.5,40.5 Z"/></g>
<g><path style="opacity:0.01" fill="#000000" d="M 342.5,41.5 C 344.927,41.523 347.26,42.023 349.5,43C 348.207,43.49 346.873,43.6567 345.5,43.5C 344.5,42.8333 343.5,42.1667 342.5,41.5 Z"/></g>
<g><path style="opacity:0.012" fill="#000000" d="M 878.5,42.5 C 878.5,42.1667 878.5,41.8333 878.5,41.5C 879.833,41.5 881.167,41.5 882.5,41.5C 881.432,42.4345 880.099,42.7678 878.5,42.5 Z"/></g>
<g><path style="opacity:0.01" fill="#000000" d="M 304.5,43.5 C 303.209,43.2627 302.209,43.596 301.5,44.5C 296.589,44.1643 296.923,43.4976 302.5,42.5C 303.416,42.5427 304.083,42.8761 304.5,43.5 Z"/></g>
<g><path style="opacity:0.01" fill="#000000" d="M 874.5,43.5 C 874.5,43.1667 874.5,42.8333 874.5,42.5C 875.833,42.5 877.167,42.5 878.5,42.5C 877.432,43.4345 876.099,43.7678 874.5,43.5 Z"/></g>
<g><path style="opacity:0.01" fill="#000000" d="M 262.5,43.5 C 263.873,43.3433 265.207,43.51 266.5,44C 264.26,44.977 261.927,45.477 259.5,45.5C 260.5,44.8333 261.5,44.1667 262.5,43.5 Z"/></g>
<g><path style="opacity:0.012" fill="#000000" d="M 872.5,44.5 C 872.5,44.1667 872.5,43.8333 872.5,43.5C 873.167,43.5 873.833,43.5 874.5,43.5C 874.158,44.3382 873.492,44.6716 872.5,44.5 Z"/></g>
<g><path style="opacity:0.009" fill="#000000" d="M 69.5,45.5 C 72.2933,44.254 74.96,44.5873 77.5,46.5C 76.1667,46.5 74.8333,46.5 73.5,46.5C 72.4324,45.5655 71.099,45.2322 69.5,45.5 Z"/></g>
<g><path style="opacity:0.012" fill="#000000" d="M 872.5,44.5 C 871.833,45.1667 871.833,45.1667 872.5,44.5 Z"/></g>
<g><path style="opacity:0.01" fill="#000000" d="M 110.5,45.5 C 111.209,46.404 112.209,46.7373 113.5,46.5C 111.274,47.559 108.941,47.3923 106.5,46C 107.793,45.51 109.127,45.3433 110.5,45.5 Z"/></g>
<g><path style="opacity:0.01" fill="#000000" d="M -0.5,47.5 C -0.5,47.1667 -0.5,46.8333 -0.5,46.5C 3.5,46.8333 3.5,47.1667 -0.5,47.5 Z"/></g>
<g><path style="opacity:0.01" fill="#000000" d="M 77.5,47.5 C 77.5,47.1667 77.5,46.8333 77.5,46.5C 79.9267,46.523 82.26,47.023 84.5,48C 83.2068,48.49 81.8734,48.6567 80.5,48.5C 79.791,47.596 78.791,47.2627 77.5,47.5 Z"/></g>
<g><path style="opacity:0.009" fill="#000000" d="M 286.5,48.5 C 281.589,48.1643 281.923,47.4976 287.5,46.5C 288.167,46.6667 288.833,46.8333 289.5,47C 288.263,47.2321 287.263,47.7321 286.5,48.5 Z"/></g>
<g><path style="opacity:0.004" fill="#000000" d="M 364.5,47.5 C 365.833,48.1667 365.833,48.1667 364.5,47.5 Z"/></g>
<g><path style="opacity:0.009" fill="#000000" d="M 244.5,48.5 C 245.873,48.3433 247.207,48.51 248.5,49C 245.937,50.0793 243.271,50.5793 240.5,50.5C 240.5,50.1667 240.5,49.8333 240.5,49.5C 242.099,49.7678 243.432,49.4345 244.5,48.5 Z"/></g>
<g><path style="opacity:0.004" fill="#000000" d="M 869.5,48.5 C 870.833,49.1667 870.833,49.1667 869.5,48.5 Z"/></g>
<g><path style="opacity:0.004" fill="#000000" d="M 872.5,50.5 C 871.833,49.1667 871.833,49.1667 872.5,50.5 Z"/></g>
<g><path style="opacity:0.01" fill="#000000" d="M 128.5,50.5 C 129.209,51.404 130.209,51.7373 131.5,51.5C 129.274,52.559 126.941,52.3923 124.5,51C 125.793,50.51 127.127,50.3433 128.5,50.5 Z"/></g>
<g><path style="opacity:0.01" fill="#000000" d="M 237.5,51.5 C 237.5,51.1667 237.5,50.8333 237.5,50.5C 238.5,50.5 239.5,50.5 240.5,50.5C 239.791,51.404 238.791,51.7373 237.5,51.5 Z"/></g>
<g><path style="opacity:0.004" fill="#000000" d="M 364.5,50.5 C 365.833,51.1667 365.833,51.1667 364.5,50.5 Z"/></g>
<g><path style="opacity:0.008" fill="#000000" d="M 872.5,50.5 C 873.239,50.369 873.906,50.5357 874.5,51C 873.563,51.6917 872.897,51.525 872.5,50.5 Z"/></g>
<g><path style="opacity:0.009" fill="#000000" d="M -0.5,52.5 C -0.5,52.1667 -0.5,51.8333 -0.5,51.5C 3.5,51.8333 3.5,52.1667 -0.5,52.5 Z"/></g>
<g><path style="opacity:0.011" fill="#000000" d="M 233.5,52.5 C 233.5,52.1667 233.5,51.8333 233.5,51.5C 234.833,51.5 236.167,51.5 237.5,51.5C 236.432,52.4345 235.099,52.7678 233.5,52.5 Z"/></g>
<g><path style="opacity:0.006" fill="#000000" d="M 362.5,52.5 C 362.5,52.1667 362.5,51.8333 362.5,51.5C 363.167,51.5 363.833,51.5 364.5,51.5C 364.158,52.3382 363.492,52.6716 362.5,52.5 Z"/></g>
<g><path style="opacity:0.009" fill="#000000" d="M 229.5,52.5 C 230.833,52.5 232.167,52.5 233.5,52.5C 231.485,53.9238 229.152,54.5905 226.5,54.5C 227.5,53.8333 228.5,53.1667 229.5,52.5 Z"/></g>
<g><path style="opacity:0.009" fill="#000000" d="M 358.5,52.5 C 359.833,52.5 361.167,52.5 362.5,52.5C 361.167,53.8333 359.833,53.8333 358.5,52.5 Z"/></g>
<g><path style="opacity:0.004" fill="#000000" d="M 813.5,53.5 C 812.833,54.1667 812.833,54.1667 813.5,53.5 Z"/></g>
<g><path style="opacity:0.011" fill="#000000" d="M 881.5,54.5 C 882.274,53.8529 883.274,53.5195 884.5,53.5C 887.5,54 890.5,54.5 893.5,55C 891.19,55.4966 888.857,55.6633 886.5,55.5C 885.081,54.5489 883.415,54.2155 881.5,54.5 Z"/></g>
<g><path style="opacity:0.01" fill="#000000" d="M 143.5,54.5 C 144.209,55.404 145.209,55.7373 146.5,55.5C 144.274,56.559 141.941,56.3923 139.5,55C 140.793,54.51 142.127,54.3433 143.5,54.5 Z"/></g>
<g><path style="opacity:0.01" fill="#000000" d="M 971.5,56.5 C 945.819,57.9752 920.152,57.8085 894.5,56C 920.33,56.4663 945.997,56.633 971.5,56.5 Z"/></g>
<g><path style="opacity:0.008" fill="#000000" d="M 982.5,56.5 C 984.435,55.291 986.435,55.4577 988.5,57C 987.552,57.4828 986.552,57.6495 985.5,57.5C 984.791,56.596 983.791,56.2627 982.5,56.5 Z"/></g>
<g><path style="opacity:0.013" fill="#000000" d="M 113.5,57.5 C 114.251,56.4265 115.251,56.2599 116.5,57C 115.552,57.4828 114.552,57.6495 113.5,57.5 Z"/></g>
<g><path style="opacity:0.016" fill="#000000" d="M 628.5,57.5 C 599.498,57.6666 570.498,57.5 541.5,57C 570.67,56.1695 599.67,56.3362 628.5,57.5 Z"/></g>
<g><path style="opacity:0.015" fill="#000000" d="M 712.5,57.5 C 740.997,56.3362 769.664,56.1696 798.5,57C 769.835,57.5 741.169,57.6666 712.5,57.5 Z"/></g>
<g><path style="opacity:0.004" fill="#000000" d="M 816.5,56.5 C 817.833,57.1667 817.833,57.1667 816.5,56.5 Z"/></g>
<g><path style="opacity:0.012" fill="#000000" d="M 120.5,59.5 C 119.737,58.7321 118.737,58.2321 117.5,58C 119.635,57.3653 121.635,57.6986 123.5,59C 122.552,59.4828 121.552,59.6495 120.5,59.5 Z"/></g>
<g><path style="opacity:0.009" fill="#000000" d="M 211.5,57.5 C 212.833,57.5 214.167,57.5 215.5,57.5C 213.485,58.9238 211.152,59.5905 208.5,59.5C 209.5,58.8333 210.5,58.1667 211.5,57.5 Z"/></g>
<g><path style="opacity:0.004" fill="#000000" d="M 628.5,57.5 C 629.833,58.1667 629.833,58.1667 628.5,57.5 Z"/></g>
<g><path style="opacity:0.006" fill="#000000" d="M 821.5,57.5 C 821.842,58.3382 822.508,58.6716 823.5,58.5C 823.5,58.8333 823.5,59.1667 823.5,59.5C 821.692,59.5086 820.025,59.0086 818.5,58C 819.448,57.5172 820.448,57.3505 821.5,57.5 Z"/></g>
<g><path style="opacity:0.01" fill="#000000" d="M 131.5,61.5 C 130.167,61.5 128.833,61.5 127.5,61.5C 126.737,60.7321 125.737,60.2321 124.5,60C 127.139,59.4119 129.473,59.9119 131.5,61.5 Z"/></g>
<g><path style="opacity:0.01" fill="#000000" d="M 161.5,59.5 C 162.5,60.1667 163.5,60.8333 164.5,61.5C 162.073,61.477 159.74,60.977 157.5,60C 158.793,59.51 160.127,59.3433 161.5,59.5 Z"/></g>
<g><path style="opacity:0.01" fill="#000000" d="M 823.5,59.5 C 824.5,59.5 825.5,59.5 826.5,59.5C 827.209,60.404 828.209,60.7373 829.5,60.5C 827.32,61.7944 825.32,61.4611 823.5,59.5 Z"/></g>
<g><path style="opacity:0.008" fill="#000000" d="M 999.5,60.5 C 999.5,60.8333 999.5,61.1667 999.5,61.5C 998.5,61.5 997.5,61.5 996.5,61.5C 996.082,60.7784 995.416,60.2784 994.5,60C 996.197,59.6155 997.863,59.7822 999.5,60.5 Z"/></g>
<g><path style="opacity:0.012" fill="#000000" d="M 200.5,61.5 C 200.5,61.1667 200.5,60.8333 200.5,60.5C 205.833,60.8333 205.833,61.1667 200.5,61.5 Z"/></g>
<g><path style="opacity:0.009" fill="#000000" d="M 131.5,62.5 C 131.5,62.1667 131.5,61.8333 131.5,61.5C 133.927,61.523 136.26,62.023 138.5,63C 137.207,63.49 135.873,63.6567 134.5,63.5C 133.791,62.596 132.791,62.2627 131.5,62.5 Z"/></g>
<g><path style="opacity:0.01" fill="#000000" d="M 196.5,61.5 C 197.833,61.5 199.167,61.5 200.5,61.5C 198.485,62.9238 196.152,63.5905 193.5,63.5C 193.5,63.1667 193.5,62.8333 193.5,62.5C 194.791,62.7373 195.791,62.404 196.5,61.5 Z"/></g>
<g><path style="opacity:0.01" fill="#000000" d="M 325.5,62.5 C 325.5,62.1667 325.5,61.8333 325.5,61.5C 330.833,61.8333 330.833,62.1667 325.5,62.5 Z"/></g>
<g><path style="opacity:0.011" fill="#000000" d="M 321.5,63.5 C 321.5,63.1667 321.5,62.8333 321.5,62.5C 322.833,62.5 324.167,62.5 325.5,62.5C 324.432,63.4345 323.099,63.7678 321.5,63.5 Z"/></g>
<g><path style="opacity:0.01" fill="#000000" d="M 176.5,63.5 C 177.209,64.404 178.209,64.7373 179.5,64.5C 179.5,64.8333 179.5,65.1667 179.5,65.5C 177.073,65.477 174.74,64.977 172.5,64C 173.793,63.51 175.127,63.3433 176.5,63.5 Z"/></g>
<g><path style="opacity:0.01" fill="#000000" d="M 189.5,63.5 C 190.833,63.5 192.167,63.5 193.5,63.5C 191.485,64.9238 189.152,65.5905 186.5,65.5C 187.5,64.8333 188.5,64.1667 189.5,63.5 Z"/></g>
<g><path style="opacity:0.01" fill="#000000" d="M 318.5,64.5 C 318.5,64.1667 318.5,63.8333 318.5,63.5C 319.5,63.5 320.5,63.5 321.5,63.5C 320.791,64.404 319.791,64.7373 318.5,64.5 Z"/></g>
<g><path style="opacity:0.01" fill="#000000" d="M 843.5,63.5 C 845.265,64.4614 847.265,64.7947 849.5,64.5C 849.5,64.8333 849.5,65.1667 849.5,65.5C 845.753,65.6076 842.086,65.1076 838.5,64C 840.134,63.5065 841.801,63.3398 843.5,63.5 Z"/></g>
<g><path style="opacity:0.01" fill="#000000" d="M 142.5,64.5 C 144.927,64.523 147.26,65.023 149.5,66C 148.207,66.49 146.873,66.6567 145.5,66.5C 144.5,65.8333 143.5,65.1667 142.5,64.5 Z"/></g>
<g><path style="opacity:0.011" fill="#000000" d="M 314.5,65.5 C 314.5,65.1667 314.5,64.8333 314.5,64.5C 315.833,64.5 317.167,64.5 318.5,64.5C 317.432,65.4345 316.099,65.7678 314.5,65.5 Z"/></g>
<g><path style="opacity:0.01" fill="#000000" d="M 310.5,66.5 C 310.5,66.1667 310.5,65.8333 310.5,65.5C 311.833,65.5 313.167,65.5 314.5,65.5C 313.432,66.4345 312.099,66.7678 310.5,66.5 Z"/></g>
<g><path style="opacity:0.012" fill="#000000" d="M 849.5,65.5 C 851.833,65.5 854.167,65.5 856.5,65.5C 856.5,65.8333 856.5,66.1667 856.5,66.5C 853.941,66.8016 851.607,66.4682 849.5,65.5 Z"/></g>
<g><path style="opacity:0.011" fill="#000000" d="M 994.5,66.5 C 994.5,66.1667 994.5,65.8333 994.5,65.5C 996.167,65.5 997.833,65.5 999.5,65.5C 999.5,65.8333 999.5,66.1667 999.5,66.5C 997.833,66.5 996.167,66.5 994.5,66.5 Z"/></g>
<g><path style="opacity:0.01" fill="#000000" d="M 216.5,66.5 C 215.5,67.1667 214.5,67.8333 213.5,68.5C 212.127,68.6567 210.793,68.49 209.5,68C 211.74,67.023 214.073,66.523 216.5,66.5 Z"/></g>
<g><path style="opacity:0.013" fill="#000000" d="M 307.5,66.5 C 308.5,66.5 309.5,66.5 310.5,66.5C 309.5,67.8333 308.5,67.8333 307.5,66.5 Z"/></g>
<g><path style="opacity:0.011" fill="#000000" d="M 856.5,66.5 C 863.17,66.8891 869.836,67.3891 876.5,68C 869.6,68.7896 862.934,68.2896 856.5,66.5 Z"/></g>
<g><path style="opacity:0.011" fill="#000000" d="M 986.5,66.5 C 989.167,66.5 991.833,66.5 994.5,66.5C 988.406,68.0943 982.072,68.761 975.5,68.5C 975.5,68.1667 975.5,67.8333 975.5,67.5C 979.371,67.815 983.038,67.4816 986.5,66.5 Z"/></g>
<g><path style="opacity:0.014" fill="#000000" d="M 975.5,68.5 C 971.688,69.3238 967.688,69.8238 963.5,70C 934.813,70.8916 906.146,70.5583 877.5,69C 910.163,69.8331 942.83,69.6665 975.5,68.5 Z"/></g>
<g><path style="opacity:0.008" fill="#000000" d="M 488.5,70.5 C 534.665,69.3351 580.998,69.1685 627.5,70C 581.168,70.5 534.835,70.6667 488.5,70.5 Z"/></g>
<g><path style="opacity:0.008" fill="#000000" d="M 658.5,70.5 C 704.998,69.3351 751.665,69.1685 798.5,70C 751.835,70.5 705.168,70.6667 658.5,70.5 Z"/></g>
<g><path style="opacity:0.01" fill="#000000" d="M 292.5,70.5 C 297.411,70.8357 297.077,71.5024 291.5,72.5C 290.833,72.3333 290.167,72.1667 289.5,72C 290.737,71.7679 291.737,71.2679 292.5,70.5 Z"/></g>
<g><path style="opacity:0.01" fill="#000000" d="M 259.5,79.5 C 264.411,79.8357 264.077,80.5024 258.5,81.5C 257.833,81.3333 257.167,81.1667 256.5,81C 257.737,80.7679 258.737,80.2679 259.5,79.5 Z"/></g>
<g><path style="opacity:0.011" fill="#000000" d="M 248.5,83.5 C 248.5,83.1667 248.5,82.8333 248.5,82.5C 253.833,82.8333 253.833,83.1667 248.5,83.5 Z"/></g>
<g><path style="opacity:0.01" fill="#000000" d="M 245.5,83.5 C 246.5,83.5 247.5,83.5 248.5,83.5C 247.5,84.8333 246.5,84.8333 245.5,83.5 Z"/></g>
<g><path style="opacity:0.009" fill="#000000" d="M 219.5,90.5 C 220.873,90.3433 222.207,90.51 223.5,91C 220.937,92.0793 218.271,92.5793 215.5,92.5C 215.5,92.1667 215.5,91.8333 215.5,91.5C 217.099,91.7678 218.432,91.4345 219.5,90.5 Z"/></g>
<g><path style="opacity:0.01" fill="#000000" d="M 212.5,92.5 C 213.5,92.5 214.5,92.5 215.5,92.5C 214.5,93.8333 213.5,93.8333 212.5,92.5 Z"/></g>
<g><path style="opacity:0.01" fill="#000000" d="M 197.5,96.5 C 202.411,96.8357 202.077,97.5024 196.5,98.5C 195.833,98.3333 195.167,98.1667 194.5,98C 195.737,97.7679 196.737,97.2679 197.5,96.5 Z"/></g>
</svg>
