<svg xmlns="http://www.w3.org/2000/svg" xmlns:xlink="http://www.w3.org/1999/xlink" viewBox="0 0 867.63 143.79">
    <defs>
        <style>
        .cls-1{fill:url(#Sky);}
        .cls-2{fill:url(#linear-gradient);}
        .cls-3{fill:#fb7a14;}
        .cls-4{fill:#0148be;}
        </style>
        <linearGradient id="Sky" x1="278.95" y1="513.5" x2="1008.48" y2="513.5" gradientUnits="userSpaceOnUse">
            <stop offset="0" stop-color="#cce0f4"/>
            <stop offset="0.06" stop-color="#c3dcf2"/>
            <stop offset="0.17" stop-color="#a9d2ee"/>
            <stop offset="0.31" stop-color="#80c2e7"/>
            <stop offset="0.47" stop-color="#47acde"/>
            <stop offset="0.57" stop-color="#1f9cd7"/>
            <stop offset="0.87" stop-color="#0675bc"/>
            <stop offset="0.99" stop-color="#005b97"/>
        </linearGradient>
        <linearGradient id="linear-gradient" x1="288.24" y1="505.29" x2="939.79" y2="505.29" gradientUnits="userSpaceOnUse">
            <stop offset="0" stop-color="#0148be"/>
            <stop offset="0.05" stop-color="#0a4ab8"/>
            <stop offset="0.12" stop-color="#244fa6"/>
            <stop offset="0.22" stop-color="#4e578a"/>
            <stop offset="0.34" stop-color="#876363"/>
            <stop offset="0.46" stop-color="#d07131"/>
            <stop offset="0.54" stop-color="#fb7a14"/>
            <stop offset="0.99" stop-color="#2adf5d"/>
        </linearGradient>
    </defs>
    <g>
        <path class="cls-1" fill="url(#Sky)" d="M303,521.43V544.6H288.24V465.87c12.2,0,24.73-.12,36.93-.12,38.5,0,38.61,55.34,0,55.68Zm0-13.61h22.16c18.91,0,18.8-27.89,0-27.89H303Z" transform="translate(-72.15 -432.21)"/>
        <path class="cls-1" fill="url(#Sky)" d="M424.77,544.6H366.13V465.87h58.64v14.39h-44v18.11H423.2v13.84H380.79V530h44Z" transform="translate(-72.15 -432.21)"/>
        <path class="cls-1" fill="url(#Sky)" d="M499.19,544.6H440.55V465.87h58.64v14.39h-44v18.11h42.41v13.84H455.21V530h44Z" transform="translate(-72.15 -432.21)"/>
        <path class="cls-1" fill="url(#Sky)" d="M584.35,544.6H567.46l-22.72-26.32h-15V544.6H515V465.75c12.42,0,24.85.12,37.27.12,18.46.11,28.2,12.48,28.2,26.09,0,10.8-4.93,21.71-19.81,24.74l23.72,26.88Zm-54.61-64.9v25.19h22.5c9.4,0,13.43-6.29,13.43-12.59s-4.14-12.6-13.43-12.6Z" transform="translate(-72.15 -432.21)"/>
        <path class="cls-1" fill="url(#Sky)" d="M604.28,517.38V544.6h-6V465.87h34.36c34,0,34,51.51,0,51.51Zm0-45.89v40.38h28.31c26.07,0,26.07-40.38,0-40.38Z" transform="translate(-72.15 -432.21)"/>
        <path class="cls-1" fill="url(#Sky)" d="M679.26,465.87v73h44.09v5.74H673.22V465.87Z" transform="translate(-72.15 -432.21)"/>
        <path class="cls-1" fill="url(#Sky)" d="M798.55,544.6l-8.61-19.35H743.16l-8.5,19.35h-6.5l35.14-78.73h6.61L805,544.6Zm-11-25-21-47.91-21,47.91Z" transform="translate(-72.15 -432.21)"/>
        <path class="cls-1" fill="url(#Sky)" d="M834.37,513.11,803.82,466v-.11h7l26.52,41.39L864,465.87h7.05V466l-30.66,47.13V544.6h-6Z" transform="translate(-72.15 -432.21)"/>
        <path class="cls-1" fill="url(#Sky)" d="M932.51,481.05c-5.7-9.22-14.88-10.57-23.72-10.68-9.18,0-23.72,3.37-23.72,16,0,10,10.74,12.37,23.94,14.84,15.11,2.93,30.78,5.63,30.78,22.61-.11,17.77-17.91,22-31,22-12.2,0-26.08-5.06-32.12-17.09L882,526c4.82,9.56,17.13,14.28,26.75,14.28s25-2.7,25-16.64c.11-11.81-12.87-14.4-25.74-16.87-14.33-2.81-29-5.74-29-20.25-.33-16.64,16.9-21.82,29.77-21.82,11.19,0,20.93,1.8,28.65,13.39Z" transform="translate(-72.15 -432.21)"/>
        <path class="cls-2" fill="url(#linear-gradient)" d="M303,521.43V544.6H288.24V465.87c12.2,0,24.73-.12,36.93-.12,38.5,0,38.61,55.34,0,55.68Zm0-13.61h22.16c18.91,0,18.8-27.89,0-27.89H303Z" transform="translate(-72.15 -432.21)"/>
        <path class="cls-2" fill="url(#linear-gradient)" d="M424.77,544.6H366.13V465.87h58.64v14.39h-44v18.11H423.2v13.84H380.79V530h44Z" transform="translate(-72.15 -432.21)"/>
        <path class="cls-2" fill="url(#linear-gradient)" d="M499.19,544.6H440.55V465.87h58.64v14.39h-44v18.11h42.41v13.84H455.21V530h44Z" transform="translate(-72.15 -432.21)"/>
        <path class="cls-2" fill="url(#linear-gradient)" d="M584.35,544.6H567.46l-22.72-26.32h-15V544.6H515V465.75c12.42,0,24.85.12,37.27.12,18.46.11,28.2,12.48,28.2,26.09,0,10.8-4.93,21.71-19.81,24.74l23.72,26.88Zm-54.61-64.9v25.19h22.5c9.4,0,13.43-6.29,13.43-12.59s-4.14-12.6-13.43-12.6Z" transform="translate(-72.15 -432.21)"/>
        <path class="cls-2" fill="url(#linear-gradient)" d="M604.28,517.38V544.6h-6V465.87h34.36c34,0,34,51.51,0,51.51Zm0-45.89v40.38h28.31c26.07,0,26.07-40.38,0-40.38Z" transform="translate(-72.15 -432.21)"/>
        <path class="cls-2" fill="url(#linear-gradient)" d="M679.26,465.87v73h44.09v5.74H673.22V465.87Z" transform="translate(-72.15 -432.21)"/>
        <path class="cls-2" fill="url(#linear-gradient)" d="M798.55,544.6l-8.61-19.35H743.16l-8.5,19.35h-6.5l35.14-78.73h6.61L805,544.6Zm-11-25-21-47.91-21,47.91Z" transform="translate(-72.15 -432.21)"/>
        <path class="cls-2" fill="url(#linear-gradient)" d="M834.37,513.11,803.82,466v-.11h7l26.52,41.39L864,465.87h7.05V466l-30.66,47.13V544.6h-6Z" transform="translate(-72.15 -432.21)"/>
        <path class="cls-2" fill="url(#linear-gradient)" d="M932.51,481.05c-5.7-9.22-14.88-10.57-23.72-10.68-9.18,0-23.72,3.37-23.72,16,0,10,10.74,12.37,23.94,14.84,15.11,2.93,30.78,5.63,30.78,22.61-.11,17.77-17.91,22-31,22-12.2,0-26.08-5.06-32.12-17.09L882,526c4.82,9.56,17.13,14.28,26.75,14.28s25-2.7,25-16.64c.11-11.81-12.87-14.4-25.74-16.87-14.33-2.81-29-5.74-29-20.25-.33-16.64,16.9-21.82,29.77-21.82,11.19,0,20.93,1.8,28.65,13.39Z" transform="translate(-72.15 -432.21)"/>
        <path class="cls-2" fill="url(#linear-gradient)" d="M303,521.43V544.6H288.24V465.87c12.2,0,24.73-.12,36.93-.12,38.5,0,38.61,55.34,0,55.68Zm0-13.61h22.16c18.91,0,18.8-27.89,0-27.89H303Z" transform="translate(-72.15 -432.21)"/>
        <path class="cls-2" fill="url(#linear-gradient)" d="M424.77,544.6H366.13V465.87h58.64v14.39h-44v18.11H423.2v13.84H380.79V530h44Z" transform="translate(-72.15 -432.21)"/>
        <path class="cls-2" fill="url(#linear-gradient)" d="M499.19,544.6H440.55V465.87h58.64v14.39h-44v18.11h42.41v13.84H455.21V530h44Z" transform="translate(-72.15 -432.21)"/>
        <path class="cls-2" fill="url(#linear-gradient)" d="M584.35,544.6H567.46l-22.72-26.32h-15V544.6H515V465.75c12.42,0,24.85.12,37.27.12,18.46.11,28.2,12.48,28.2,26.09,0,10.8-4.93,21.71-19.81,24.74l23.72,26.88Zm-54.61-64.9v25.19h22.5c9.4,0,13.43-6.29,13.43-12.59s-4.14-12.6-13.43-12.6Z" transform="translate(-72.15 -432.21)"/>
        <path class="cls-2" fill="url(#linear-gradient)" d="M604.28,517.38V544.6h-6V465.87h34.36c34,0,34,51.51,0,51.51Zm0-45.89v40.38h28.31c26.07,0,26.07-40.38,0-40.38Z" transform="translate(-72.15 -432.21)"/>
        <path class="cls-2" fill="url(#linear-gradient)" d="M679.26,465.87v73h44.09v5.74H673.22V465.87Z" transform="translate(-72.15 -432.21)"/>
        <path class="cls-2" fill="url(#linear-gradient)" d="M798.55,544.6l-8.61-19.35H743.16l-8.5,19.35h-6.5l35.14-78.73h6.61L805,544.6Zm-11-25-21-47.91-21,47.91Z" transform="translate(-72.15 -432.21)"/>
        <path class="cls-2" fill="url(#linear-gradient)" d="M834.37,513.11,803.82,466v-.11h7l26.52,41.39L864,465.87h7.05V466l-30.66,47.13V544.6h-6Z" transform="translate(-72.15 -432.21)"/>
        <path class="cls-2" fill="url(#linear-gradient)" d="M932.51,481.05c-5.7-9.22-14.88-10.57-23.72-10.68-9.18,0-23.72,3.37-23.72,16,0,10,10.74,12.37,23.94,14.84,15.11,2.93,30.78,5.63,30.78,22.61-.11,17.77-17.91,22-31,22-12.2,0-26.08-5.06-32.12-17.09L882,526c4.82,9.56,17.13,14.28,26.75,14.28s25-2.7,25-16.64c.11-11.81-12.87-14.4-25.74-16.87-14.33-2.81-29-5.74-29-20.25-.33-16.64,16.9-21.82,29.77-21.82,11.19,0,20.93,1.8,28.65,13.39Z" transform="translate(-72.15 -432.21)"/>
        <path class="cls-2" fill="url(#linear-gradient)" d="M303,521.43V544.6H288.24V465.87c12.2,0,24.73-.12,36.93-.12,38.5,0,38.61,55.34,0,55.68Zm0-13.61h22.16c18.91,0,18.8-27.89,0-27.89H303Z" transform="translate(-72.15 -432.21)"/>
        <path class="cls-2" fill="url(#linear-gradient)" d="M424.77,544.6H366.13V465.87h58.64v14.39h-44v18.11H423.2v13.84H380.79V530h44Z" transform="translate(-72.15 -432.21)"/>
        <path class="cls-2" fill="url(#linear-gradient)" d="M499.19,544.6H440.55V465.87h58.64v14.39h-44v18.11h42.41v13.84H455.21V530h44Z" transform="translate(-72.15 -432.21)"/>
        <path class="cls-2" fill="url(#linear-gradient)" d="M584.35,544.6H567.46l-22.72-26.32h-15V544.6H515V465.75c12.42,0,24.85.12,37.27.12,18.46.11,28.2,12.48,28.2,26.09,0,10.8-4.93,21.71-19.81,24.74l23.72,26.88Zm-54.61-64.9v25.19h22.5c9.4,0,13.43-6.29,13.43-12.59s-4.14-12.6-13.43-12.6Z" transform="translate(-72.15 -432.21)"/>
        <path class="cls-2" fill="url(#linear-gradient)" d="M604.28,517.38V544.6h-6V465.87h34.36c34,0,34,51.51,0,51.51Zm0-45.89v40.38h28.31c26.07,0,26.07-40.38,0-40.38Z" transform="translate(-72.15 -432.21)"/>
        <path class="cls-2" fill="url(#linear-gradient)" d="M679.26,465.87v73h44.09v5.74H673.22V465.87Z" transform="translate(-72.15 -432.21)"/>
        <path class="cls-2" fill="url(#linear-gradient)" d="M798.55,544.6l-8.61-19.35H743.16l-8.5,19.35h-6.5l35.14-78.73h6.61L805,544.6Zm-11-25-21-47.91-21,47.91Z" transform="translate(-72.15 -432.21)"/>
        <path class="cls-2" fill="url(#linear-gradient)" d="M834.37,513.11,803.82,466v-.11h7l26.52,41.39L864,465.87h7.05V466l-30.66,47.13V544.6h-6Z" transform="translate(-72.15 -432.21)"/>
        <path class="cls-2" fill="url(#linear-gradient)" d="M932.51,481.05c-5.7-9.22-14.88-10.57-23.72-10.68-9.18,0-23.72,3.37-23.72,16,0,10,10.74,12.37,23.94,14.84,15.11,2.93,30.78,5.63,30.78,22.61-.11,17.77-17.91,22-31,22-12.2,0-26.08-5.06-32.12-17.09L882,526c4.82,9.56,17.13,14.28,26.75,14.28s25-2.7,25-16.64c.11-11.81-12.87-14.4-25.74-16.87-14.33-2.81-29-5.74-29-20.25-.33-16.64,16.9-21.82,29.77-21.82,11.19,0,20.93,1.8,28.65,13.39Z" transform="translate(-72.15 -432.21)"/>
        <polygon class="cls-3" fill="#fb7a14" points="41.3 0.01 124.64 0 131.31 11.56 100.27 65.53 63.36 65.53 29.88 123.72 18.95 104.81 52.62 45.93 88.94 45.93 104.09 19.61 52.86 19.61 11.43 91.43 0 71.96 41.3 0.01"/>
        <polygon class="cls-4" fill="#0148be" points="124.85 143.78 41.52 143.79 37.07 136.03 70.8 77.21 106.48 77.21 137.7 22.86 148.29 40.98 116.23 97 82.23 97 66.34 124.32 113.45 124.32 154.73 52.36 166.16 71.83 124.85 143.78"/>
    </g>
</svg>