<svg width="24" height="24" xmlns="http://www.w3.org/2000/svg" xmlns:xlink="http://www.w3.org/1999/xlink">
    <defs>
        <path d="M15.828 2.006c-.77 0-1.54.291-2.121.873L11.5 5.086l-.793-.793-1.414 1.414L11.086 7.5 9.293 9.293l1.414 1.414L12.5 8.914l2.586 2.586-1.793 1.793 1.414 1.414 1.793-1.793 1.793 1.793 1.414-1.414-.793-.793 2.207-2.207a3.015 3.015 0 0 0 0-4.242l-.879-.88 1.465-1.464-1.414-1.414-1.465 1.465-.879-.88a2.991 2.991 0 0 0-2.12-.872zm0 1.988c.254 0 .508.1.707.299l3.172 3.172a.985.985 0 0 1 0 1.414L17.5 11.086 12.914 6.5l2.207-2.207c.2-.2.453-.299.707-.299zM5.707 9.293l-1.414 1.414.793.793-2.207 2.207a3.015 3.015 0 0 0 0 4.242l.879.88-1.465 1.464 1.414 1.414 1.465-1.465.879.88a3.015 3.015 0 0 0 4.242 0l2.207-2.208.793.793 1.414-1.414-9-9zm.793 3.621l4.586 4.586-2.207 2.207a.985.985 0 0 1-1.414 0l-3.172-3.172a.985.985 0 0 1 0-1.414L6.5 12.914z"
              id="node"/>
    </defs>
    <g fill="none" fill-rule="evenodd">
        <mask id="nodeMask" fill="#fff">
            <use xlink:href="#node"/>
        </mask>
        <g class="mask" mask="url(#nodeMask)" fill="#647090" opacity=".497">
            <path d="M0 0h24v24H0z"/>
        </g>
    </g>
</svg>