<svg width="24" height="24" xmlns="http://www.w3.org/2000/svg" xmlns:xlink="http://www.w3.org/1999/xlink">
    <defs>
        <path d="M20 2l-3.465 3.465-.879-.88a2.991 2.991 0 0 0-2.12-.872c-.77 0-1.54.291-2.122.873L9.207 6.793 8.414 6 7 7.414l-1 1 .793.793-2.207 2.207a3.015 3.015 0 0 0 0 4.242l.879.88L2 20l1.414 1.414L6.88 17.95l.879.88a3.015 3.015 0 0 0 4.242 0l2.207-2.208.793.793 1-1L17.414 15l-.793-.793L18.828 12a3.015 3.015 0 0 0 0-4.242l-.879-.88 3.465-3.464L20 2zm-6.465 3.701c.254 0 .508.1.707.299l3.172 3.172a.985.985 0 0 1 0 1.414l-2.207 2.207-4.586-4.586L12.828 6c.2-.2.453-.299.707-.299zm-5.328 4.92l4.586 4.586-2.207 2.207a.985.985 0 0 1-1.414 0L6 14.242a.985.985 0 0 1 0-1.414l2.207-2.207z"
              id="nodeCon"/>
    </defs>
    <g fill="none" fill-rule="evenodd">
        <mask id="nodeConMask" fill="#fff">
            <use xlink:href="#nodeCon"/>
        </mask>
        <g class="mask" mask="url(#nodeConMask)" fill="#00960D">
            <path d="M0 0h24v24H0z"/>
        </g>
    </g>
</svg>