<svg width="16" height="20" xmlns="http://www.w3.org/2000/svg" xmlns:xlink="http://www.w3.org/1999/xlink">
    <defs>
        <path d="M12 21.75c1.1 0 2-.9 2-2h-4c0 1.1.9 2 2 2zm6-6v-5c0-3.07-1.63-5.64-4.5-6.32v-.68c0-.83-.67-1.5-1.5-1.5s-1.5.67-1.5 1.5v.68C7.64 5.11 6 7.67 6 10.75v5l-2 2v1h16v-1l-2-2zm-2 1H8v-6c0-2.48 1.51-4.5 4-4.5s4 2.02 4 4.5v6z"
              id="notif"/>
    </defs>
    <g transform="translate(-4 -2)" fill="none" fill-rule="evenodd">
        <mask id="notifMask" fill="#fff">
            <use xlink:href="#notif"/>
        </mask>
        <g class="mask" mask="url(#notifMask)" fill="#000" fill-opacity=".54">
            <path d="M0 0h24v24H0z"/>
        </g>
    </g>
</svg>