<svg width="24" height="24" viewBox="0 0 24 24" fill="none" xmlns="http://www.w3.org/2000/svg">
<path d="M0 0.919612C0.126602 0.709126 0.224466 0.473786 0.38835 0.298252C0.621359 0.0349514 0.95534 0 1.29087 0H8.93592C13.4926 0 18.0515 0.0015534 22.6128 0.00466019C22.8453 -0.000873794 23.0766 0.0386905 23.294 0.121165C23.7118 0.295922 23.9317 0.647767 23.9371 1.09748C23.9487 2.21204 23.9518 3.3266 23.9371 4.43728C23.9285 5.09126 23.4315 5.53087 22.7309 5.53476C21.7484 5.54097 20.7666 5.53476 19.7849 5.53476H19.5052V16.5437C19.5052 17.0874 19.3546 17.2427 18.814 17.2427H11.1744C11.0346 17.7864 10.88 18.3138 10.7643 18.852C10.6692 19.285 10.484 19.6931 10.2206 20.0497C9.50058 21.0594 8.79689 22.0769 8.09942 23.0998C8.03068 23.2123 7.93266 23.3041 7.81584 23.3652C7.69901 23.4264 7.56776 23.4547 7.43612 23.447C5.55029 23.4408 3.66447 23.447 1.77864 23.4431C1.26136 23.4431 1.0866 23.2715 1.0866 22.7612C1.0866 20.407 1.07883 18.0536 1.09049 15.7002C1.09049 15.0206 1.40117 14.4202 1.71184 13.8361C2.41553 12.5049 3.32116 11.3188 4.28505 10.1748C4.37357 10.0639 4.42493 9.92808 4.43184 9.78641C4.44194 8.46136 4.43806 7.13709 4.43806 5.81204V5.55262C4.33864 5.54796 4.25631 5.54097 4.17398 5.54097C3.27767 5.54097 2.38058 5.51845 1.48583 5.54718C0.782136 5.56971 0.25165 5.36544 0 4.66019V0.919612ZM11.4307 16.233H18.5049V3.31029H5.43689V16.2672C5.69709 16.2672 5.94485 16.2594 6.19184 16.2672C6.3301 16.2726 6.38058 16.2151 6.4132 16.0901C6.48078 15.8346 6.56311 15.5829 6.64621 15.3305C7.08427 13.9503 7.55573 12.5817 8.27728 11.3188C8.69204 10.5957 9.25282 10.0342 10.0637 9.75689C10.8225 9.49825 11.4439 9.71961 11.8183 10.4241C11.9386 10.659 12.0349 10.9054 12.1056 11.1596C12.2975 11.8043 12.1437 12.4458 12.0334 13.0788C11.8532 14.1359 11.6365 15.1751 11.4307 16.233ZM2.07612 22.4233C2.15379 22.4303 2.19961 22.4381 2.24621 22.4381C3.88971 22.4381 5.53398 22.4381 7.17748 22.4311C7.23122 22.4244 7.28304 22.4068 7.32977 22.3794C7.3765 22.352 7.41718 22.3154 7.44932 22.2718C8.168 21.2544 8.88023 20.2322 9.58602 19.2054C9.65056 19.109 9.69833 19.0024 9.72738 18.8901C10.3016 16.7721 10.7682 14.6265 11.1254 12.4614C11.2194 11.8936 11.2388 11.3491 10.9266 10.835C10.8179 10.6563 10.6726 10.5864 10.4761 10.6392C10.3637 10.6694 10.2548 10.7115 10.1515 10.765C9.53942 11.0812 9.17903 11.6194 8.88311 12.2144C8.15612 13.6769 7.67534 15.2295 7.21631 16.7899C7.11379 17.1386 6.9833 17.2404 6.61282 17.2419C6.11417 17.2419 5.61553 17.2419 5.11689 17.2419C4.60349 17.2419 4.44194 17.0819 4.44194 16.5748V11.6039C3.78951 12.3083 2.7332 13.9433 2.37825 14.7425C2.17185 15.2043 2.06772 15.7054 2.07301 16.2113C2.08932 18.1825 2.08 20.1538 2.08 22.125L2.07612 22.4233ZM19.5177 4.52116C19.5953 4.52582 19.666 4.53359 19.7344 4.53359C20.7083 4.53359 21.6823 4.53359 22.6563 4.53359C22.9398 4.53359 22.9538 4.51806 22.9538 4.22291C22.9538 3.24893 22.9538 2.27495 22.9538 1.30097C22.9538 1.01359 22.939 0.998835 22.6478 0.998835C15.5254 0.998835 8.40334 0.998835 1.28155 0.998835C1.05786 0.998835 0.982524 1.07029 0.984854 1.29476C0.993398 2.28427 0.984854 3.27379 0.988738 4.2633C0.988738 4.5468 1.01049 4.56777 1.29942 4.56777H4.21825C4.28583 4.56777 4.3534 4.56 4.42563 4.55534V3.29243H3.73748C3.29165 3.29243 3.05476 3.12388 3.04466 2.80388C3.03456 2.48388 3.28311 2.29437 3.73825 2.29437C9.22431 2.29437 14.7099 2.29437 20.195 2.29437C20.2961 2.29515 20.397 2.30294 20.4971 2.31767C20.5828 2.32842 20.6633 2.36423 20.7286 2.42061C20.794 2.47699 20.8412 2.55142 20.8645 2.63456C20.9849 2.9732 20.7433 3.27456 20.3309 3.28932C20.0621 3.29942 19.7926 3.28932 19.5177 3.28932V4.52116Z" fill="#B8B8B8" stroke="#B8B8B8"/>
</svg>
